<mxfile host="Electron" agent="Mozilla/5.0 (Macintosh; Intel Mac OS X 10_15_7) AppleWebKit/537.36 (KHTML, like Gecko) draw.io/24.7.8 Chrome/128.0.6613.36 Electron/32.0.1 Safari/537.36" version="24.7.8">
  <diagram name="Page-1" id="qmfa6T0OFjMDdjeG4pX1">
    <mxGraphModel dx="1114" dy="782" grid="1" gridSize="10" guides="1" tooltips="1" connect="1" arrows="1" fold="1" page="1" pageScale="1" pageWidth="1169" pageHeight="827" math="0" shadow="0">
      <root>
        <mxCell id="0" />
        <mxCell id="1" parent="0" />
        <mxCell id="JY2pvBNMIxw1t-54_Stx-29" value="" style="rounded=0;whiteSpace=wrap;html=1;shadow=0;glass=0;strokeColor=none;" vertex="1" parent="1">
          <mxGeometry x="270" y="200" width="720" height="350" as="geometry" />
        </mxCell>
        <mxCell id="JY2pvBNMIxw1t-54_Stx-13" value="" style="rounded=1;whiteSpace=wrap;html=1;" vertex="1" parent="1">
          <mxGeometry x="570" y="230" width="390" height="290" as="geometry" />
        </mxCell>
        <mxCell id="JY2pvBNMIxw1t-54_Stx-9" value="" style="rounded=1;whiteSpace=wrap;html=1;" vertex="1" parent="1">
          <mxGeometry x="309" y="230" width="140" height="290" as="geometry" />
        </mxCell>
        <mxCell id="JY2pvBNMIxw1t-54_Stx-1" value="Microsoft Entra ID" style="image;aspect=fixed;html=1;points=[];align=center;fontSize=12;image=img/lib/azure2/identity/Azure_Active_Directory.svg;" vertex="1" parent="1">
          <mxGeometry x="610" y="260" width="50" height="45.71" as="geometry" />
        </mxCell>
        <mxCell id="JY2pvBNMIxw1t-54_Stx-5" value="Active directory" style="sketch=0;pointerEvents=1;shadow=0;dashed=0;html=1;strokeColor=none;fillColor=#295294;labelPosition=center;verticalLabelPosition=bottom;verticalAlign=top;outlineConnect=0;align=center;shape=mxgraph.office.servers.active_directory_federation_services_server_blue;" vertex="1" parent="1">
          <mxGeometry x="360" y="264" width="45" height="56" as="geometry" />
        </mxCell>
        <mxCell id="JY2pvBNMIxw1t-54_Stx-7" value="On premises&amp;nbsp;" style="sketch=0;pointerEvents=1;shadow=0;dashed=0;html=1;strokeColor=none;fillColor=#295294;labelPosition=center;verticalLabelPosition=bottom;verticalAlign=top;outlineConnect=0;align=center;shape=mxgraph.office.servers.on_premises_server;" vertex="1" parent="1">
          <mxGeometry x="357" y="416" width="44" height="58" as="geometry" />
        </mxCell>
        <mxCell id="JY2pvBNMIxw1t-54_Stx-10" value="Recovery Services&lt;div&gt;Vault&lt;/div&gt;" style="image;aspect=fixed;html=1;points=[];align=center;fontSize=12;image=img/lib/azure2/storage/Recovery_Services_Vaults.svg;" vertex="1" parent="1">
          <mxGeometry x="820" y="320" width="57.5" height="50" as="geometry" />
        </mxCell>
        <mxCell id="JY2pvBNMIxw1t-54_Stx-11" value="Azure File Share" style="image;aspect=fixed;html=1;points=[];align=center;fontSize=12;image=img/lib/azure2/storage/Azure_Fileshare.svg;" vertex="1" parent="1">
          <mxGeometry x="810" y="430" width="60" height="60" as="geometry" />
        </mxCell>
        <mxCell id="JY2pvBNMIxw1t-54_Stx-14" style="edgeStyle=orthogonalEdgeStyle;rounded=0;orthogonalLoop=1;jettySize=auto;html=1;strokeWidth=2;endArrow=block;endFill=1;" edge="1" parent="1">
          <mxGeometry relative="1" as="geometry">
            <mxPoint x="800" y="460" as="targetPoint" />
            <mxPoint x="670" y="460" as="sourcePoint" />
          </mxGeometry>
        </mxCell>
        <mxCell id="JY2pvBNMIxw1t-54_Stx-12" value="Virtual Network&lt;br&gt;Gateway" style="image;aspect=fixed;html=1;points=[];align=center;fontSize=12;image=img/lib/azure2/networking/Virtual_Network_Gateways.svg;" vertex="1" parent="1">
          <mxGeometry x="614" y="421" width="45.22" height="60" as="geometry" />
        </mxCell>
        <mxCell id="JY2pvBNMIxw1t-54_Stx-15" value="SMB 3.0&lt;br&gt;Porta 445" style="text;html=1;align=center;verticalAlign=middle;whiteSpace=wrap;rounded=0;" vertex="1" parent="1">
          <mxGeometry x="706" y="427" width="60" height="30" as="geometry" />
        </mxCell>
        <mxCell id="JY2pvBNMIxw1t-54_Stx-17" style="edgeStyle=orthogonalEdgeStyle;rounded=0;orthogonalLoop=1;jettySize=auto;html=1;strokeWidth=2;startArrow=block;startFill=1;endArrow=block;endFill=1;" edge="1" parent="1">
          <mxGeometry relative="1" as="geometry">
            <mxPoint x="600" y="460" as="targetPoint" />
            <mxPoint x="420" y="460" as="sourcePoint" />
          </mxGeometry>
        </mxCell>
        <mxCell id="JY2pvBNMIxw1t-54_Stx-18" value="VPN S2S" style="text;html=1;align=center;verticalAlign=middle;whiteSpace=wrap;rounded=0;" vertex="1" parent="1">
          <mxGeometry x="486" y="436" width="60" height="30" as="geometry" />
        </mxCell>
        <mxCell id="JY2pvBNMIxw1t-54_Stx-19" style="edgeStyle=orthogonalEdgeStyle;rounded=0;orthogonalLoop=1;jettySize=auto;html=1;entryX=0.974;entryY=0.38;entryDx=0;entryDy=0;entryPerimeter=0;strokeWidth=2;startArrow=block;startFill=1;endArrow=block;endFill=1;" edge="1" parent="1" source="JY2pvBNMIxw1t-54_Stx-11" target="JY2pvBNMIxw1t-54_Stx-10">
          <mxGeometry relative="1" as="geometry">
            <Array as="points">
              <mxPoint x="910" y="460" />
              <mxPoint x="910" y="339" />
            </Array>
          </mxGeometry>
        </mxCell>
        <mxCell id="JY2pvBNMIxw1t-54_Stx-20" value="Backup" style="text;html=1;align=center;verticalAlign=middle;whiteSpace=wrap;rounded=0;rotation=90;" vertex="1" parent="1">
          <mxGeometry x="890" y="384" width="60" height="30" as="geometry" />
        </mxCell>
        <mxCell id="JY2pvBNMIxw1t-54_Stx-22" value="" style="sketch=0;pointerEvents=1;shadow=0;dashed=0;html=1;strokeColor=none;fillColor=#505050;labelPosition=center;verticalLabelPosition=bottom;verticalAlign=top;outlineConnect=0;align=center;shape=mxgraph.office.communications.exchange_active_sync;fillColor=#2072B8;" vertex="1" parent="1">
          <mxGeometry x="503" y="295.71" width="26" height="24.29" as="geometry" />
        </mxCell>
        <mxCell id="JY2pvBNMIxw1t-54_Stx-23" style="edgeStyle=orthogonalEdgeStyle;rounded=0;orthogonalLoop=1;jettySize=auto;html=1;strokeWidth=2;startArrow=none;startFill=0;endArrow=block;endFill=1;" edge="1" parent="1">
          <mxGeometry relative="1" as="geometry">
            <mxPoint x="605" y="290" as="targetPoint" />
            <mxPoint x="405" y="290" as="sourcePoint" />
          </mxGeometry>
        </mxCell>
        <mxCell id="JY2pvBNMIxw1t-54_Stx-28" value="Microsoft Entra Connect" style="text;html=1;align=center;verticalAlign=middle;whiteSpace=wrap;rounded=0;" vertex="1" parent="1">
          <mxGeometry x="464" y="260" width="104" height="30" as="geometry" />
        </mxCell>
        <mxCell id="JY2pvBNMIxw1t-54_Stx-31" value="" style="shape=image;verticalLabelPosition=bottom;labelBackgroundColor=default;verticalAlign=top;aspect=fixed;imageAspect=0;image=data:image/png,iVBORw0KGgoAAAANSUhEUgAAAgAAAAIACAYAAAD0eNT6AAAAAXNSR0IArs4c6QAAAERlWElmTU0AKgAAAAgAAYdpAAQAAAABAAAAGgAAAAAAA6ABAAMAAAABAAEAAKACAAQAAAABAAACAKADAAQAAAABAAACAAAAAAAL+LWFAABAAElEQVR4Aey9a6xtS1bft/ba+5xzb/elb0M3EKB5Jg2hkQETknYSy3FbGNtA4ge6pOMHWMJyBIkUrMifkg/7W4SifEik+EMiy5G/ENmKFDsKkWJZ7SSAm4Ru6MY81A4okE5D09zu5vbte+85Z5+1M36jxr/WmLVqrsc++zz2XlX3njnqP2rUqKox56pRrzn3YjHCsMCwwLDAsMCwwLDAsMCwwLDAsMCwwLDAsMCwwLDAsMCwwLDAsMCwwLDAsMCwwLDAsMCwwLDAsMCwwLDAsMCwwLDAsMCwwLDAsMCwwLDAsMCwwLDAsMCwwLDAsMCwwLDAsMCwwLDAsMCwwLDAsMCwwLDAsMCwwLDAsMCwwLDAsMCwwLDAsMCwwLDAsMCwwLDAsMCwwLDAsMCwwLDAsMCwwLDAsMCwwLDAsMCwwLDAsMCwwLDAsMCwwLDAsMCwwLDAsMCwwLDAsMCwwLDAsMCwwLDAsMCwwLDAsMCwwLDAsMCwwLDAsMCwwLDAsMCwwLDAsMCwwLDAsMCwwLDAsMCwwLDAsMCwwLDAsMCwwOJk2GBY4Hm3wIsf/KmvPXn7295NPd/423/2F5/3+o76DQsMCwwL3AQLjAHATbhLR1THlz74d/744tHFty7vv/mBy8Xyexdf/L2XT05O3QKXl48Wii/vvrBYnNm/l+8sXvrSty1efM9XLe686+sW7/jmr7o8u3t6slguj8hqo6k7LbBaLfyZmKEr4y/tmTmIWqGmdcGTlunFF9568Oitk986vbP859TrcrX4nx9dXn70o9/3rg+DRxgWeF4sMAYAz8udOOp6nC9feuVr/v2TB/d/5OStP3i/DQDcGu7wl3eKZawXJeRBwOXlQ+Oo+/XkxeXFg8U7v+N9i3d8x/sXX/btX1eY4zos0LPAzGDARgE96erklZidvg83GUC4FE/lOi556Fufeuvv3f+Dh3/zV374q38780d8WOBZWGAMAJ6F1UeZ1QIvvfLf/tjJ/fv/2eKLv/vyyfJe4TN7z50zzv/EeDEIQAjnf3JyxwcEJVPptC8fPGBU4OHsG77hzpf/oX9x8eUf+De8QxZ/0NtrAc3g1cKK43maw+I7tcwre9zciVs+ixZsj1h1+qRnbDLIscqgQQBwLlx89uFP3//sm//px/69rxlbWnNGGvwnboExAHjiJh4FbFrgfPniB7/la87efPXvn7zxufd7Ok6/FzQbS84/i7EiUEIZAEzSYjDAQOA93/OnFu9837+Qk0f8WCyQB5NqswaZwonKyYt1EN5zACDdY0VAlhj0WVhgDACehdWPvExm/cvXfu9vbTWDHD9CdNZsC8yuAky3ArQKcHL37h3FF6u37rzzX/muxXte+XOXyxdOTVOZqUFHuAUWyE4eJ2z4Snv69jhMZvYNlqU0KOhSH1ywakDqfuHh7z/8D/6vn//Yf7M4/0DZ/9ov25AaFngsC4wBwGOZb2Q+1ALv+Hf+q7+3vHjzlZU59JPTe4vLR/cXy9MXFqtHb82r0mBgdhVA2wFl9Z+tgdX9Lz6cDADQboOA5bves/iX/6MfWdx9x0vz5Y2Um2mBZhAw2Ubao0Vy5hIVPowyoJTjt4EIg4AH9u+u8Ru6LPsMXhzbBmwL/J//9GN/dgwCdAcGfdIWGAOAJ23hod8t8O6f/Jkvuf9zv/SPOOQnxy8qE3UHAnL+EmoGAeuzANNBADP/jQEAOmwQcPLCOxbf+KN/7fWX3vuul8ZKgAz7fFLN5FW7isPZ74sl55THgJk9q0Cmx1022Pw0rtvxY9JS36KJsmp463KxeGHd7eZFAuQYBHzx02/92DgkWC02Ik/QAusn8QkWMlQftwWy85eTF8UyOT6xVDuji7cDJjIG5s4BbBsELJYvPPzW/+QnVvfe9XKcPGy1DvzcWkDPhSooDFXwZfiC5dSVtC9O2uqgQDo0SNiGlVaGFGs0HWYEn22LWDm4/+n7//wjv/DL7xsrAdlmI/4kLJDHpk9C/9A5LLB48LMf/dvL+6/7zJ+lfhz+pf1HyM6f+CTQiSvQuXMGgH8plBUAvhOw8rcClJSdPysB4ldqKwG//p//rXsPXnu9drzqgKvMiDw7C8iZB2Wm7gGKs8x8YXeiJiVsUa2yy5m3GJ08UTU9YT1pSj8ISyEFeIChf9JoHMlZhNUAViXufeW99/5r//p3/IPIOMiwwBOzgJ7pJ1bAUHzcFvADf7bnv1ieuSHk5PPev3jdcwDR4VcrNlsA7PeXsEwrATZOCKff3Qaw2T95Lt96bfGJ/+5/8E4XPA4EYoXnJJgT9wDFOQbFuWfsUqQj3FJjaYmddHxtu8xvrMLfQVs54VlKNUn0UGI8yoT14MXqg9xasIKzL7vzff/q//LZHy85xnVY4MlYwH83T0b10HrsFvBP+No7/n7gL7463XPy4mkgMLFb7iGJE7asAuDGFeobAGJ06MNPfHzx6Q/9jHXW6144xztZBusaLSBnKJUVh1d0rGfAqHClkdH32UnP2OIVW5wnA3wVatkm+YRRqCfOaSrQyzEslh7f1BzUbARfCbBMd959579m+2xDYDCGBa7JAnp2r0ndUDMsIAucL++88Zn/4uT+H7zsh/1syf+E/+zkPwFnr+2AjD2xvdBjqtfE+c+uAtjYID4bjAqtArTxrP7k7O7id/6nf/xw9dajsidhiWMlIFvoycbrzD6KqTjut3dQDAYSxvmLD8XB+kw/+BXDV/oMNfZkULAvlhwFUF7GUhhjGBdABlx5JYtjPdo5bXVRtH7Td77vvw/RQYYFrt0C/ju6dq1D4dFb4MW/+N4fPHnwxis4ehw/AYdPXDP+bCTxuqsAnjm6WZx/ZwUAkfJlwPI2ADivAOQ4aRwCdGqXywev3fnk3/8fT3zmb72wVgBEJTfoY1hA3i2oz+BRBzYPKFxn9uIjo3Sow+lMX04eUcIcFj/TLA9/J6a6CHWoZy7N8fQiaNymQNpAaEyiMU5JtLYyqLn7zjvf993/8LN/ZnH+obKHVlLHdVjgWiygZ/5alA0lwwJuAeuszr74uf+YfX8O+/Efjl/OXTRbSzwNBHKanITzTjf7QZ0D0N8GENUKQEsnugN87uc/vHj46hfsowTM/8vPQrQnP3gHWsDs6iHoxkwfvnlE8V0aTKYZiiP1mT8UMftHcH7QFu+Sk/wsNQVeDjQKElXBjmcVWIIqikwK5AszOCWJrY3L5eq/HG8EJEON6LVZgN/DCMMC12qBl379//mjfurfnL4Cg4DV2SMfDMjJ4/SJZ4q8BgPKW3tDGOpdO6sAZSCgtwFKL5tn/jledafI7/z0/3pPs/6WJrER3WYB3Z+Q0cxe922CzdttzPjDC/rdI116oqfKfFg13eLC+1DUZjlhFMLP2IH4qUCctVcg6ARXBZ5770seBLgKK+/Fr3zxvd/106/+kb2VDMFhgT0toGd9T/EhNiyw2wLLN77w4yfxV/yY+XPi31cALk4Ljdf9WuevgYHoRknewwZ35hxA2QbQ3wewzvze2/1zwKwCaCWg6o1tAM4BED7/kY+uk8INjFWAapL9IvkeWQ7N6DW13cBoNa/nHVFQBgUTjJ5wvO5rlQ6f7FuoJU3S57D4KEw+flKAFbuJa0ZvBqhRUFj7XjGfl4OaqIgPRh+u/sa+OobcsMC+FuD3M8KwwPVZwJb/LxfL781OXDN6VgAIUDl/Z9yzT/fGSgBY8p6mi3pD4WYFADZL/+WjQOqpCw/Hz+x/2woAgwD+lPDnP/5JcwDlP/XAWg1Q0YMmC8R9mczsLVl4doZPPvN27uNEyWc9Ep1S+L4NTMmT9ITFzzTLw5/DFOjpPZoVUrGMpdA1P/6lfczdTFbmC1/9wg89vvahYVhgagH9JqbcgYYFrmiBFz/xqT+/vHjrZTlxOX3UnVyUx21pKwE1HcdvOIc8eKj8PLMk3jkMyOxfbwGI1vwW2bYKgPMnvPaxn3fKzN9fLTM0VgHcJP1L3JeNmT18817i+50Ho2WGum/lYgE5YaeBSctYci1feG9qinC2FNyl+yhC5pqDm9HeCGAFxA8DXrP+oe64LcDvZ4RhgWuzwJ3XX32FJX8FOX0dBMzOPQ8OJA/V4EA0p2kp2XnhfHJ6+TLgHV8N0OFA0mdXAeyLgJ4e2wAcBiQw69ey81gBcJMUu7h3xEB4S0ihju1+zM74ESYdakGDq0yzM0dGeB/aygtv0FqBon9dIa8eN74W7I+XcFZEnPAUes8yGMGuVty9xX9YCh7XYYHrscBTeISvp6JDy/NugfMlryqx/C/HjYNn759weVZ6XqXB00qAlv8zJT0PFsDeC3rELrwN0PnbADoDUGh9089fCdy2AiC1ULYB3PnHAGOsAKytoxm9D8SMPcHmpbxDaSiDgsx3n1oeB7fzBJvOSMq+2PP3+NTM8zf5xN+gVCQyuL6MmwJwuh5aGuxaUeEnRMtAZLXg64Djw0BPyMhHqtZ/l0fa9tHsa7XA+cqX/x+8/jKzfUJe2s9xzfz9zYBm71+DAM8fhwVdmTPicaVHpHfWOQBRkykrAKdOrQY1a14BIF4TUkSHAdkGYGbqM//wAke3CiDvp/ZnbPbXzH9jxo89SQ+7Ykfuwhx28Zxuccn3aJYnfQ5ToKf3qBSTmXThVqFrf0aXZG+PUkn7c8Lf8K3v+6PPqEaj2FtoAT3yt7Bpo0lP2wIs//Puv2b9cvTUI8c1GPA3A9IbAW1982CgTZvg9EbAZNnfvwq4fsS1ArBxGFB/GyDOAfg2gHW2WgXw7YA0mJiUfVuBe0VrXNB9ZvoMytzaQXH62kaBL+w0sJHC30FbOeFZagVSDhWqNAqWby0Jlu4CJttS8j+rILuf0QCzq5Hl3bOxDfCs7sctLdceqxGGBR7fAixNsvyf9//l6NGuuFYH4DEo0DI/WwNy+BPewzcQ7Qc5qbQCsBbUo61e3VYH7E0ApfdWAbQCgMxnfvbDdRVAWwC3cRVAM3l5wa3Y7F1n/BgJDLXge/kN5g4oHRnhq9A2v3AtwAryO64CezgXTH08A5oitFj8J0nr6CMKEQ7qnwTGrnwa2HhsA4yvAj7JG3Jcup/FI39cFj6S1n7xY7/1p08v7tfT/zQ7z/oVZ9avOIMCnQmAlwcB1WzRS0vO+XSO6r27zt92B2z2rwOB0qVtAFHxnaZPA4Pf/OTvFHZxKxtxZ9yCy2Rmb+2ZYLOzdxCyd8LiQ/G5PtOP9IrhR7qRItfQlj+Hxd+gKsAo5dYCwc4wnleowbCVTj5Ciwv3yV71HKsUMBUThR+YQQB2/s5v/7a/JPFBhwUexwL8fEYYFnhsC/jy/+JiokezfphzcdJ8QHC/TM7zIGB2JSB3mmn5H10Kcv6i4nedP4m8DWCDAK0C5LcB5Clu9AqAvF2Pmj01868zfDkdbKN0qDDUQrvHD49ORb4UKtyjWV6dUZZTOgpzesXwlQHhjHMGVaQqJPIUg+yuIoV7lAaF/V088NK2AxgE3H372fgmgOw46GNZQD+Rx1IyMh+zBc799P/y4uEri8X0O/2a6cs6c1grAXL4kodqQFB6+ZxicTpJ/W2AZiVAZwHatwHQoOV/UdfKCkC8EujYLp/50M+VqHsYHNAN/rlEG6ods5MxO2rmXykth58og4MJtjRmpPKtUELGyO+DlW+WmqKsn4pw+zNVQc6fVWQJUoTM0wqyv8pr7O/3hYqLj5wa4u0szp9BwNlLp+NtANlx0MeygP+eH0vDyHzkFiin/xcx+89OPs/64WeM0TawTv2nLwPqXIDLK10WV2cJbT4MxMyf0K4A5HMAUlNpbANoFUDbAHXmHx1yxTXj8xPRTF41qlh1r06lOJuNGb/k6BnMrvKV7Uw/Y0TdRz0Gpb7eGVEtgAVhB+LXCnn1JgXzGNSKVAWe++ldZF+VKNyj+fklPWOvvyxhaZG+YpHN5N7z3m/+Cypi0GGBq1pAT9hV8498R2+B82VZ/rfZv3VMrVOXeTI/DxJIF64rALYdoJm/qMvZK4MbgU6T7wGwEpC2A9oVgIKXk9n/xmCgWQGobwPIJVGWhed5JcBn8MlImtHLuWxgZM25eMuC4mN37el7OnJkT9SiV8LKh0L0ZSyFzk8F4hPXgt6MCa6KQuypkHhGalngcN7Oy1gN2EalT9QaRXRsA1QLj8hjWICf0wjDAle2wLt/8nveXpb/0/6/9VDVqdvMvw3tYEDYnX1zGHDrCoAU4/zpRLUNIGrpWgEoKwLyGMa3NwImWwDoag4CwvK3AazT1ay/pcg8F6FxIpr5d2f43B/koVRe1KJ5Zk9Si+HJB3t6wupMlH4IpiIunyj6nS+FgWsFcgEu/Awvjf39efT6Fjt3sdndA9TjCasprtf4UPtfgW2A8TaArDHoVS0QT9xVs498x22B8yWn/4sNwgkDrLOqTp3v/Kuj6xhLchowCJ+c3tuQrisEGymJgfNvVgI0CNCqANI6DNgdBKSBgLYBNOtvaSr52UaxMU4iqGb6lVI77ssWin/ZmNmH3yGf/I/LBRa/pV4MFws53yw2BVSfCop6RuHZjKkAZJ5V0DPe3AfdD6+WN8xiPeq8sJTSpTNb0Hj+NoCdBRhvAzyrm317yuV3O8KwwBUtcL4qy/+RPTosd+bE1YFZhyaeHL2oCpbjl5PnewIbMnEGgJWCbqC85iwAcuUg4HQlQisAolXflr8NoI5bqwA1zxOMaCavIioOJzHB1n7N7L2uCbtrAYciZvbcn4xhVUxy4KtQyxqDjaAttoLQmwu06hQcdIKR9QxEIrRY/CdJ5ZxVhnCmVBycKfJgb1RUvOJIaxuom6GyoF4O93lsA2SzjPjVLPAsfkJXq+nI9dxZgI//+PK/dWTurKMTXK7sS7vEA1Nxd/CG5ehF20blbQBkdAZAFHkNEtq8c7isAEw/D6yZv1YCat6ZtwF8Zuydt7Wl7ahr5uuP+Aw+qdWMvjgS/MnU2fgPGrsHH8ygQHzHxtu5x0++KBeqfLAOwpYx60GRPxbiS7H4qQCXE86UOEGKC3o6V9lbpQmLwk/2dzE1BOrxqHjFkUcNQlfJGLQlJf/dd46/DdBaZuDDLKAn7bBcQ3pYwCzw1i/82l/W6X936LXjCvMY9oGB+B2qWb4oOdElJw+V84d6em8FQLrT/r8L20VL/4WuvQaz/40VAC/AXgkkX/yFwM/88m/4Xrhm/i1F9tpDdhqmvDvTFx87Iw+lIg2WjyXpae3pe3W8wDJ4kG+D+q3SbYCqguqNWoyepx0a+xfHbZUIO3exN8xkoJKj3pmfMfEyNEvUoiqb5JruYH0xGbYCvvHb3/dX1swRGxY4zAL6yR2Wa0gPCyzOl8v7b37APlC+7uzU6dE5cfjPaF0NwGKJ7wYknTMCFkQ1EMjOPg8CkBUmPgm8DaDOtjMQ0FkAdarM/rUSMNHTgIef+Lj/IRax1/vkT/Dno3aEM9mY6YtPpbDjNmpppLuvDccr7NlyuuQa2soJz1IrwItKtFTAq7uu0KwCS4i6IvLUQ7Y/hYe9NyhpZn8Ph9KSqeSdbeycEWwdys4B2GP+/aFgkGGBgy1APzDCsMDBFqin/+n0vHN8MOkk64qA0inB5HxAEHHPpzjUQh0I2MyfwYCcvajL2AoAeCPobQDqw1kAfSTIBOX8tR2gvHuvAvzshz2Lz/7Rb0ErAQ6ueKkz+8hfcTgTzezdyVi5wpUqH1UiPWOLV0zyDBZ/G0VtThemAPgZOxA/VcDNBg5FYUYX94sUrTlPPianrZKEe5QKw8+UfGoINMerZSSTG6h4S1WRPpU5/emzFYDxUaC+nQZ3Pwvo6dtPekgNC4QFyvK/gdoZ2koAoeLyaGkloPKjY10tbZU9x0vusnKAGnPyDAa2rQQoLbIWovJZAWBFIELeBmAQoKBVAAYC4mV6GX8hkG0AQt7/z/Gc55D41j1+s49bMTkdMM5ffMfUC88QfPex4SlqOsnINdTghL8vlhwKo6hCUwFU20MUPMGWUHGIVUXCT4PKYassPT+i8Kloi8VvqRrlVAYIHZMGKq2lKJwPmHcdyirA2AZYW2TEDrPA9Hk6LO+QPmILlOV/ev9p5+iOPXWWsysBLP0jZyGvCtQVgPh+ADP9diVgYV8KJHRXAVSfZgXAM9jl8vJRPRMALzv+3nYA5wD459sAJu+z/ujktQIgir7ZEHnk9XwGj7B0ZWp2mczwG8ygoboNMyFWFEblHBY/0ywPfyfmdiPUoZ4Z/j4FuPAzuDT3QfafUBqAnDfE6tjDnhYWy3I0SdibFzLFaiQ699CL1cZDpR6xJ+/B5dgGONSYQ75a4GpPY80+IsdngfNlPf1P462zq04fGHv6E350plVOnWuH1jMAOhuQVgLqNkB8KdCLt/RJUOfLCgD6m9D+lUA5fWgeDHi2+B5AXQXIfxvAdGsFQLQpagpVr6Cze/qku27LvoPSuvV5BBOPEp1P9g7mB9/jI5r5s5jqkSjzJuoJwrMKLEEFIfO0Q74PPB9h7w1KvUifo562Jb3ktKsa29IqsFfEzOqhUkXOThbjbYC9TDiEOhbQY9RJGqxhgZ4Fzlcs/18uLksiTorX/togPh2lnJpeD5zrdI1fBxChj3I002fJX4MAKB8LUlpbvGPKIaQDgdOzAKXecvwaDJRM62t+GwAuM35/jz7i4kGr03AAnDqJCbb61Zl+2Kli8pMuPdEUx8GHVdMRD7wPRW2WE0Yh/IwdiJ8KdPOCQ9EEVwWe+9ldGvvX+5OeSz2fE+r1t4Z5oww4DctMeGraxGpkUMJWKnNKaAMHY7YZdg5gvA0g6w16qAX2e0oP1Trkb7UFTh7c/5GTpS3hqxOlteqh1PK2k0y4rgQga/yKQ4dWAUTd8TcHAtkG4GNBrqJdBVC9oDj/5suA5MkfB5LjZyCguCtuLmwDXLz2hnM1629pdRiRd26m73JWP/8BNpRBQObjAyYzfaXDt3+ePkONPUmfw+KjMHxOoakAK3ZSoOOaMT0CEwUIPMPAc0dF0/NXsRqwjU7SomETntrWNlpY6X2KeXPYwMHI1Ufe8erEbpf9Ozsb2wDZiCO+twXa523vjEPwOC3A8v/pw/vvr52ozBA9lJx2HRDkzpK4/WtfDaw4dGhFIa8GnFyYq00rAIu0DbCxCpB7y9mzAA9tEFBeQaQJcv5aDVCz9PcBtArwuY/8kiexClAifaqZfp3R03ar1wZGCfyibeM9/UPf20cPP2pR1O6DyeCdQY9mBVIsqgKgzzLk54x6ZMzz0MP5OfG4W8Dvhzclp9e2hUyxlnGFJdBi8fsUMxJy9fbGS1sdY4XMMp+9Y3wUyA05LgdZ4LCn9SDVQ/j2WeB86af/6Rijc/TZOw2NHkzO29PhSY5DfSnfJF1yoslwl2eli2S2z3aABgFa/tffDBCtWaM+vgKgeE0sKwAFlp9AnvnneMriUb0NUPnWJh8M0DbV36hm/pWSAf4W6j41PAJywk4De3a71PQZvuT2plF9FLu5WrqPImSeVcj2pw4Ze4OMt416Whh/Ts7bFjJ+d2AIe2IHi9+n3EcC1d1KbaZPtZjxu1zCbAEQxtsAboZxOcACev4OyDJEj9cC5yuW/2tHaoaYOHwZRh2oOuEst7LvBShY+mT5X1j5yadDhbbkf0KnZ3v/DAIYEIji/MGTQYB6VMpSvDkLUKrRduCFO7mmPw6UtwHc8VtdfRvAe+fODF98FNK+UFzPEMQvcNtMHxHybaOozenCG7RWoMivK+TVmxTkZlPBWRFxQtS9gKd01bPRo1Q484W9IdTX0ufiVF9p3hQalxuY4y7sUu1F5hV/AzeMXF3yzGIGv1YFZvwLW/qHCjMoYBBgj/f3j78QKMsPuo8F2qd6nzxD5igtUE7/nz56+P7afPVWlRER65nqyoA6Vcny5UAF400GEMLkQUe8Cugz//RWAPy8EqCzAKJSXylld84CtK8EVvk20v6BoNgGcMdPXdEf1H9QtAMdQVminWBLqnv6lhWfUDHZ7B/B+Q1t+XNY/A1KRUKxl5NxUzDN8tDSYNeKCj8Nmu1NeRmrwlDxkcn8uXiWI+6NU8OFPSEuOW3N9/u8hpMhBGyqlYOw09jTV/WRc+dOc8zJO7b87vxx+momgwH7KiBvA3zbN33LV7vguAwL7GGB5nHcI8cQOVILxOn/VSzlYwX1XhatDj+sUx174CzrLPVeAHXK6FPcqGb/PvOPwYCvANhgoF0JQA2Dgo2ATv51zgKUVwKtPambZvlf5wGqrrQCAE/bAFoBQL+2AdwtOC6525l9i5HiRyh3AhXu0SxP+hxGoaf3qBSTmXThVqFrf0aX9Bx4DTKmwj3sDTFppWfs8Wig+K44NxqGsCd2sPjbaa4eknvh2NNX9T1fmun7zN/vZ6wAaBAQKwB8E+BtX/7CD2yv2UgdFlhboH3a1ykjNizQWKCe/m/4wA2H38pED1gHCtEJT7YAXJE9ksiSbv+Y7bcrAK7atgQ0CICy/A/tBvTxWeD0ZUDJ5YOAlbflmwDIaBtAbwDA8xm8leM/qKBW6sbMHjnnWxqUkDH5e7iVE56lmJHETEMx5vCKuoDJBZ1UiLzPMsTzUUYnVhEwFZ2j1FUN6VHntQ32TFwstEYo3DVfeD/aqz45nc9MnxstDM3OnGb2MIMB+GlQ4OYIvHzhdLwN4FYdl30tEI/hvuJD7lgt8OIHf+prfflfneuhhogerx0oVKweEb2KW1msArQrAIjktwLaMwCTswDSR731twGaswB5EKC3AOYOAua3AXzWj34L7j6s3tWN2C+LH5cwMsJXoW1+YQpAX6bALm4KlpldnosrqujpRNrnSbhHqTD8lnrdLU0NaqnSJw2ksbnBOb5uer5/cDdww1C1pUF4QpnpRz6nvT397Ozl9DO1/O0gYfWgvA3wbX/3U1+n8gcdFthmgf5Tvy3HSDtKC5w+er0sLdo7x7tCneX3BNXzKS3jiNf86shNVtsB+gxwb7+flQLCRhp60cUKQPcsAK8Elo8CyfFvbAO45vXl0z/zsTK7N71b9/gtS/T1TvnBgUXReBWsfChys0FhSrH4Emyx8bPpESsKPPb0Lukee6Fg3S9VsIcRVrriwi1V+qSBWMstRqqFHC8crpgzhw3cMDaag9M21eJnp41eb66cfcjVPf54nvfCbrbShrENkO/YiG+zQPP4bhMdacdsAZb/L9n/V+e6xRh1Vp9kek7dk6NnrFsBxsz5/SCgek/S2P+PQ4Du8E/vLvSqICsFhK0rAN2zAPZRIfsDQRoEuJLeJc4CsArw6NO/uXjw+hvmNmLZP8nzo5I7gQr3KNkyfxbjHEi04FQYKgUkZpwzGH+qAOGnGNrnRrhH3SuqIVbHHvZGRwM9HnI0SZj4RqNlFE/c+4L5cuhVm/QNPs7diqx8YZw7M3+a2ZvZIxfPc06njC4Oc/E2wOrR6ieQG2FYYJcFrvZr2KV1pN8qC2j537/+d8WWZafeU7GRHj2m8yPugwHLzPI/gZm+78PbR4HyNsDGCgDC6oX1J4PhRdDbAO1fCZxbBdDfBuCjQJRfX+kLfTgLangIJSvyhC7FiZTkQsFRgKgniD+rKBUQ+p4KmThlK1H3Y45SqbjvXeppYZE5OW/YxGoode6hF+5nDt4c7eWLmoCamZ03+dxpW9ETGk5+sqevwYDf7xg8MFiwkOWEM2VAYb+Kyxe//N57xzYAlhlhlwXa53qX/Eg/QgvU5X+1vfZyzeMjvuT2oHVloJXNuiKuQYJm/P4dAOsc5fzzdwFQ110JyAcB4yyA3gbIKwBy/joTUKtnqwA6B8A2gK8AhE/BGkSvQtHv1nQnAVpjB+JHWRTkZgFHgRNcFXjup3eRM1aJwj1KheH3qNff0r1RBpy6hYrmFrsRUnqxpmoxS2VOCaiau7DLaS9f1DIpP86a4JSZPs6e5kLl5DPFDD0cfHTVwUM0Eyy+R1xmeXLx4NGlbwOcf2j3fp0yDnqUFsi/mKM0wGj0LgucL/3jP+qIEa+9XNN9ir9LZUqXU0+sjWgdJJh+lv1ZAYBqRYAZP86+YksjdFcCdBAQOvkbAevPApNXZwHaOFiBbQD9bQB6d1kDyg/rEIxOl3cnAVpjTxBfisG5AOQbXCvg2p7SJT8nFOlezyomfsaq8DY6SVMDTa/zE/bGtnh3mzFnDqqmeD1M0c5n5o/TFrZMFcs5+30Lpx9yeRBAOV0c+Wp6xtFM8ild1Aakl2d3T098G+D8A3boZYRhgXkLtM//vORIOUoLvPjBb/majdP/6hV30WuyWB0kWHnM/rXXz3kA3wbQlwENE/R63sYKAInqrXUgEJ6FvPxfOFuuaRVAfxsAvfyY9I8+Wj8u6C6MgMsn6jUASwEMKRKFp4KIP6uAXQk9SgMyX9gbZnmgHo+GZD46hYnXxqrRop6Y0oX7NGpbE3P1YG7DVMfT2/f2NdNnUIBzBltBPigwnAcHcvqUldMrjnxzWPxK1aDVyQnnAO596Z2xDYBxRthqgfbXs1V4JB6bBc6XdflfnXDt/cwW3rupNwyMidR7Eicob0FXu0a59W2A0OJfBLRDgb4NoBlRfDSouwKg+qdXAVGl5X9RVVIfBhJ2Gl8GJM42gELtg4NxEMaM5JM5+WXCECZtl0JknlXQPZZ9W0q99Fz0qPOigb302q45I0hA6cJ9inlzyNWHv4E1o0+Uavacujt37pucPlQ4KGVkOeErUzUI/atLL3C8DYA1R9hmAT0222RG2hFbwJf/aX/bKauH9F4wHiPxWqq84sueLRa/Q/WWQF3mjz8SxB68bwnYNkA9GxArAXplcEOdyhVNAmUloLRH+/95O8BFm7cB7n/uC/fzF/70o+pSdxqmJVHXmTEZwUEZBHgQDVj5wk+D6l6qLOFMqTg4U+TB3qhoSMWRlhuU5bwsNV7UmTsvVotJUDXFFN5JNbiEaqZvVZk4+Zj5dwcFfn/XKwKUX+VkjjS4ULrqWXFqEPlZu3KZygfbKoB9E2C8DZCtN+I9Cxz2a+ppGLxbawFf/r98tP72f26pOnh4iudelA5cWPl2Ycl1qLYBtAIgWrcD+Axw/IlgfSEQ3N0GkH7q010JsEGFfRegnf3XgQArADYI0NsAn//4L9/TF/5QTV/MD0t98oTKLFCEJSg+vFBQzTVRgEAE8YWfBnXHnArSfRYliYq3WHxvVFScuBqZ+ZKtFnQGFwuHNRrz5rCt+jj2iVPOODlnOX30ejN7M/0YDCDTm+krn6fLHHmQEflIV0CPPy/BcGxPqp4Xp7YFQBuWdsRlvA0gyw06Z4H29zEnN/hHaIHl6s0fqx10r/3qvNXZq3cVVp7MhzeHJb+LWn6tBCCqLwX6doD1gn4gMP3VwNlBAPXgIGBnEKAzARoEiHrV0goA2N8GMFX8mPQP0xCnUxYFOoYRnb5TYRe0tBaT72kH3dt9KHb0BkcDepj6w+/RwixpxVoWD9lKI3mGyJxKFj6k+ot2T19Yzlwz/4z9/pY9/zp4iPQyQ6clO2b+MovJEXK+8vwYvzYoWpix52fZn8yX9kTzpcFLG58+urz3zrt/PXIMMiywYQH9yjYSBmNYYHn/jT9RO+19zCEnIEoeOQPi4s/1ysgQ5CgKml5Dn1YAWPbnjQCw/00A60TrWwH8bQA+FGTbAxtB9Wqc/4acMeT86wpAI8TbAA9f/YIXQr/sfbP9slrqDPgk8MtzgT2oiTz1oHuQab5/sh8Vm7uf+/K9cbuMsd0CbUcmnKuPBsfM7EOg0jknDZ/ny+Sdtjj46M5ywltpNLmaycrZkJd+6pufmxbbzN/TYwXAVjPsbdVTlgN+yJWOy7BAxwI8RiMMC2xYwD/+w/K/On0krBcs04wQV++pHsx7ydSrZdyTValKE836JJOp5IzH/j8rAD4I0NsAQf0MwKMH620A+wNCkyA9opNE0x2fB27Ya5jeBnj1wx99pHMALmBm8B9XmIPO2YsBR+e9Ueyz+DXK1mqVcI9SYfiZkk8NgeZ4sUDR7PzcQMVbqor0qcypVFWzxeJ36cx7+1QRJ173+OXsoTS7h4NP+XWmH02qM/kGq66enhpU5Nd7+i0u5oyZPvlc73rm75gVgBVbBWUF4M7LZ//S+CiQLD5oa4F4NFv2wMdugcnyv/d+9qgYLdOMsI56Vxmrh+UQJNPDyicq2RaLb1RbADr4J7r09/wv3OnXVQJWAGwlgDMB3cArgfo+QAjg/LUNAKs7+09vA/z+R3/1bf4XARGOzrlWv4cRS50/2TyfR57iZe5+uDe0CrbU6xkVVwMyzfHcIOfnBive0u1tbzusXvXR4PyY6VN0xcmZu1yLecx9mNuf+ZOnN9N3MzF4ID2a5IOJDnYh+MinBhX59Z5+i92cmumjhHKEMzXnD99ehz1ZLk9OxjYAxhqhZ4H0+PWSB+9YLaDlf5/xW+/m38yB0mMl6vbp4Gq32huqV4zeOPMtv/TsovookDt3yycnv7yg89V3T86sW7e/W2DYBwQ4f1sJmA04//yFQBPE+ecVAL0RgI46GEhnAdgG4G0AbOPNobn6dUFbjKJnEbLdKb+HaQD8HiUPfG9kNNDjwVc61EPITIyhtP0p5iNUGpFe9V2O9JjpqxmTPX6c75Pa07enj1BXAHq4NsRFU8M8o11iJQDqJtyc6XtOnD0hUwYDFvgo0Kr8/auxDYBBRtiwgH6dGwmDcawWOF/m5X/fIrde1mf+UJ6YhN1KHbyX9eQ4JGx6qtOB18F6G0ByWglYLPjqKf8IGggUhPOvBwEZDOQg76AVAG9gWf5vVwBmPw8c+tgGoM5U28MuGmJPlcjmavccpVJqSI86LxrYS6+NmjNCFdgroo6q0oh4cw7d07cq4ZyZYVdq+hzPUCpZZuRbqMzB4GKXPPVHfo7mGT1yPWxs54vGzL8OBlgFsJ/E+CgQBhqhZwEevxGGBZIFzle+/H9hTtR6142Zv3da8diQTg/mvbCpmMPSLjk5DPGFSc9x0oWJKz9xgmE//Bcf/ilMrhoIFA6rAGVFwHC7EoB+9GobIL0VkFcA0NQ9DJhWAdgG8HMAMonRZx5kvx6VvXuUisPnn+LurYJfeZ4KMyItVXqf8jjlsIGD0as++Zx/lT397PwZDPAYzFGZwNIJ1SSBnQm/i2OGHvrrzB68RF/M7GmnlxMYpeA8s3deM+OHpxAz/zooMD4rAPwb2wAy0qDZAvq1Zt6IH7MF7A+I+PL/WXGidcbPk2K9pLD3gmCmMd57msAclj2Ry6HFOU3x2tsW/bX3JT3K9eV/l7uwbt3eBvCplRQ0tHcQED2sAKg+Puop+fYaBJgo3wSYvA1AU5vmNjV5OhC7hJ28wIzV3m10khYNmvDUDDW2pUrvUx6rHDZwMPJjgLxjZv48gVaknO8GpvnZ2TcYXXnm38Vqtunx9AY70y5aIZji+T19P6ynmT3tRK8wSoQ1s3ee6csYnoIGC8JBl3fNKuNtgMYqA2KB+HkNYwwLFAu87f997Q/5t//DIHUFgM7Iet0NzCOU+XM4+K4W+YyjrOqA6d29Vw9KenY6SmeQ4nK2rO/pZaZv6wLWd1LG+g/8XNrJaF8JsC+kbQTpgxJiG4Bo2QYIPvjBg4daCSDdQ/M2ADypKgJP4ZrtQ3EZq33iC6uSUI9HOzOfPMLEuW8eWhrsmi68nepu5OqSYy+s9/StKu58r3tPP2b0eXBB3bq4NiTSEy4mWa8EVIwJcdpuyjSzF98LM75m9mBCiwt3ls9XAdkG+I6f+v/+sEQHHRbAAv7oDVMMC8gCJ1949ZXc4csXdqn10s7fRpnGkB7Uy2mxCm+pyXld5ICg/BM/6PQzwWfm+OlTcQllxpbVXl7a4cB2FQAB9OZtgMhUVgDUm89sA6QCfu/nPvo2IFV7qiHbhYIzVmW2UU+LSs/JeYPUsJaqteILb6fqgKguYZZumelTXZ/5+33nSeP+B+VxAc9QyvTBw+PS2pDQB8YUoprZt1h8OfUe1sy+pab+kHD69ns/eIj8kL39FtBje/tbOlq4lwV8+d8ktQq+lVqvurEi4J1e4tMDpl7dpzu7sByQ99qmUBjqvX16bA37wUCo/w0AewXQO39cQNmzpeEnvt9q9OR0cdJbBUBIbwNotAPPwr7bAPbllcXlH3zK3wZQE4uGa7zSfkKPyl5KF1ZloHNx8iiNuHuuZGfHnhCXnLbmR+0qYwM3jF4zyLzBT07cZsBTp+73Ozn9jK08HwzMUMpSs5Fz3FBnIgc/1b/Ir2f2LS4m0wzfFdhly0xfBUHl7InnwUHGxPcM422APQ11ZGL9X/GRGWE0t1jgbT/6D/7wqX38hz5OPhDaYpx+Tif3BFvv7ThR72XBaKN3p9fNGCXCxAnI7QqmRysApSc/828E6ONA5Y/0FiVsAzAQ8FWA9m0ARCiPQQANhM6EuW0AifvbAALXTcNua69V7Ch7enG0Q3IwZEfoXDzLFSVk9Fi55DicFheptkPZwA2DahKc5j198XlirKjqnI1fZ/jwM7ZBAqGmZxxyNT3jaMrcSoArDb3FqRdOkU97/HyARzN40+8mEiYL5YBx7uJnjAxB6QVdz9V03nvXvbENcD3WvDVaeExHGBZwC/jyv/W2PBSa+dNnZSznr/QutV7Z+T2KtswXnqFeMeS9Fo42LloBIEGfBSauFQCdBXDnr7MAq0flGwEIKlg5dRDQfBdAIlCdAajfA8iJFv/M//Fh3wZA3ZVDdtQoyVj1FF9YBfawp0WFJOeVUyVb6ol2EV94P5qrS469cN7TT07Zm4MzZ+ZvfAYD1ck3mLJyesUhN8Eyh+kTv9IoH6ftg4+EXVgzefiuJ2b6OO8ehu/Kw/m3uCgtVwYF1x0uLv0vBI5tgOs27M3Wd7Vf981u86j9jAWWb73x4zhn+jTN/PWACOeZvuRQl/mz2Hpvl+tRSoXfUHRVvoOCFa2Uei/t4z32n/b+ocJ5JaDm6UXwNjoLkNIP2QZYvf77izd+9wtfwFldOVAPQqYoBPcosiqwR50XFVI6efxu96gnpnTh/WiuNjkmmJl+2zzuPM0z6vIJi1+dvt1XN8MWio65GX3lyxymZ0M+6oczd3kw8qK2MTTBeUaPXA97IeHc88xfgwHSn1Qwg/FNgOXp5V97UkUMvTfPAnrMb17NR42v1QK+/L96+DJK1cdBNcNX3zeHxd9KrRPy9B6lVPhBvXF7YJeLCysBcvqw5PyhZVizlvZtAOXLy/14G50FSHzk8yBg1zbA53/xo6dW/ero1iU3sYkztjThHkUh/JaiMhdGXLwSi4oEvyTatcUSXlPuew4buGGo2sojPKHte/vNnr7P9P1JSDP9FmOG3iAh+JSfBxOzONW/nemX/DFzR87NFTP8jF158OXMRUkjtBieZvqi8A4NMqzyCfeo2fnuO+595Xf99Kt/ROKDHrcFcg9w3JY46tafL/Pp/9q3mU0089eDMofzCgD5M8bpZ4ypJ9g6K8eJyslpRWAOoysHnH0btCLAKkDeBtCrgau83C/nac5/xRsDETg82H4ZsKbdvdv8laH1NoD6YcluUJWnBDCZROH3sPjKh4wKa2mV5c4oEG+x0tZU912cDdwwNpojJx1yOFVvTtwnb6acu1Vngo1PyDP/WWz668xe+lJ+5dugqf7tTL/om5npF0VWqKXj3KFu0oSRISi9oOu9bhgcQ4Qhvew1Xl3Y82yDr8XF5Q9cbyWGtptqgfT439QmjHo/vgXs638s/0fgoZBrgO6DNfOXvLCcf8YUM8HWiTnuUUrP/Aajy72GR+LSdIoaFGgVQIMApHH+OPeNYPyl+DFaySsAVX65uMNqwBq/8JC3AdgGeO03Xn2djxI21SmirZPOmAwznbhnJt2VcmcsqICWlkS/mlBDA+5J9DxIPFcX3izGGUdzXE4Y5/w4e/ro0SBCgwqZA9ykq95Qz6cGifb29D1TzOxJRz/OXNSVhfPXDL/n7B9nhu916FxmDW4Nmhg8YePzTYCxDdCx55Gy4idzpK0fzXYL+PL/4pEv/8OgT+TBOITiIyWPDuHwnV0suVlqnZzn30LJW70P8ej85PShrAAw+9c/xBgEEPzjQBF3hi7aBrAKrE7KTLS7DWDOfu4w4Ouf+GdL/kKg+mqpdqpOeo4ipIw96jwsvkWuJPq13B0XDnwYaTsKqk1wOrOn7+mtk5azTk7anbU/P8WpT3Dw0ZX5whMqc9j9nvADO9Mu6PEHHAbt8HwzM/08s0cuY/LLuUNb569BAXLXHfIN4FlonyPK6z03ZyeXd995d2wDXPf9uKH64md8Q2s/qn0tFtDpf3pD+jj1iVelVEp6NNNvsfhbqXVqsysDrrA5MyBrROd4siwz+zwYkAiUQcAj6yTZCiD4Xw7MnSaDAKvA8rIMFtbbAOVno7cBPHNzYRXg9/7x/+5bA16drBdZcNtpZ4wM2DNHvHqtDva0Ui+yWsZCdlwxYw4buGH0msGy8gY/O+Fmj9+3ASx9QjFHHhQIB6WOng6OpoHFz9SZdvF0k/dQ9diMnSC+ZvZg15tm+GA5cWiL0ZODBgPitVj8Q+iGYaPimZ+fG/jVQDJUovE2wNgGOOQm3F7ZeDJubwNHy3ZbYH36v3Qu6gsPpZTEA6V8YK0E6EET9pl9Ss8Yp58x3qWLxc+dHuXb2wB0gpf2qh9BBwN1FsCZ8M3xc1KPmT3O388CtJ0nfFYAogJlG4AWlqBBQG8V4PLBa3fYBlhdmHzWq/pCCdvoJG1dbsmTsFu9xUX9tqvui2Q2cMOgGaq+GcadbMWmpDppOWfk5eytep5f2Cihpmcc+Wp6xtFMn8lHfslBFTzd8umBLPIzM33J4bTRn6lm9uILq6AnSScGt4Iyzs+G+NQl8zt4+cLZ2AbALiN4fz3McMQWeOmDf+ePn8byP9/QJ6gvPJSSlz5S+bZhzfwlLyznn3Fx5miLswPW2Xl6omuvZOXb2wBgrQDQLg0CXIf9jYD6UaD4LkD3LAAdqc4CqGJei2Inj9rFBwH2x4BqSH8h8LMf/icvLeyPsdA/e0CnOmsxoR4Pocwnk7ArkKKWeiLCimyl2D2HHT5j4lOojsu37+1rph8zeQYI3tzezD4GAdTBBw0txkwaRJC/wcpXqRrUo26SmPlrxi+qmX3GrjTke87+Omb2lJHDthtQDW4Z3BBxA/RcKD1jdLc4ylu9dbE4e8edrxhvA4RBjpjs11scsYFue9PNEX5vcRos/7NLPnXiTwozoaav1gMonGf6pGfMvZjD1akiRIhOUWcARGmlDwbSvr8PBnTgr+QuV3SwDWCd7gr5GJWUQ4Ol5peP0psCnbcB/uBX/m8bkJgKVgG2dfKeRostzMmVRL+aUEMDVr5wn8ruSm19xSzuOGWqm504Fnbzh1OfYCu4zMQLlRz1yPyDsRqUKSYCu6k6M3v4eaYv7IVv2dNnUHDdoWdwNywGs4q5oRL1OlJhC3PPS8sv0n5dLk9PxjZAMsiRRvVzOdLmj2aX0//e81lf2Z4BaHHpS9WnXgfVTJ8aoG8Oiz9HayepWxqdpmb+ogxxdCZAov5WAO/5x6DAzwIoMTpRzgH4IED8cLQnp7aawCBgtShvAthbAS4SqwB6G2B5Zq3rdfITHhaI4PyE3TqkZZ6E52m4iCognyCG8N7UnLrP7HtOnpm6nL4VPBkUCAelfE8HR5PA4mfqTLt4uskrFPlwxpWfsOs1nKmct2b+GUsxFH470xcWzfL7xmVoyQv3KIaB36Pkl+HaeA8XI5DigQHp2dsu/6bwoMdpgfjpHWfjj73Vefmf7pUVAAJXHoxNTGpO38Qln/Jvp+TWzF8P4hzOM3/ql7EPCtRJlipZwUUj2wA4/7wNAO59HpiVAEL3uwC5szWZ/EoggwDfBsgDAddkcnYYkG0A7997nfyEV+zvWUuG0AJRmmhK2hKVXSXSNGPiW3DsE6eccXLOcvLodLO7fcP5W4FKzzN6yZHH00POcTQpy0sOquDpqUFFvtnT3+cLfSjMM//W2bdYFbgOuu0GcM/dUIl6XWWgGZplVEc9V8L1+YFRjLi8c/fu2AaoBjrKSPo5HWX7j7rRZfkfExTnj5MsSDP/FnuySSlduLgnpOmi9qXkzvLbsGb+kheGMhjQICCme6gqwTrCbYMAX/63mb8omSYrAM6wAkxP/S6A8cqXBGlpCZecAXj06KEfBtQqQKT5NoBE3QEEmDiDKhC5WhzsGYJdchCWH9hG5XP8ND/O3Ip2ee3xx8y+zvwztoJ80KBBQIOpUx1U5EEEco0Zyoy+yCsfD4jzjXroUdfTzPTznj7p7UxfGKXtjL7FXvAVL9sM72WHIZCT4TNFZsNQjeEmVYu0Ca8FVhbl2b+Lzz344TZ14OOxwD5Py/FY48hayvI/S+Jlpr8eBGSMSTZXAjbPChQ5Omvkr5/2VgYoM68EUK4waR6iM9UZAFHSfCVArwraIICZf30boOQuV3XOlq5tgPbjQcz0fRWAjwJpOyB0sA3w2X/2yXUH7xayRPTWoPgcrYLdSPtDFu76Dmb2IVApTt2Kzk5YOM/Y3ZlrkJAolcpywltpNFVmKDP6oqfms3o6n/oiP0fzjB65Hs4ze9I1CBCl0OsO1cA0BAPPUMqthmgNswNP6hyyE14f8DbA3S9d/rv91ME9BgvwcxrhCC2g5X/cfpn5F4qzzxjT9FYG6GY2VwLWKwMlfXufPdeXb+Nr5q9uLmPyCVNvD+p0Dcj56wwA9MReFaTFrADg/PkugFYAnCo/lAOBhBhltIMAT7PZf10FiHMA8F/72M8v+CqgBzmFAsQMup2o3ZKiWjkIb6Uz7+27bzKn3s703elbOdX5p8EC5WwMGqJXqfwGq76enupf5Nd7+C22gizETJ98GePEwXLmomQhgNuZvbBokTzsKkMrl3CPzjl/PQ9zFN1KUzml8RUpkszprG3Y3wb4kntf6tsA5x/S0ylVgx6BBeKneQQtHU1cW8B+7Cz/4/jKP5KK8y4Ubg+X7kSDhN7KAJrUN6vz2YZ5AHP6Nozu3kqA8it9sg3QdJzZ+WsFgJbqACDfBdArgX4WQPmh6tQ3RhnmltLbAL4dQGViK4DVAbYBFvYZVg/SU0DhuRUiuoW0P1hVT1mEncZMn+IqTs6bPDhZTzfqmGYys4efZvjCyGR+F6uZDCaQb7Az4ZOeGuQ47eG32DJYptjzR0nG4kNbZ99i8hLaQULhHnaVwZULXA1OGQlXQ8gge1J0K6/K8cZXUCPJnM7bjiP14epvLM4/cFGVjMjRWKB9Po6m4Ufd0PP/zb/9r5tfKE6fIOffw0WiDA6KHDk0WIBOscOULlz6bqTpAvel5M7yc3hjGwDBJuD8NRggiRUAAisA5Yt/5eNAztTFOvMlcloJcD61N/doBwE98DphfqVwWV4KYBvg87/+KfuTrMVGRXj/a7iK2u3LH2ylMdOXDzKHZ/nNuVsV3LnaAMFxOHuf+VtBcvZOG0yNM3+Co2mkiz9LNxrkWdY3mJm+h5jZa+aP03aTR7qceKbtjL7FUdTGioD4+9Bthq8GN0XICUMJ+9Ii7NdDL9vM67rcuib18PJkeWf1PYfqH/K3wwLxRN6OxoxW7GeBlz749X/Mjr29PO0k8owfPT1MDvjbKH140Vykehgt675+LXc9/M4E3RQvFxe2zy+nD2UQQGAocxlnAVgBYDXABwExKHAhF7SamvPnrwROzwKU9iLiAwH9FUG+RBh6SWMbwL8HADgw6IdaaUTclxy6p2/VdSfOYCCcP3ry4KDFVNcHDdtomGGnHHan/sjP0TyjR66HjV2dOOkMAkRJe5LBDW8FZJqdPWVvGyTsk46MG8kjB13i8XDzkrHFMUaz53m5uPslL37Zd//Dz/6ZgwoYwrfCAnoubkVjRiP2s8DyjS/8uN9467zyA6D4lE5X82A4+AAAQABJREFUAuiQSq45SmdTNEBLH9/i0q2t04Wvh7IC4NNEdc5hlrPo9TQIUD2FEWMlgH9yYhOLos86dd4GYCWAQcDGHwhiK6CuAJzWvxLINsDnf/FXH06+B2DKw2fWYjZwMLb6kqvs6WfnzyDAyvHBQI+W2+fpVFRmRT6HPo6Zeug1C2vUZXrIbxj9tNPLCYxicJ7ZOy/yiw9PAedPEBX/cehWw1MWFQ8az4cMtDyLVaFqMBmyoa4geB7nUrBrV37jRmlVahdmrOVhjj6y4br9meAHX7j/b1elI3I0FmifuqNp+DE31Hpc+/qfdTHWeeUORPEp7a0E0D1lPjmmuKQXTZQyxaV7U+kl97pz24Z5YHP6HPZtAHXONJYQeHVWvt6n8rUSgEg+C6C/EQC/BjpjexuAlQA+DlS2C6qfr1sBOHxrdHwUqBD+NoC/DZDq1f4AN3Aw5AMmlJl/ct7UcQNbfp/ZI4fTbzB5Mr+Ly210OU9vMDxCO2gqOPbso1yzMBXxB2DFCgvOOt9Q4aKwpGtm7zyTzxieQm9QoLSrUjeYVTAbnvsnPnp7GLY5Vg+633O0CBXZesUobqaiP/jxOASK9Io2sY/RcP4aq/mYK3AMChiovPCVZz+6GAcBkyWPI9o+T8fR6iNuZTn9f/nyIzpk68T8AVDnJrsE1sPRo8WpkyGvBKyxnD4cOf8oLXDhr9PXnVeRz5hSCt6X+jbAXLv4WwGur7QsrwDAZxDAKgDOXQcC4XugE49tALHyR4Hg+dcB+S6AXgfUq4Y2KGAboHcOYM43bOU/6T398Bqa2W+lxV/5jXK5hMtDtp75V4z5cdp+G9LMXnyM2XP2czP8OT56doVthuY5yunCer6EKYN45otXy/fGVrRvROaUvLDo1pm+nD6ZNRgQNdbqwm7B6dnd7/6u7/iT0j/ocVjgak/jcdjmVraS5X8axtyxrgCoc1OLA6tz6dM84ydjD5MT/ppqMLDm4zNKCUWqYB7MNUb/FLfpLfZtgKK2ZNY1ddY6CKgVAIYybeBVwPLRn0iJzt3/RLDF12cByqACKd4I8BWA09M1M7J//iMf7Z4DmPMZlW93jNuSnbBwpczwkcvUmpRn+OjLmGqVmfpjUpku9Lsp8w3UzB45+MKZemViRUDOHKqZfUuRv65QDR0NcUNhcBrUoZQLP1PFW75wEfbroZeoVc0mLBpjtfmZvgYBomiKFQAb7dorqic25n30V2sBI3IUFqjPz1G09ugbeW5zxuX3+sx/xUdtYk7e6/ywlfiyW4PLw7N2m1OcVwZIKXi9MqB0nFrJWQYHBdO1rnGpQMYlHa3I9Wn3bQB15pZHXwjUCgC07P+X+rASsPFdgFIV81/We5oufyvAePnLgFoBqG8GkCfeBuAVQd4GUJBv2Elx6lYtd9Y6vR94w+nnQYAZyNNnqFetNNflHIc30WBDdXWMwSOU9PXMvsV+Y7THTx4vZ8tMX4pdNuSI58FAxsQPDTK08gn3qBscw2HoRMkLj3+KZ9rGi5Bf20sypyftwnLaVa468dCcsZx9S1UJ+Aq8DXC2+LcEBz0OC8QTfByNPe5Wni/99P/y5GWf+duvneAdSdu5tViGUycZuHRCmvmHLuvlp/we1mAARaQLl5ybGCn0K124VARuSZ9ibQMwL64hOnN3/nZKn0FFXgngbQBqBGUwQBD17wKEIn0WmBUA/rFdIAsgwgpA/jZA+zZAqJn6kLynH1XGqfrtkFM2vs/gxc84vENNzzjkKNfTMy5mdb7SMyVOIF82pePH2dOnXM3w5eQpqLfsD/86gpy2dMXzUJ08/Pb513MvKhnhliodWkMYueISsdswCbswj4Ged8+YnTuMjPNggDRh4hZUbQe8DfCOe1853gZwaxzNpX3ejqbhx9fQ85Wf/tfM3yjBH4DcCTrTuPQO6iz3pHqY+hQnT1g7+01cOGWmX+S8Ou6SqWtOj7qbANzcKQprG6CuBOR2WPu0ApAHAZTHHwpiEKADgaL6QiAyCmwF+HaAMfJZgInzr8J3fGDANoCCOmGneU8//MXEWTPz57bg/K2WeXAgjN6cXnHkm+BiTpcXP1PiGBZ9buDAzmdmL+x6DENx3j2cl+/l9Mnfc/Z5MIDMdYSJoU1hxtf0/B9Szbi9NYvwHK3OW2MwOXOonD7aMoZPEC2oXm3cWgOvp64e2uutYxug2uQYItEFHENTj72N57H8HzN/WwEoKwH2CLhX2UExX+40O3iu8yr83koASjIfSXCP4oPKIGKflQAebLRoEGDRdf2JR6fvy/7Wa4qSZAv/XhIzf74LoI8D5RUA5HwbwNKdwkhBy/9+FiDxieZtAKpByM68xX57rFZy8nlQ4M1gMMDtSxQd4K203JhZOc8cet2pl9uCYgszp/dx3qT3KNnk3KFy/hockP6kghvIKjZHKXfH870z/YC6x22vOYTnqDvx1rlnjKZyu+dpLW0z4oMBGxCcvX3x58bbAJv2ua0cPW+3tX2jXWGBF//ie3/QFrV9+R+WnD90tlPMnaVniscF/jZcUotexY3qYZvS6coA3qXM9FtK/jJY2FwJKBrX6Wgp8mwD+CCA0lVv1clwXv5nEEAoJZcVAAYBdUZtBwJz8G0As59WANZppT46C1D5zUeBKr/Z0zcnaXVI5bbOH8xt20LR7TP3XRRDRXB54dBv3kSjCBRaiBk+csKwceJgOXNR0ggthpcHA+CrBDlt5RXu0fw8uwGtwqLk1/PR0pymckrjK5qLyJxKb7GcduVvc+I8ntnpZ0wB5fFVUY5jF6vyhLvUdC+X422AaqwjiPhP+AjaefRNvPP6q6/o1T8+c8MBQNGNTrDtFIWhhB4W3wXiInnBLs0rAAisnXwpDUwsy8lFF4myMiA5HDjSUHOjFqmDgCJuKeuA089fCFQKJfCP5X+csf5GwMY2gNmRFYDp2wClIN8G4EWA+mEg026HAVkV8LcBVsW5Vmdv2fA9FYd32AtHPurfkxd/g2KoCOQLwzl1PDfTJw/NzDP5Foded/5y9uJdF5Wzlj43YBgSXsZ6Hnc9v1lOesUT9sZXMBtJ5nWZFuO0MVvl95x6dvpo6WHxoQrczmZQAMb5i99i+1NWNuZ99FelYtDbbYH63N3uZh556/jjP3b6X6/+tbR2kpip1znmThSZHhZ/GyWNQH6IX/u0OHUEirMvdI3l9OGUmb/khAslXdsA9SwAzBT4QuDlGd1wCQwKNNzI2wA4f7YB8iCAzwLrQCC585cBfRtgw3GUMtgGeO0Tv3NiH8O5dHNarz6Z0QdG2vm7cPZ5Vn8NApS/lFqu7Uy/cDszfU+Imb1m/r2ZvgYByJPeOvsWlwIf7yq79qieT0rIz3M8d/X5JT3zMjarHxLWT0/JJTxH3YkjijMO6jl7zn3boMAzbV66M3wTk/PP6RoEuBZ7G8C3ATZVDs4ttMBhT/ktNMAxNOnFT3zqz7P8T1uZ+ffobEeoznQXdaXhhXqdspcal0if6xwLXy54G0WS9DXVYGDNLysAWgmo7VR9rF2XvA1wUT7bqrMADCcIehsAp9k7C5C3AfQ2wOXl9MuAOg/gCpttAPscrg0Cih+S03ZqxWdK3h4W32kxnMtN+NXbwC16qn+jmZ7vGvf0vRS79Jb9lfa4NJ7j6sznnk/K2fY8zqaFMfesZ3la1sLCc9QepxKyc8/OX3yk4BPmaEmdXPMMnwQ5+ZaSlgcDLnt69+54GwBL3P6g5/P2t/SIW8jyvxy/7/mbLVpazdPrEOc618xHQQ+Lv42SRiB/CgXJFVuypwlrxj+l65UB8csKwIn151oJaMvR2wBQgs4CaCVAbwGwDTD7eWDLp5WA/DYA+uobAdoKaLYBqtnSzN0HBWCrt8/Y0S8cZsp8yhEmTnAsP1b1pJm+S8UMHznXG7g30yddTl3UdcSlnem3OMvuG+89j+TN/GpAq6AbLFFk9VyJZh5xQk4rDL+2F5lT/Dlc+eG0Wzxx5nL2PaqCoKQ3Qc5bbOEebZ2/BgnKq/SV2XBsA8gqt5v6T/52N/HIWxfL/1hBB/+Ia0AgCs+DOsJtVJ0sGZAT7lFkMr+H4RGQS6EgrQBYsqcJb6PF+Wd5nD+YlYBaH5Vl5frMn7/eZ0FfBoSiiW0ABgFQ+1xKdxsAO7AdwCpA3gZQEf42gP5KYDDX2wBmRpx7eIXeTN/NrPTSsIk8KpVfZTr29hrH2+9TTApy7BQn3cPiQ3H2PayCniTNzxflZKznpfd8IZvTM27jPexGIWEaMGcOc7jyzWnLvJ6vdfIw/bYEFc6UOEErAAX5dc6Jy5kjxGCgxeK7krhIbmk2Hm8DZMvc3nh9Tm9vE4+7ZSz/Wwc+Wf7HIri2rWGu8+x1tm2nnDGF7IMlt4XqYe1TXDVBzn+KOQhIOisBtT6IE6x+/jYAH/+xswB6y0ArAdoGYBCAo9bfCCiZLTsze7MLlC8DXvrng9kGKDXytwH4K4EKzTaA3Q2r3srOAhR5Hwx4fcuUr+KS7HVAFfxKdTt71PPFzF97+aKa6WfsSkNezt9LiguDgesOV33eqEfv+RI/U+JxTzx6wKVnVrKLX52znHSixfxRGPw8CIDdwyHeEpw0YRuVs4cSerikbF5X/HVAnmW9DTD+QNCmkW4RJ7qUW9Si0ZSJBVj+x221ocebyIQz8s6VhH1wHhzkTrnHR2fmC2+h6mz7dNuKgLlYMwH5RNuVj0dW3wvrxU8uymCAajAoUNAKAFQz7XwYsDohWyFgENBuA3i6tgBQmrYBFhe2ruBnAUrLpH+DRsM3+NRTtzhT5MGeL2b6eSYPv4eNPTndDyZo2V+0cK/n2nu+8vPRPk+USvohtAiXPAdes1nJ2uIYi62X6bNTb52+HqtdtFPHnlNnMJCd/LbBASqV3lFviqJl9mVA3wY4/0D5YlhXeDBvugX0HN/0doz6dyzw7p/8mS/h9H9Omt37z0I5rk5WvDm8rbNuO291MpmP/szfhlUXyQcuD7Nm/uqkp5gVAOTcDin/mfWKvA1A0MxfFJ4v/7NCYHJ+FoA9hTaYvvxK4CRZ9pkwTS9vA/zm7y4u3nrLml90Tmb2Sd754fNgF7mYqVd+wq7OcKZy3lD4Gaey6rJ/5mnmL5rT9o1ve37QoXTZa44im+7fJN6mgYsRPJYv1WzBnMOVH067xXWsmJ36tkEA5cUMfVIf5Vd9VF6Htk4/Y7JrsCD9jmVfpQs3dPXgYmwDyHC3mJYe5xY38Jib9sWP/dafthmrL//LDpr5ioo/S3Mni9AcFr9H1Ykrf8bwhHMnhJ6MJQdVUHrg0ilrJcCyO1+4UK0A0A62BcI7ert8BcCc/Ops/TcCVJT+RgArALwNoC8EKt2p8bUNoO8CyPHUVwK1CsA2QPyBoE/9kw8tzl54wSpcevl2hq8ynJ9+sUWu2cOfe28/z/RRmDGDgOzUW6wKXAfV8yFdus9zFDnd5zmaZaRXssLxNFQYkWRO58zhyg+nPcHctjlnj9Zw3rPUSy6XntPmsYDfo+SKx2aWSr3LJftXjK3c/iYZ92FpKwBLexvgO7/92/6S8g96+yxQn+Pb17TRIpb/n5oV1OH2qDp3KlM7m+KevX5KhxJ6WPxtlDRC6NHDvaYlxpXSmcSXE3Bkss+gGvJXAld3rK9maFDktRLAWoJWADQIIF/dCrByOQi4sDMAZRuAtwqadpJBgwCi9lGgi9/8dTMLM3I8hX0XIKaGmvGLkrWqk1qoV7OZ6ec9fdLbmb6w62z29PNggPTHCb3nAX2Zn+93fj7iPup+ztJJ/co9m7C2gGxGxObwrPPe5vw1wxfdVo8YJPSc+Zzz12BBVOpb7PxsbxgZV/sHn+fYzgIwQl6ennyf5x+XW2mBw34tt9IEt7NRveX/J9rSfTvrnlzb6fcwlc984UyJE6Jz2+zMCyfz6wpAyWmDglM/C8CZAF4pxPnrLAAcVgIIWgHQWwGR3VcA9DYAvMlZANVfbwOELuRe/ac/b2MRPIV9FyC8jWb8ou6d+MXSgJbmGT3pPZxn9qRrECBq2a495Put9vcoBcd9O5hOKq27O2HOAnWAu6iPybY5e0oIJz5LZ2tht3Nmhi8+WXuDg8yXeskJO+U++HMTLc3YTUa6C6yp1Ym3AehLJroGuDUW0HN/axo0GlIskJf//VNzT8sw6sRV3hwWH+qd0Q6KviwnvA9FhhB/ArkAgxbJKwDwWQFgJeDU6sUKAM5fKwD8lcATvSpovSwzc/tw6noFIBTnbQBeCSwlWVmn5W2BvAIQWRZvfvJ3TAwPEisAmMP0g10m+mbHVLzFOHH4cuainjn47cxeWFSyj0PzfUVPxvn+tfcdWdJ7NPOKhF1DtuISwSw57Iur3DYn7rfDtPcohcLfEeSce1TOvkdRCz+HLs72Rjhjf26ipW7/SHdT8hy7gDELLbfo7O573vvNfwFVI9w+C/itv33NOvYWnS/z8r9/am6mw7x2S6kTl+I5LH6Plp6naCBduEeRynzhTIkTkEsBxFmIvAqgFQCcfvs3AhgMaAWAswAEfR7YgS6UE384iFcGc/BBgNpMQpwD4G8DcBDQvAifB/Y+uKwENHv8OGs1wxsQWHwozj879RarQu0gQfzHofl+oSdj2f9Qih7lIe5BRhAutO3Q9sVVLjt3VGacBwfiI5P54C0hO3fEMs6DAvGRyXywgvgTnO1NQsZusvx7coGwbSz7h/MvD2Cx8d23n/2Qyhj0dlmgPve3q1nH3Zp3/+T3vN080yvTmb+5EzqDFFqckp58VB16j6rTohakC/coMpkvvIVqb1/WaA/0swKA8+fNgDaUjYFyFkAHAuXk/fsAzPitPmwD6K8EKh1dfBXwxHy0BwYHaRvgcx/5JVuksNrR+2vmr718UZw2FZfz7tHs/CmoxfAIc/ySuv3au2+uM92vFnOfCPvSIuzXQy/FdVkTI2NLN5y2bjW0de7Ccdsm6TMV06PTo61zF/bbbvqEpVp8YadXsj85m/tTl5KwEPdnSv0swOmj7xnbANju9gX1gbevZUfbovMly/80n5m/nDz09MLOuavzjfRnZibV4xC6azCQ02lYD1snx96+J/vVXK3BvArA2wAaBGj5X5SNAQLOnwOBLNMzU2clwD8THDN+tgH0SmC7DXDJqj5y9SyAHTq01wF9G+DCJu94DZwz1dxGqYicOJTBgChpGhwQv+7Qu29de1vB8AmH0pLJr4de1LHNUXfiKG2dupw9aXlQ0MPwZoKcdqbcVnBvUICali/V4gs77drfUuBjbqcWEeW5dfsnWgRN2DM01KAFvQ0wtgGKPW7bVb+P29auI27P+Yrlfzn6svxfBgOPzsytqRN2Cz0Ht39SH6vUHIavzmwfSvuynLDTM67WJZb282qgB+QtuPPfMghwIbswCHDnb15EfyhIaVCdBeDLgCWooICJ6E8EXzx406odXglxOfE5mnRMBgPwNTjIMofGdT/2oY29l2ex/RF29ftB+S32OrW2KRjXVOUt6tjly2UX3unEs5OX8w/z18GByhNf2Kic8z5Uzr/e3kaf+FLvWHYXU7hHMRn8Si3ics4IO2KxwFtpKdC/DHixWoxtAN2A20V5Eka4RRbwpTpb/leTNBAA+2dwI6Hw2+5TuZ4ilTNQkXNY/B71Ti8eZdKFvfMzxRu4rIRoJYCifRAgecMaBHhaeBG9DQBPKwHloF55K6DM9EldB74HsPFKoOpzeqcINtsAvgJACrdHM3o58xYXDeWqQULmPW482xNdGcteak/GJrq6iM8fN/zilBDIz1+OU1DBfleTXNth7cLuxHHycrZQ4Z7zp+jMByuIL2wUJ43zl/POOA8KxCdr5idVlS+ey7m9xTE6sT/8/Lwn7PzAbsuQ23D6yGBrLKl7kLENkxnHjW0AM8LtC+3v5/a18MhapOV/NTtvA+gHjvOfrgRI+jmmcgI9qk6R6pMuDCVs4LIS0g6O6seRTF7bAGTv/ZVA+BoEEGcFQN8D8IOBWt5Hznp/Bgd6JdAPAnqm9Z8N1mHAz/zyb9hHgazecuZQOX/yEFpcuPN8pW+jPbsin+3Z4ta+pMPLfPGgHq7W5cg1SYuw6IbTlrOGyumTOePeoAAZ8YlHkNNuMfzWuQtDCT1cUtJV9hdL2O1vzAk2G4qP08beLZ5x5iZoyrgHohS4DdswmXHc5XgbAEvdtsCdH+G2WMD+cEc5/V8cfHZwNFF4vRJgh9nUWT/vNlA9D6HeKapznFLavbYDtrF+3/pEHwRYPq0AcBCQwUAOWgngNIHeBtB3AZBbPbqwTr8sf4uWPxAUM2KT8YOAyGgVIArgo0APXn/DlMRJQc34Sc+DgpC/NtKz6xb7ebmkE0QVF25pEfbroZe2oxIWrU5bzhvaOvuMqYBu6xxNlZQzFys79TwIEB85DRrmqHQ5lf3FBLuPztQY4uO03b5baHXycZ+6mAJzeh+zCjC2AXRzbg+1p2eE22KBd79450Wbhr6iGZgtPnvTtAqgWb/2vIvT04//hlhBTkXVncPwvbPsU2zRPvy8DZD/ZLIPAqxHhxLalQBp0IHA3t8I0NsA620AVdwo9XsUqwD0sPZKIIcB9TZAlcyDAZjCVeCAyDZ7ue54HrbZDznqzj/FM23jRciv7aV9+nZhOe0qN+e8s7NvBwOqhAYLwkblrMUS7lE5+x4lP/wcHB9kf8vt90HU7C1sTrt9b99KRND+9aixJ3zhHoVHiPtrMX8bYHn5feNtADfMrbms7/CtadLxNuStX/i1v+wz+lXZ47ZNWDdGme2u3wiQhfIMWLznnsrpqKJzWHyonBl5Kj6Lec/6J8DbAKwA5EEAgyhWAHD+fCSItwFYAdBbAajkbQBC/jwwXwgk5LcBwNoGIO6BFYBYLQBzGJBtgA1PVKQf/yq7SFO1R9gJvuwFFc5U8V3pnlmX6rLFcLq2fmHvwozF5OI8R3buMDKeGxyUotYrAMJGe06b2ys+VLg3KEBVy5d652+zP4KT++GMcj9wxm5C3Sdbf+JzvROnLhtnPjp6WPwehUeQvoKo23gbIGxxS0j7e7slzTrOZizvv/kBHJYcvr58t14JmNplvRJwCx+D7JzUqdL87NxqZ1zan7cBNAiwDfi6HaAVAN4e0DYAKvVxIG0D5Pf+Sdc2gMv62YBSnm8DaAXABcu2AdsAk7cBSHvckO2BroxlH9mjh8mT03sY3p6hcS3V1YjfUjN4CThjYglXpy9+HgTAA+8IrdPOWE4fFfCF86Bgh/qpvV1RtDA/j+JX+zsj7J4tggXAPUqezJ/D4mdKnOAWLlFdKc7qOrYBZJDbQTt3+nY07Lhacb5kae7y7M4rtWM3A+C8PGhFwLAGBy29dfba5awsHfuUQZA6V5y5+QuDWgnQWQDswwpA/hsB8NgG4CwAQSsBvBrIJ4J7Yf1KoMnb+T5m/L3ANkB9G6AncCivOhVrYHY64qMvDwqugg+oU9vxCM/R6uSzc2cQIEzZeVDQw/BmQnbqrZPPgwGyz+EZ1YWdn0ceDdndKSJxX7ZRf86wkCtoKDr0zF2VooOg/AX51W+MXZYnYxsgmeWmR/223vRGjPqfr1j+L3v9a2uc1E7H3Bidu74DYN/En2DrdBgQdEf+a3U3MyanptonzMpI2QZZ/wzAGgRoxpvPAPT+RkA+C0AxrAQQ9FaAAy72PYATOyCoFQJWAPyjQKRpGyA+Dcw2gP/pAh38Q6YXUns8WbhH3dlYA3uUzFHvDZrTvBBn1Ni2SOtKWiynXfnbnLicfY9SCfg5GJazFlu4R7cNAsivGb90tdj5PbuTkPk8HuB6H1xgY0//anv86NLzLAqPsAeuN6LkqGMB59vF6v2N3/6+vxKpg9xwC7RPxA1vzpFW307/s/xfZvXMYGO/3z7g4Y7dzwLYrbYvAXpocHF4/MLbX/8tsKecmprS4LICoMTi/EHwZQ12/hkEcBaAFYD2bwSwAsA2QP5Twf4qoDl7BT8LYMv/67cByk+vfha4CpZtgIef+Hj52wC7Dvw17Vk7lfhpk56dDeX0sPg9mnnEPcg6wn0ataiJLcZpo6nys3MnV8Z5cCA+MpkPVjB+66Szk0cs4zwoEB+ZzAcriC/s1O1tMd2Xif2RyPcjYeO3e/oFIyMLyeY9LLkehUdQ/oK6uN6IkAHn4uxT1Xa85fulYdCbbYH2dt/s1hxp7f30/9m9V8pev/1aNdPnx0pnb9h/xU4t2mK3G49CeRzKaoAzb/3FVwDUWafWlpWBwjDXXr8LwAoAIZ8B0DZAOwjQQcCiBWdz6h8FWm8DFHvX7wJUwTu+NcA2QH31T2miUQ935vAyltMRX1jtFCY98zJeu2S4O0OxylpMeI5mp+1WyE68de7CUEKLC3dylXPu0da5C0MJLS7c5prtTVLGNGiCjQH2hsbp/YRLApbyjA01OOHPYfG3UdII1KfE9qK5WjapsGdybAOE+W468UfypjfiuOt/vvTT//ySrVNx562Zf6L+o2cFAOfvKwF260XdgPQIpVfwQcOxGNUcYDkrMf0paGVAHwfSCoAOAq54bc+C3gZgEMCfCuaVQL0N0P6pYF4J7H0ZkD8Q5I5Y2wCr8mpgeRsgvgfQ3o/suN2ZWP17lHzwe7THk2z1DCXrruvUev60eRbxW+pOHInszBkEtBiZPDjoYXhNyM6cpOzUGRQIk9YbJGQ+8Y2Q7U8iuNo/YXe22D/SjdaZvtsay0R6l1pyvRdxH6+M0UUwPe0NmatGiCub6NgGcEvc+IsegxvfkONtwPnq5MH9Hymn/63/pFOpM/+yAlCcGfzi/BkkwCszfT5mUx6D9cx/F5a1b8fjo7ck9NbEunc0G5l3YBDANsCp/cc2AIMBVgL0SqCs0a4AaBtAKwF6G6D7ZUA5D5SdveAqeRvg0ZtfvO9/G8CdhbF7dOJ86NztvmR9cX/rbB/t4nlJHVw9hAQKNe2TMIcrP5x3iydOvXX6GefS4DdBzlts4R6V089U+aDwc3AseytBuEer3U242p+W8zuJmb8774LF304pWL+zOYoMQekFOa6Gj3ThHu1Vq6qyxKTetwFs61HJg95MC6RbejMbcNy1Lqf/7VDZ+3Xiv7sCYEYSn1+xlrfLgTd7BGwlgPTC55EondZ6JaDFsrp6EeGbSd123nlrz37dLmb0vBLINoC9A+AN1FmA1Vn5LkBudf4okD4PnN8I0CBgfRbA7g1vA5yWFYWqKw4Dfv7jv3zPv6kvh12djN2n7ITER0Hm93DmEScoT0EwaixH2g5jDle+OdXy9ISW7NzzzF58xDI/Fy5+4vWcNs4ffh4EtBgVSpe6LpbdJSQ7O4UZ96HF4rvXLBY4bE8fC+oe7KKqnOQSrjcCnqVL7RwNMdeQ1fF8CJPX3gb4tm/6lq92uXG5sRaYPB43thVHW/Fy+p/ZPM6bmXxx6gVrJYAZrvhl5t+sFMRbAVopKCsBsZ1gtu1jjK7HR/Rm3ghfPfHOUROaaXu0DcAKAEErAMtV+WM+vAio4FsB5m3ygUCtACDDNgCBLwPqLEB9G4BOVtsALrUoHwU6O7ExSvS+0OyEXJmVL75wj7rOdV0d7nmJ0qsPmMMbzhtnTBly3lA5eyihh0vKxlVOehuVs4cSerikdK7ZziT3cLW/C5TT+27/gsvqChai5S1FJvP3xZLLlDihc0/nblBbnRa36qRalHTyWHvf9uUv/ABwhJtrgXxbb24rjrjmLP/TfHfs9qMsTjzj9fvuZYaP8w+nrjMCnk+DhPVKQFkBAJdeYkopFT5BtKCbePVtgGhnrz0MAsy607cBwqvlA4FqO28LsAJAyJ8I1goA2wDllcAyiPC3AXAs/EvBtwG++MaDidMPvV3nRN65dNd7tXulWu2i7swpJzv11unnwQCyc5i0JvScOoOB7OS3DQ5Qp/RGdYGyPxRTTagxhHG68bxs7OkHPxRQIooaarD+bnRPDqXoIChfQX5ti2txzqbsLe3JRBHLuzYMHm8DhDVuLuGxGOGGWuDFD/7U156c3nm/Oy9rg2b6WgkQpnnu/P1sgIHOGQGtEODk+ysBWhEQjUEEymMGUlYKetiFnutL3QaonXVun7XQ7MLyvs4A0BhWAnD+OHsCZwIYJLAKcGZU3wNgIMA2gFYCNAgo2wAc+Es/Q5wHqwDxtwHQyzYAdDIIEPaESFO8TXN+KiPJqc8Xaw5XfjjrFltzS8h02yAA6ZihR04nrXMW7tHW6WeMMnAOXYy9CT2KyeBXahFh7vKpJ5jQVSiFko+wixaptVzCuhE9uq1aXqzKna+C1KpE4dUDi7EN8Hc/9XVKG/TmWSA9ATev8sde49NHr/8A7oZ/OHuPc0c53W9OqWJjTVYIYuZ/aZ2Z9v5J18pApnQ6ZVAwXRlQvtIp0S1opYC70mJ4z3fQIKq0h7rm9liLzJ7YJR8EZDDA2wAcCIQyGDCp2lC9DeDa+AhQ5+uAl6frLwHWVYCqwe6b/XGg8jaAFY7zIbQ081wgyQj7PamgRtoOYA5XfjRvgnH68HuUkvKgoIfhReg5aZx/du4Zk603OMj8UF3lJthn9GZXp5bSYrujxd6b9PH29LFg3M+dtNZYkaDUO9RACRnvVC8By6doQ6XWdYf6EjdBew7HNoAsczNpe39vZiuOtNZ++j8ckwYBbgpO+9vHfrQCMF0RsB9urAQofe38NQhYU3qG4uyhaO9j8ZEoKwFFbo2J6XEThfccBpxAtDPXjvZbq8xHrN8GIJ1XA5fxh4Ky/ImdrZg7C4Dc8lLbAOkAIM7dy0fg1L8HwEeBHt1/8/7yLORqes+OPV6u1TTe9PfWvhJautWJzzl/jYVEp0VP0DYnPuf8NVgQlcIWO78dNGWMPd3uJin7C2OReB4sgoD9yxTY4DZ9L2x6akBfE9obkrGKJ0unel681Em1qPg7qIqTmPB4G0AWuZn0wMfgZjbyNtbal//v3Hk/s3g6IH+VL5x+4bEIbWnm7MspfyZiyOKUijMHF6eO085OP+My89WMf47SKU7PCLSYu6BuQ/Q5vDNyBrU90zpaq9yps/zPCgCBvxGgFQC2AQhsAzBYaL8LkLcBVna2j20AzgMo1LcBdBjQ3gbg7wXUtwFcediPe78RerwNocpQB7CLerN6M3yqvmuGr/Ra6mYEE+SZfYvJsW2QkDVKLvPcSWMad9ZBhd1kZgG35xbqzy+W8oxrWu9D5luyyx1CkSV4hUpU11wsvIwlvouSr5WBt0eguBwcY8uz8TZAtstNi7f39abV/2jr68v/teMxM7DsbzP/uhLAYIAfqC336/12X+aOQQKG0wqAVgh8IBEdBMvdwnlwoDMCZZuAQYMGEVAepznKoEKPW6HzmNoRJF/QU7tGPdf1W5eMU2cQkM8CsAKQtwEkjZy2AaB8FyCfBZAchwFLW23bxl4J9BBvC0jm0z/zscXybrZHjktq3b+Lo/5+F65yctY9KmffoxQAf0eQc+7R1ulnjFpwDl2s30SPYrLMF3ZTdvb043ku98Z/ECiwf56xoQYnfOEehUfwgktUWDeiR1Ussm014NXfF/H4B5/QFlW4dTwQcG/s1TNbrqx/GdsAst7NozOPxc1ryLHVWB//qe2OmT1OXTN9fs04bw0KxM/Y0+kUrfOADyYoH1TOvvCZ2Zf0QoULpae5vjMD3s14fZ7qxeyhdrflWuuwkh8A5CsABAYDHATUx4GUx9cAbHCgwCCAFYD2LAB/HKi8EmhnOfThv1N7O0CHAU3B6tVPLu5/9s23pKt4gDVSrP1B74urXHbuKM04DwrERybzwVtCz6kzGBCfrD0sflatQYR4jnGC8Tw7P2N/nFJ6xvbc1tP87gZDzpUgiIX0PO6DyZjlMyZOUHpBjlUMlJCxxHvFI0u7FYgmOIlLxqiKEWsfrOLJvTy144CPVj+h/IPeLAu09/tm1f5Ia6vT/7X5dhfdqYcT13aA0jUoyNTPCJg8zho+nQcUp95SrQSgb+r8NzG9DjPndmWgxZJDZ5lpl3xrTEyPpyi8pxC8/laOUUJeCfCBgXmr8mXA4vnYDiAwCOAgYH4bwBPiwlsBOH/9lUC9DaBXAtVeHwTQmWsVIL4M+Nqvfax8IjArnYmr75+jG047O/HWuQuXZq4HBTNlw5Zz7tE5Zw+fkNOFPSFf5Ox6lPuW+cJ+O80iwq4PC5EwRxHK6ftiyWVKPMLcjcnVQDRjr7/xetUJtfUnIzxDVbyShfehXrwL2grAw+Xd0zsn7x1vA8iSN4vqkbpZtT7q2p4vWf6fmMB+jDjmOsonzoqAMbLTz1hnASSnFQDRvALQrgxQtmbI0Ckug4gyCCjOc9tKAb0Zg4NNilb4BNGCnso1nIQGM7lM2mO19kGAzgKchafTGQDSCdwFjmPi/LUCAFXQIEAfBRLfnRSrAAQ7Y0BgG2DfoB/2HI3qFWeO0uzk82CAtDlM2kzIzhwROfWWktYbJMBXULqwU+4PIVPM6vdNlBtlcvF8bVB/rtDjGRtqcMIXfhxK3gi9G9OrhqpHNtIJczSnueD8RcVLQnhvaoJeXTKYjcc2gCx5s6ju982q9VHXtnz7Xx2fz97NHu6I7W7K4WMirQQUaoMB7wzL2QCtGGglQIMDrQR4fnfORWeLfcBh+pxSVvQG0Dw40Mx/zWemjzbN+OdoGTwgaT2MX9cz8RZ78vVecBpqnw2mSlC5XvtywM8s7oMA82xQfRNAlYl3MepZAPGhbAf0vgyYZTwe2whsA/A2gO49aZg9hxbPOu+eU8+DAJTGjLzqb7ElyDnvQ1vnD86hi9NgyWWFe5Tb4/dN1Bgu5wllMFDcFgL2L/hdaskTvnCPwiOgLwfKz9jiwj06Vx1UkJbV57jSoU1QMWLPYfE3aDAqX9ioVxdsNh7bALLwzaLtY3Szan+EtdXp/9KxrQ2Ac/fT/2LZndXbAHQ67nT5sfofBIqVAe8seWVw7eRxLnUwgK6EtRIAFT87e6XL2ZN9vRJQBglrrMEDtAwCfBBh3coUo4WKFz5oExfutV6j3cVutstvuJRbStE3/0F6G0AUXrsSwB8KUtCXAX07IE77r98EKD9J3wZ4ZB8J0iqAbQPwTQD/KJA7taKt/QG32J04zl7OFiqcBwHiozbzwQriCxvNTh12xnlQID4ymQ9WEH+CsTu3X8Fxef4Kn/QOxj15PixCJOSgwkVgT2xiE/mMiRO8wBIVprgccvHiR/VqdqkRRY54i5Vf6RlHvFd8Fmurs4GNQbHSk82PHv9ZGD194fLrxzYAFrlZQff1ZtX6iGtblv87t81+pVoN8Jm+nc71QQE/X4lDeSvAXg10J2+/Xnfmxs40ryK4nCkQxfRejnW6UHfapgc6h/MgQYMDUbqXMiiAor3FZRAhPhJyxoUKk5IbCn68sG6Pze3d6Uq/lWneikEAge8CEFgBIPBWAGcBCNYap74hc1bSYehtAFYAtA3A3wcgh9rB638LDQL4zoBh3wawvw2AFEE0irGKFf6Ets5dWNXp4VAj0nXOlG/ltc5dOMxT0zOW3krToMZ5wlDMPsHGEB8LVK9EzsDVMljIFcxQ8uT0OSx+psRnAsUSelTFFYl+8TmNOHkIogXVq4oRQ3gfmquDvOPIKDP3zE9Z4i8end31bYDxFwJ1C24EnXmcbkTdj6+S9uPyb//XX13fBD7z9/f/texvDocftP0rM9rIZ9iducF9qAYBPljQ4CEoejNfuDj1Uu7a6WdcBg9lEAC/j+mW5IT7lDZFr1VptPNxSG1f7ibNXubNNAiAErQCwHcB2hUA9v3tDcwa8vcAxGQVIH8Z0P9KoAYBMch49OnfXDz8/Fv39cMVjbEHN7KE7NSpXouR6g0WMp94BDnvjLPzJz1j5MIss1S6nJqdJwHM7ZxQYwjjpvx3sIUWBaYkPxeUkzGlXhWTdyaomDlKtl3FbpNpiqWYHIQPoVSnylvEMdQibvYtFGnfBjj/QHrKc41G/Hm0gO7381i3UafGAi/++u9+1Yl9/Md/jZHmTreRc2def72WaHfZHbFR0uTIm2wOW33CytNSeofJ4KHBOH3SfQBivYhTKylj6gYutKwEtJgOZjrzb3EZPJQ2lcdaKwTq1ta41/IZXrRH2xJZKg8C4GsFQG8D+F8JPCteli0Aa33Ovji5u94WUEL5JkBBbAP4dwH0USDbBmAV4HMf+YWVfYAlFEfOnjNvnX7GZJtWxxXJaYfWWeednX3r/DVYEJUux3iTHIR7lNsIv1KLCNvzcNi3+CnUFQUV7lF4BORzoPwZLH6muTj4GaMGr6qQos5qcchJvbLNYfF30hCQWfNt8Opa+i7nr/TxNoDuys2hM4/ZzWnAMdV0uXrzx7wD0q/UGi/nu9UO9iN2x5/yzcm3+oTnKL2DBgWuM2H4OHWo5HwgYoLiF6dfMPnXKwAaFJRBg/j0onLGZTCRMb2Zd1tOy0oBWgt/jeHtGejdCHYQUOUVRrlqEKDPAytNXwZcXJTvBuD89V0AVgP8DwXd5w8BlaBtAP8DQfbBoNIOJVodNAgw1u9/9Ffftriw7wgTek6dwYD4yPQGB5lPPELPacvZI0K6sAYLu6h0u5zsKSaY51L8jLlt3E9/bqFTvPHefhEwoXK/I8MMRpcr7FDSCEovyLFVYx0sHaziSMhY2ZWeMbL596g0+IQWF66rj6iTSXWMI5ypiidDrp5jY8ya3zJObkfUSfKqvrB9COPBvXfe/evoHeFmWEDPyc2o7ZHXcnn/jT+hjtKd6oH2aJ34gdkn4iofit4enpRnvQQYJ9pS2lScq6VZeh4UtJiesQwGyuBiikv3Vmb6WiEogwrJ0YiSTkyPvyi8mVB7OXrBtXzeBmjPAuiNAOb+Vhv7V/LplcCVHfBjK0BvA2gQUFYBSm9bPwykbwJY6fVtAKrac/Zy/lCCaEHd6zYnLqdPRuSENVgQ7SoWM3sLV1TaV71PTq9exwWLFzLrlSD7z1GksLPS57D4mRInrO9vwXbNxcPMWMWJLyw1wqRnXsbEt4RcHGKHYC8+MvhjTP6MTaCH622IdDAh8zO2V2Du2uP8Qy40LjfCAnt0DTeiHbe8kufLFz/4LV9z5+L1366/1BvQ4jw40CBBdJ/qy/lLVngfWvLQy3n316HSuj/19njHGb1nk1VnATQYUjJ/KCiHSzsMoEGA+Bzr0yuBlffogUfr54HppeGtHi6+4k9+7xtf8cf+zbe5c9cMXxkfk7ZOXoODx1S7zl5vi0XcmyipJhhj7r7N8aXjKdBeNZ9CsYcWoWoqn3ClFsnO3AcHZt4elY5tVLre/Mz9r/+VH/7q394mO9KeDwvwaxrhubfA+cqX/23cz483h9bZ7MI5L/FWvk3fhdv8wlA5+0zpXcAEKM68h+G3KwPC0xWCshKwHhRMVwasO4sZf0s3VwLalYE19urWehbnVHjV6ZuX9O0AK09nAaD6K4FWumeA8lcC2QZozwBoBQDBE3P0HAj0g4B8Hpi3AehhI/g2wB3+mhDCwRSV0P/P3tsG6ZZd9X3dfe/cedMggeSCAIakEjkQyhCEipAqKjFJTBHFkGAKR2BHdowrVbiwv/K1v/pbUpWyq5wXOxiCYyqOwUAqDhWSOB/ABSIYg0GKgxCvAUmWZkYzc9+6s35r7f8+6+yzz3nO8/TTfXvUZ8/c53/+a6+91tpr7/P+0i03uXbmS5jP8NHTGb5Q5lvucvYelCWkG9Rrj+Hdmt7TP+weP86VJyEyygpewg99+xXPiBl4Rhqk8fHl7C4vuy4/g/lg8zy7z+0m8iKo4YkbergZTTAahgWOT3WvRcUu3G4DKBO3H9tpefsjvosR2tP/fvm/rLw5Bdp5SraLS0/Y6ku+Ftv24hl1MOA2besxx5Hr2QC2NuLaubcce+ykVR8ortsKYOz8qWczOHAXmAwMORpTHlJ+iS8XdvqUimaHdwDY+fNWgJ4F4DYAxbzQS78CcPZkOHXXWwGuZD/s/DkIqA8C8j0A31rHg4PcBuBtANeXGWE1ooUBCbfdqYvngwLp0TLLB0uDPMt8L+HpLIlib1H3MmjOcJO39/SD0ybGJ3COS95DZBSNd7AuL2FLw4dttftknz4nOlpOofTcVd+2oPolVHi083Tndtawpt8UR8NR4sv12OhxyXuIjEK7y9PLp9ttgMjH2+FX8+rtEOudjTGe/n/Rn/4v62zdnrRcSZJcnJ3nsyocDMg/OMfzQQNbE7jvtMtOvuX0Z7zzn3K2wnGQEAcXYx7TP870Qw+bfU5NKWxFm5Kzy1cA2PmfnT3xKwA6CNDfCOAggCsAfCWQwu0AfRdAZvkmgF4JrM8ByG/52wD+NkDnLB8b7U4783bnLg5SWh7S5petPaWHpCfLiRvuaStn+olHBfa8YYNGR/I5LvkSUkfxQGJRA7eEOSw1V7hhZTAp00LVN7jkDtXV9abo4ZUGSms3/abo9QnxVYenxNzj0ltC6u7ZX7ba3gYgE2+PUob87RHsXY0ynv6312tt7dWAzaFypHpx7VzFbxrlfwlHBwe2FfKDhoK6MpCRPuiMHNTBgOTB4yBiuFLQ52xG4y2BOYyMefy+dR1nGMY2mCsB8RUAO6O9uO9XAGjJzp/r9WYdanHfs6sEcSWAgwGuAHAQoNsAs38giLcByjMFfhugPet369abtDNHlHfqHAyIU5cPDnoc2aSwl6BkrHuXIleeGqxn+pJ75pTBFnGyeneIspU5/agd6o2XbjjS7BD3mN3lEp1UslvEa7jCk75za1jRFhiOOgwLHBue/iNitrndBiAbt79o3t3+SO9whFz+v+ATvmVlJxWs9JlDKS6PxS7XmbhU9uVqdyjO+UPOzrVFtlL5oIGdeo8jZ+vnaIuZ54ODuPwf9SEfXxkgg+MrAOK6MhB+vP/N3whgZSIMrgBQ9CwAy7wRoCsAcAqHc3oWIF8B0EHA8AeCLC+X9uzAPdv58zYAHwU6e87fBnjj9z7z+gnPApSytDPXTj+j2oHIc3GuvYQqxHtY9z6mTD3cMxK43z19H9DilfaUOYzaoT5xzNRi7cV7GGGGmeye9vRF7p1Xo7FQ6mRWtWu59CZYBICHJ24oXtEWlPZdSHw+PCsQXYr0g81zfG+3AZSl243Mna3c4gy89D0/+rWnz734b5yxVpWVnnB94BJXF9oBbbl2ntLfl6vdoTjnT/IW2erooMB9Jo6cnTgoPThF8tjJBw95HCQMcnEdPICx04+DiczND7aLv+HTfiHnF/dcAaDoy4D3GLtSzJovgf5yoO3MLx/Z54D93f9Qym8DxEGAHQSVjwL554FlzPD1j/yTs/pNAON5554PBiSnaZbDVSQf8d5Wn/4g926BHU4mvN9kBEXd48d68MC1XHo9REbxgGJRHPe1EKeR7L7l6MqM0GVGRhxhKqVu5M6q13Lp5XCwrjTXeluo6TafXp+QNrl+LZdeD5FRfDhjcSfnNsDX/PBvf21S3xZvYQY0r25haFtIZOD0tU9+J7uSC1+ryzaIjQCVLZqobIdWI2Yoahes7OREngH6Ttb8guwqe3x0sGD5gbPTbpGtZL4yMOz8568E6EoBmYnbB8OVAPfr4xF/JTCuGMTGnjzqgcB7di2Awt8GaItZM8ux+rWvBOoKgLd9aocR9kCgL3MQ8NSuAPBAYLHptwGScXbi2tn7GbzV9XhqMl7UVn4J616HptaLe0xE67l3B2SBTPSQNlm+lksvI8sUdxyL+sU9pYfZfRsmbbI5LQupX1F6bmm2Ru7hFUWlNQ9HTb8pen1CfOT6tVx6GVmm+HDG4urfC/ubI/defv47VjfYFJ9JBvac1s8kxrvrtH363zYKPmBzaJnSgK5FJVf64tq5it80yv8Sjg4ObCvlBwkF8xUA5HBKRg4KBh4HCcvPCpStMoa0lbWMx7MDCCP/0mInT9GVgMv7HKQMVwCo5zkAbgNwEEDR2wA6COAKwOjzwNwG4JXAUngb4PWPf8pZ3vkj0Bn9HBYTYyhxRP+syvspZOJZnN5BkAWd2Q9c8lCkX6E3RhOv2h0u6VFH8YBiUb9zbiXPzdS8xZ6O7O9A3FD2wVGWrGG7c9+H49uH5wqIDYrsBFv3e2Z/i2S7DbAuV89SS/PzWcaw+Z7JwEu/+eof5fI/9/9928RGAd190ZqM2smf7IhLL3Hfqe7Bk6ovtu3b+l28bS8OcnDQIlurfNCgKwL4QS7uVwRsZ+ZInSWIg4EpxsGDbgsoXo/Dd5bUW0MrIHkOxpl/7OwVDw8F6lkA9M27vwnAA4F6FgC5vgzIMmV4FsCW7VmA/CeCqX/j1//pG2Zq55m+rgjQhuJcW/ce0hHkFW1B3Hp62D39nCFlahd6uESshYLEUxZ7iLrctUizMm5uQaYblFnXsZ9DudpNsAiU1hHSPasnzH2ReNW9Xai+SW+OSz5CAqM06FcAttsAkZtb/KvpfotDvLuh6fL/yRN7nYyRajYGzhEXubj0xFlFfaDRy+lsufSSjnZeEu3i0hO2+pKvxba9eEYdBLhNS9QcR85OXjtvce30aZ8PAoLHQUJcGSCTUdy/b/Soj4MAsAyT7/z9M8EmcX+lHc8D8DaAXwkofyiIKq4A8CwAhQcCT+0hPxWuAOTbAC7nNkApf/APf+YlMzl7xi89XQkYcSYW/XC0mpbTI+o7uN97+soM3os9R/ElpI4y5L9ymQUpmUt9FlVh7bTYoMy67WJey+CaekxKL4fn7U0wm/4SS62/AseXD2MHqaOoPtiUSz7CPF+oSBx7222AUbZuHdG8vHWBbQHZuvTWG3+RZ8nPbKXylTNvLMpWxaHIfRtN4hru66TkPTRZ2bbsRJpTpB+s7FRFbhDZubIz1k52jpPAfNAg7lcALEEg9ZnTDR0cBMbqojN+39ih5H8oaLgSgBb50RUA/Y0AVLkCUL8L8CTsmdfRFQAeCMyvBE5uA+jLgLwSaAcKl2+9evL6b37Kw+Gsvj3Tx2/dumsrn9EniEXsgYO2QL2HV7j3yBXMWEZow9v6VZwgVdyxSKCF4aWHco8C9eIyI6Rey0JkK4rcSlV8DeJqlO6Wm4LS7SheYqzDcQWuuEEfrixYs5w7gH7mClDyxM/uXf6FNeY3nWeTgTKlno3zzet8Bnj6//KFF9/pDwCamtYpX3ltq7OGszH0Ad6F2C+h7EJFLD1x7VzFbwrldxeSsNHBQeGS68pARvoAF+Yz/ZDabxmIfIWAnQLN8h8KUnx6IyB/F4BrAvkKALcD2sJBgK4C+CuB9meB6yuBpvzpn/+HHIX5VYD2TN9teZy2BFIyd3cmd78LONm7lp7WeNVzxb8vRmgWiBYGJGyZR5q51Hch7VodZCsK7nIRX4MetilO0ARl+uxEfJNm6Yvvg+hS6nAFXfeb5w0tFIgQ2SRAm5L3Tt/zvp/85DdQvZXblwHN39sX2R2PiMv/Z/ZHY9jSMUixbrVXApY5Ddno7I34y+1YLsXlIoYt15m4VPblancozvnLO392xuIkVjtnUFcC8J95XBmwM3PTr1cAUCobvXyFwMeL9nYqXg8CLFN8F0B/IVC3Adj5cwWArwLyNwIofjBgT1DpgUBkowcByyuB9VkAq3/1Y79PwBEPDYirRU0kycVBi29yT983+thRj5YQG7levIfIKO44FsU1oXoo8+i2YSHTTsqX4SyUkpclM5QbidZy6U2wCKrcFjzsHlpFmT47kfi0r1U351B9Uf0cl3yEmjcSivewCYgH/2LelWQbnD69vGevqf4JmdvwdmWgjNTtCmqLxlZ2v/wfmWBjwm0ANlfjdW4HZ6NjzbSRYWvnVop8xHFV6ln0iZE4MorLY7HLtTOVyr5c7Q7FOX+Sg3XnjxNL0BxHrisC0stn+h5jSbCuFChuz7ORy3IQwG0AfR8AHd0GYOevgwBQDwTKjjA/CCiZvw1QnpLps88AAEAASURBVAXgbYBX/9/fK6/kmQZxUfIEsPH0EdSEyNzyUr/Qx0RgpLXRF3fERqlf5NLrITKKBxCL4kpcCd8n3Gp3yR6LiY6Wk0e5kWgNVzi0mYRrAk9vMThKvzVsOWp1OEq8a7ja9RAZpQ5f0Akv4jFo3ki6NmDmj736F2XoCAcF220AJfP2YTvfb1+EdzAi//jPg+fs8j9nhOXBMl+b44y/PhPASucblUA2RyOujVFBtlasmlqnR5w8l/pZ9GhQDDtr0JWTvjg712dRtLOX/yWeDxpILHxyBYBOWEL9CkHpEAcJnmfjp3Y9nisBF/b5Xn0hMJrYtx3Ku/z5IOAUPQaoFF4H1CuBkjFQfBjIPwrEK4HlbwO8+os/e+JfBaS5z5eCGnA36xMm6sUZ8BqxIhfiNdev5dLLyHIpmKf0UO5ULw5Sejxqok7LCyi3UhFfg+6+KPr6ZkZ66ca211uDOUSnDk/p3xqudhlZPrjkDmAk8yageqaP3IrzOn8QlI7YQPlBwdnZF263ATxVt+5HI3XrAru7AZ2fxdP/7ETYypSdia1UzmbR1lm0bUQr2oKviwW1EULB9XI9CYcvIfapt7IWQ3vQF9fOVfymUH7X4OjgwBLmBw31879NxJ5ozvjjIIH8WDpj549qewXAXgnUnwr26nIlgD8RrD8ShDy/Eji8DYBlq8uvBBr/9K9+/OTk8SWXFMyfRaAB94154Yxcy6OBNfKGBQ26XPJDkDalWBheMmb3yDNHGU6Zw1znivM/cisN8dVoih5eRhO0aZ/jHmrSF78Kqi8H4VygkqfA6pm+zyPLQ+fMP2KIgfKrl9ttgIOG5bobab5ft5/N/uoMnF9w+f/CVjwGhy8AOtryImdj4voJzUbe1tcrB6aIfMSJD/khiN/cjmWK7AXzX9dLXGfiEu3i0hO2+pKvxba9OMhBQoskTgcP7bMAyPWsAP4ZQfrLuOhKgNpSr9sA/kqg69m+2x774ONAFA4GLi8e20FEvPLX3gbwvxLIQJa3AU4++4mTV3/dbgPYhSN/E6BuvInA9OA1IkU2h0SQ9cV7iIyCfi7GMZ+LeA+zuxwW7anL5vOy6sGmyI3Ec1zyCRZBlYsbergZTRDr1W4kHg2PD0vhkmdkmSK9YFMu+QgJKBfxHuaA2o6YjTjTZ8E66sGkQWh5GrALXmPmbQD7sFkOZVt+9hmIL5U8+zi2CEoG3vHBv/HHbCvy03z7P6+6vrExnX1QW1+ty0ryLMehOaj1JQAXy7GMJCzNkuRza1EHAeqVDhK4HZCL5Mg4ENAIaufPA4GUrAfnSgCFZwBy4XYAhVcC898HcNnTR3EFwDXsh1sBT946edfXve/kS/+j/1B/MLDUaoR6KAPtALdcekdAhYEplinX6C4czP/mcNDayU3B93fFpNaXHsor+nm6tFx6N4IKVM7Ery1A6zz9vzz5Nz/8gXf/jNxu+OwzwGq3lVuUAdtJfLN2/hocUBulWbSVd6TnK3NcAahn+qYR63q5MtByMxD1ZWMFN991Y1W4r8zkLNcnLjki2lPWYmgP+uLtTlPy60b86koAvsR9udkL6Ow+kPGwBFnJbwPA83cB6m0A+ygQzwJ4vWF+FiC/DUC93gjwKwDeovzYlYLP/PL/E88BjDJOHHMzh7a5fo5LnpHlmbI04HKnpuIgRZiXJRO64vAjd5KIr0FMZj3nReDrA/WZm0KPaz3JSDxruPR6iGzvkgOkceYKSHJx0Eq9x6+BKHLviC+H3jBQ4t4aCyyUwrIlD//cBtiuAigxtwK3KwC3YhiGIF75tv/y05cPnrcHAKOU1Ud0tKlmm6T6/ZHz07hIXdEM+vpdDLPOzvIa0d1c8AMB8lR3HUMedLCiKwSuVqq5GkCRThGPrgJwCZ9bARwEcBvg5OFjfxaA2wG5nNpVAMrlE0PeBnj4mvMv+/Pfe/KOL/siWy4DOYpRM8VVr/cnu5db4fV6Psi6wlVjca0HS6g2rC/o3arSC3yy5bjmiEnM5ZNP/dwHvvDd1+xpM79HBlgdt3JLMsDlfz7+ozNHbSs1SJnXjZPFPpLbyr6KmwHXy2grqW+8rCK2GS0vGzfqydmhaE1H7bFVistFDFve7jj35cn0QYvy51cFSGBTqNeVgPw2AGpS1xcC+S5ALnoW4OTJcAWAzwNzBSB/GZA2sfMPi723Afw5AP5Kn2dQnnsca7keriJ54qMBsXrxHmZ31GeOST+6LLblqsVSLZCbXVx6O7Eo+Hw3oz7/C3q4Vq+d+hIST64X7yEySu7+Gu6N2p8cMHU9ngPzjpaB8ABIQCR98R6/62hwcMRy5pKBnYLfy/tfEG8DnLcNOw020U1kYBuIm8jyKh/nZ8Pl/2EnTlOtoiBlkdtKnev98r+1YaBdrvoOosE2oW4jJtzs5Hoz6HbB4mCWl8CppziW9iGJX9VL1nLtXFW/L1e7Q7H1V3pSzVGvgwCeA8gPAhqt3wVAj78SeHbGx54s5/aWAB8H4jaAvgfA2wB8F4CS3wZwXv5EsC/b2wB+EADRbQC70LD8rX6UiYjSYkgHeeKjAfEOhprkIOaENO1xl8tv0ZFuRpZTkRuJ5rjkCmOWW8Uw3y3sxCXPiN81XHo9REbBTi67eNatyzlghJnLYC9gBkj1Zfzr0/zIvS4HyPISx3muh48LB6VP/vmjD52cnC8rjptt7BozoPXiGl1sptdloHn63xppcEDWmEO42k3QVvBsl7cN8ADs9cwArcxQaR5x9rjp4RAvs2hVXr8HYo6idsFshzmRqOZ4qIOB0dsAZl4HAZ4YiyMfBOBdVwDQ4y8EUngWIH8XABlvA+g2QPsHgqhXr3kWIL8SyN8G8LcB/AoAenmkxdcgOqUowT2UeVSpFwcp4lruIbKF0nOL+hq5uy+KPr9pl7kp9LjmdUZ8ruHSW0LqVpccII0yV0CSi4NW6j39wocBifqYp67p+lFfFn3wip6L8rJ0VqDlmwOMB++6/ydXaG8qN5SBA0fzhqK7Q250+Z8Ve81GjdSgxwBm/TkueUXbGOT29UqB5BMs/syAtwNtwbcpBRd5CRj/GOiiVbl8D8QcRe2CxU5Yy9eJfAFQ9/qzn3oQYJGhQ3zkjQL6FwJtSQcR2vmDehtAVwB0G8Abp5/42wDRc38gkDcByhUDPgo0vgJAwxzBGp6chZuhI+qQcK25uRCSq95idk/9Go6rqmcLzjOagPmrebuE+KT+mBjWVv76ima6GXsB0+Mm0NGZvbsrHdF8kL54RZTRlb44uGexsLxsHwXaM3HXq65huV4vm/WdGeDyvzZXGpQ1yKqZ9ea45BO0lZ/2VT7HTcH1MtrGyLcdVgHWKwc9TgaQH4IlvtoeG6W4PRHDlrdXAnbxZMoXW/22Hq4rAELpxM7ddvIWFHWnZeNNHnkYkLcBsn3/Q0H29J99+89N6K0A3QZAOP0qYPS4/oEgV4q3AeLb/m6q/ITdQdLhbQLFM9IMnhGj2jlpOZvPy17Pz3S85CZqh3rJd2JRADw8cUPxirYQ83Y3Eo+616JilfxQ7u18hZIFQ/Ee4rDtQB0Yi5dv81PQ8+AKL/OrdiiUUPSl+GE581S1tFjyXVXEE8ZtgKqxLTzDDBwwws8w2s9V1/ZqTHz7P9aStK54j3ucgcvyg7ltGLCj9vVKQLFfufQSEgHbFW2DdnJzNNKH46fICQTeoonHcnRKcX0Rw5brDFsqu7j0hK2+5BnrDl4b6VxZIspXCehPfTUwRXx5nwRw4X94FiDfBsBs+0qg/kKg16UvA168Hh8FQj4UPOfS4W0C4agJad7jLk/2yEWio2XZMOy5o1pF9UuocGjj8wssBvJ80zzLiNoaLr0eIqNgJ5d9ubcl4FzWdoAeV4eRkdGZv9cpwIJVH4fIVN/jyFaUJvw6b5Bj3vD+ux581/Y64Ipc3oBKO1w34HJz0WbgHb/6sW/0p/9tBeF+sQZlCcu65KbQOxaXnQnaxiL7OfiZATOsbRoG3Q9YHAKSC12/I0fk+nsgbShqF8x2rBOJapbRDxAsQHbwugIgpCWX/+Mf2YvCEv79IMCWdJCh5wF4G4DbAFwB0F8J5DYApfc2AAcB3ALItwF4KND/NoC3Gnw7JbEqSsQSKmA1azm2cl3m8tPgkjtUV9eboodTGjCPJtwELu8gvjQfwTku+RJ6Y/uRHfFF9IlvGkuYA2w7gnF3SAJKByIDDUeRgo70xMEDS8n74oDhTuHZcwB2yvGu97/va/74gR63ZkfMQJ4JRzS7mVqfgfOzhy9+/red2QpyYaPBEwBr1insH6KX10Wtk9nOXH29ElD8Vm4bH7czwbLOe59iG6VtFw3yNq3LSweJx+t7aDKv3wMxQ1G7YLZjnUhUsxs5ePBL/NZBoVphlysE/KPgtyw6tn55GJA/GazL/7ThYMC/B2DLvSsA9XsAvbcBMFA9OhlzJUKBtZib58CzPC+3OtR1SnZL9RqO6azn3AQVbSHPK823HuIT+TExrA12xReRgCm7AkfHA6bDM4HXcS71E+5GMMRCKXlZsj1wMiDWFpPIM2JSrqyvj157+K2ItvJsM6Dhe7ZR3GXv5//22Quf/K0/z86fg4Bc2sERvwrmdRI74vjNXPIJ2sZnpDfHraHrZbQVP2/D/CCiOECubSANEa9GUx3pdzjmKK4Xi13eXglYw7WT5/J9vhJQ3dAxK+hxgBAs8lN1tGBfBOwVfxAwvRKYdXQboPc2wOsf/31zxKuGeFVibVGJyIgKPKPRIWAqSkmLLilc5qS2lktvgkUAeFjihuIVbSHPI82nHhJfGZadqL5Ify13PZ/wamEo3sNeoOqQNY17+soEAnquf+KGXpK8y4vavlDyv3r+pHDrPLKrANttgH0Tfz36zJKtPLMMnJ/p8j8hDOf+EZDWNYUnfggy0Lndwdw2OthR+3oloNivXHqm6Pq+sdr1zEBs0+o2zxq6H7A47HHygxxHjh1ONUX1waa8PSNfzS3A9kqAfPhBRKlH5vkoyNsAFPnRbQC9FaArATwIyHvUrmt/G0B/IMg5fxcgfRfAldLbACf+qiFeS4JyAJ5QqxLSmHrKBCVIda448F35nauXXGFUbgsKF1fMA82PHqKT5Wu59HqIjILdXHZx1/WJm1rlDiDOXAYdS0fRKbze09fAuJygSmBqTxuX5YCTntcf+MPAYAqkZC53u9CbbbcBPH/P+EfD+IzDuKvu7d3/N177i6xFfP9fa9Vwjhh50SBdBQfr43UWD3kd3pfL7gStP2E3enPwMwPEZ4aUHvfTcBwh34mm4np7IGYpahds+swAO3l24roCkB/68527dUA7ed4G8H4UY/ougGwL24MAPg9M4TYAnwXWGwH+DED5LHBolF/7KNCnf/FXgqgDcjyHaDNwKloWSr4DsztU9+G48vEuOOEmoF7zIiO+DuFql5FlCvb2LrkDNM5cAUouXhxNzvR9QDRg1qgGpMCEGNRyi9TtUZYGDNO5XnwPl6Tj8Zt8FGgrzzIDGrJnGcOd9v305Xd/C2tTrE/6DVRixJ4Fat0mFvyL70TbSI30xWex2DfD3g60Bd/WFVzkJUDiwkAXS/yoeP0KRJci/WDDGXvL9QCgUPV1r1QF0U+o/kqgqvTXAYU8A0DRR4F82Xbu+S8ExhUAOwCxhwG98LcBrPBRoLgNYMQTW5BKOGUOe3XeYPeP8rUP5vAYd433Ieihl37R/hAerSIOLa/GXR2oAZWOVm7+7BJ5lBlUhyYD50Zm2hbxWugNHOEgnwlrIl/wRXruveO5b9neBlhI0g1UaZhvwNXmos0AH/+59/iNV3Tvfzjzj2GZ52FpqBfvo/xqsPdBrfPYoJ34arSN1ajdHDeDrpfRthK+rbMK8GjPDGCvdMix9IsAxKmm7OLtMwLRip11PBCoet0GUD2o7wLoNoD+SqDO/IW6DXBq9wB0FSDax04+23S5DgLsNkB9G4COeIILoshWWEWLDe7q/9p66U2wCHx8LZYRWiwx7vsj3VL3dmFNgfpeBGqn+i4SIKWHGJjrgDVpz/Tn39vHAcHlAHscvT3LZEBK+54cl8gVhlAujauZRLPcKuyq5/Y2gBL1jLAdwmcUxt10y+V/do9x/h9nzLF2xVqm6wJa6wYe+Zpyyceo7GplXINMjKx3MLeNYPSm9GKOS56QFkbrNnTKLVu53hxNOP0ocgKhHxM00UiOTikuFzFsuS7rS0VcbwOIT5BAU/EvA5a/FJjEo0WuBPhXAsr9fV4JzOXyHg8JjO3ytwG6twFoqJ2WL/NjRSYLNtZa66s4pmQHHHETaHxcnnmJodZfgXvXUvvMWabkdPS4K7U/owlnlZnLYK8DlpH2TL9y9L1tCdh9sryLt8Gt4JMBKW4kxwRuWy45qGJ6qOUyy8v8t6tYfy7rb8s3m4F2fG7W+132Zh//4fK/7x59ZdDKzVqktU3DM+bDmX/UDzwSmlshOYQTTW53LC47E7QNHv6q3DeAlh0T1DN/01jkZiDqAzHo9opcfDWWeAzqphd7lDmkTjv7fBtAVwIIUPXoUug3XwbUlQDq9UeCqM9XAvgugB4GbF8JRHeIzBbLbYCTJ2+dvP5bv3/y9PLyqTtDDad7FPVXTcTXIK4YF4qPT8HKy/hIL+9D0TkGx46Kr14iazF3gDaZK0DJxYsjP7N3/Uh6e+Yf6zuNo36KvTpke5SlgfLEF1voiedwJEdN8tIEkHmJxGdRE+H+2TdvtwGUtZvHzlDefBB30eOLH/mdb+fyv+/2fC3RUBhWzgLyMeqKgVa7tVcC3GyxRs6vg0+jHfuZq69vD6i3tvH0Xs9iyUpJ12ibaw138pIA4sFRF63K5Xsg5nql7vQtsHowYIp6IJCdPwcBfMuf+vw2AM8CcBtAzwLM3QY4fWp/X3DhbYB79075QwNRhL1gOzLlQVXiaxBXPh4tkncz4PuCHYjfrCe+D6JL8X1xLK7/JVBKxl5A6hC6xVE9sy/Jb7n0rAGtrLQ4J3PldT+9gfKBKe6ozxyrbRgtR6cUmW+55F00e9ttAGXs2aDG5dl4v8Nen3v9k995YV9riysAJRE+GqwVcJAF1rqCXY6uN7DfwClHB6nqxY+PKVr3Jh7+R70Z1UuPtwVKbwPnuDVwvYyWH9/mWgVYrxxUHnIa4m81mupIv8MxRxnt3M0B5/u5UF8PBtAv/UPH3wawnX2uR64rAJz6cwtAhY8D8TaAXgnkFkA+CKgPBHIb4Bd+Sc1G6P1KkrVcehMsgiq3hck4mb8Yn/VIiNq3+mpQuOQZWaZIL9iUSz5Cn0BJIt7DJqD+mb7ZQs+DIROltNyzlOonXA13oBIvNfEe+sCYYotqm8MpMpmRyhyXfA1utwGUzZvHzhDffBB3z+P5mT/9b6dy9QqAVkLWRl9rEnqCMkdhyocrAVE/8MjwlEt+dbRoIuyCB3PbMJbeBc5xyUsa2NkTAaCdy5THdrjWmyNvBUbzLic7VBOQY4dTTdHOG/SdfXnPP2qH+srNMbcKinuLI64AyA56XAHgIADkFgDFd/72eWB2/vlZgDgIeORvA9Q/EcwzA3ag8Hs//1Fvm3/UH8nWcI0PbWrcxYDnv8i93hSU7x6ik+VrufR6iIyC3Vxanuvqsk+EyqyDTQeo6gVsmWjP7CtH352ngFrusz3VT3iKaWmxN4CY1UDRtsclB1VyOEXWMy91UPUZ5U71LT/ZbgPkFN7ossbpRp3edWcvfvd7v6M+/c8I8G+yVhQ5yfJRMoWKpUHLR6vfYHA48/cGphWIaYrYVXDw1u/OofVqN0HbgBIv29HA0HBuG23fvlrNIreG3gosDnocB8h3IvGgZyWf6XefBQi1+lvc+yuBOghQpXb+uhLgtwPsmwB8HIidf/ssgG4D1CsAGOK1wd/51UiWUcVZfZQFyZcw8h0NPL/YKw26vOS33ZdqX5vlWF3DpZeR5YNL7gBGMm8Cqmf6pQOz9/Spdx0yRmkxy1zh8J+dA9a4R78XTolA5hSQ+CGIm9xuwvU2gD0XJX8b3kwGNAVuxtvmxTPgl//LxsMFrB1aK4RUZPnOvY8aTnE484/VcODufbRyyu1NoaKVP/GdaPnz9KzGkk4zHO0MbcGHoeAiLwESFwa6aFUuN6xXAEwy+ShQqTeoJT8LgFCvBEphtPMvtwH4LsDJ83EFQB8FQp/bAEMktsjDgHYFgLcBLh7R+1HtiCv+nWgKWCJ/FckLfAXiNOuJXwVpe3DZFTiGCRjQe/ot90wMeq7vOtHOWnr7Ad1akV0RGDDMzyHmW/ctR6cUzOQivg8qHOzMhSV7fhvg/JvKp66y5235OjOg/F+nj812zoCe/rcNA9//n11paZPrxWmgUXMUB3ODltNs1HCB4yzrix8fLcpRVOKr0fI46vUcJx3mi+1xRcsXHIHLJzzkXk/X0VuDphOX/8sDf7y/b4cE+UoAZvJl/jDLwQItKQ/9ICC/DeC3AswyVwAoXAHwvxFgXwbko0A6CIjXAe3KQH4g8P4LJ7wN8Pu/9M9Ozh6QgSjhq/TLRBNeBFUubljzSDt4zeNujvesL95DZBT0c2l5rqvLPsCVRWBQyTPmgNoOWZM402fBAnHnKaCWe3ZS/YQTRK6Hd4oSryrxHmIOeQ9p37ozLjNUU+a45Pugh1EaAOIt4vf07Om3bW8DkImbLYzFVm4wAzz9f/r0rVcufINhjn1tKEgcLUdW156i0OM09JVNQ5p5NIgz/8HBcCUg1+MjylAvvh7lhRYeVoNt/cHc8hjRlzTNccnNket7/q/vmQHfuZujeiXAn/JXJiKP2tXDuErAf3oV8OLkeb8doLcB0PGrAHoH0DiLug1wYjt4DgJU2PnrrwRKBnIbQFcB4Mo7SJlw5Suquzvtdl+ZOc3WcOn1EBkFO7m0PNfVZR/nyqyDdMgMSZ65DKo+czMxOvP3uhRQy32WpfoJJ6Zcn2LMixoYySYDVMxIjh5mWy45qGJ6PfOqBlW/hHIn/RG3huKOcFvwtJcGcHuW5YXtTwSTkJstGteb9XqHvXH537fcrA0UXysK9jgyRkl6c1zyitbARxfMBlquBoOD+SsF6BazO3Cw1tdv64/FZWeCtpWJLETv9vvbBLHRwoDbBYuDHkfPd+4F/SDA3/M3gRWuBPgVghggP0gIc1Efv+iN3yCgrR4IZJnXAbkNcMElfju71xUA6tj56wqAPwuATnkbIH8PoHTD++U27Qf/3r+CE26CUX3h7b7Upx32Ur3RLpe8h8j2LjlAGmeugCQXLwHXe/xlfGL9MWXqXcfQS4sIkUkuDu5ZGBhKDzGf5eJyK+4G+j+5ORpX4dkddpwXg6RdvKItSI5jT7/dVom3Ac5R28oNZcAeD97KTWXgPX/l/3rl0ace/bXTi0fPl6u4tqUu3ntY1ybT8bVnATHDG2LSw7C/MZYQnSz31V4NBhzOTOOVM/tEjbfUj9izwCHK2GiJExvxiE/QPo87Sqf4LJZd9CloBw1g2VhhyK66L/OSZ3u7P9JmoGcBTi8vTRpy0D3x+V7+N/Sn960VtwNCT5m2PppjDgKiHUrG7UrA6VMbJYLS1wF58p9qHhI0f1EMOTB455ecveOL3u2iiML0jCk/VBCOc7D0ewlpgxvfmNOw8GOgG9v3hw5QvCOdDjBTPFdC0y15Gv42Q8mb8gf6cpHX9UIchyy3HPmepYQ/GhgfELOTEbNy1+KCy2wetTVcbqUv3kUz6PKMJqjzY5p2bgP8y4//9Xf9F2/81H/7aCH0reqIGbBh2MpNZeCzv/gb33JqH/8Z+WMtyUXc1x6rWIvYYDSlL45Ao+woDuYGLafZqOECx1nWFz8+WpQeVYt4anrT57YXG+nNcdJhNn2nJ7R8walw+YSH3OtNDWTnrqJnAHQFALnv/E2R7wE4N8Qvhe8CqD4kZpIz/rJz17MAXAlo3wSQvtvRzhCitwHux/NWxe2on6h5/4S1v+r3FGmjjbtPq8Ilz8gyRXrBdnPpjTB3gIoez4F5x8gwA1ywZHzxHr/raGRwxHLmkoF7lGF6RCPxjDlM5JlnVyZXM4nXcuktodxiGz3ntiD5iEue0RQm6ccODa2cntx74Uvf+0f+ZLDt9yYyUFJ/E642H3H5v0l5Q+s2RfIeau0jpdSL9xCFLBfP6ENT9JLBeAZgcBAc5TA4cDdgUuRDETsGKgqsh/fAvbltbXL73V8gLP7KzgKoGzGzNOaxMav15qg+A2B5PfVEsLO3U7VyL1/1Z+IlPvVL9aDLys4/6nXK51X+bYCdtwFM9dM//+GTi7fC3lL86kdG92v9ULs5LnkPkVGwm8sunnXrsgIBKZnLYK8DPv8VQODiPX6fNdLHEcuZSwbuUQg7mxEXYor6lksOqpgearms5dKTmzXcwzLFUXhw4ihILGu4Yj67d/oBLW94/RnQOF+/pzvugcv/8ad/V6actYrSQ0xkuXgPsZHl4hNkrUUI5gYtV0MC8Ab2Gzjl6Ep6NRy8hZ1jcdmZoG21PAtWERgasTErVwKsZpFbQ1rxip9fCQBNxpl9/muB2smTK64E6K8EOuc5AJ72N0s6CODNALuwb/L7Oo5A1d8IGL8NwIOAzZtV5QDiM7/84RP7AMvixlkb8Yz4WcOlt4TUrS4kmtJDBaR6cdBKvadfuElMGuMZCqEXcm/h4vihTvVtXVLbtVjCd7foZq5wJBeX2x5v/MmcxOKHoNy14Tg3g14/g/SrSf8qrrh5G4BtpfiG15sBTbHr9bJZP/HL//b0/7Dm70iKRmYfZG33tXMF4j7r0xCeETriucHgaDjzdwNmJtCb24/Ys0BFSSz4F9+JthVz/dVY7JvhaGdoC77PMcw7ee38Qcm1c9fOX0jc8SxAOYigHxd205+dP7cDbP/OxQPeBqCcvWCv+6XCK4F6GLCK7TbAm7/1u/bgYMSnOJeQttQfE8Payl9PpOlm7AXs83Uc6OjM3t2Ves1MdUy8IsroSl8c3LMw4SgZMTs3EdGV2zlEpxSZbbnka3ApnBqmLbgeaAsMh6ev5RaI0roPbrcBNII3gzZsW7mJDPjlf/v2/7isSL9WfjWc475WmtJaxB7upS+OQGE5okBBnhu0nGajhgs8LA764sdHos9Ria9G23qNej3HSYf5YmNX0fLlGz8T5DN4fwagvBUgeUVvML4SwNsAqo8Mxa+eBTh5Eo9wcRBw8dZbWcWX9TpgfRvApPxtgCeP4uqANuJLiCEf/g5SR1F9sP25tyv9l43FvUgv4DpPzb9d4fCCngdXuGbEKGDqVE+rlrul3T9MrFzEe4gL5D3EhsnVDEo5lKvdEnoYpjAKR7yHxIe8NAArt1iV3ha9I6k+c2+/3QZQSq4dY8tx7W7utgMuab31C//sVT9dexapsJXU12r5FgdVtNbPccm7mA3KkFANWi75YbjLWlt/LC4788j1Dx3aRIJ9o1a6yY48F70ZgKyt04OB0udKgHT0MKCjSf0qAH8bwP5A0MnDx95E3wWIPxBklwmePAxTT63erh78C9/6zSfv/KPvd5k23vLVcsmfCWqv0sMakEZEgpZL/gxwzepxjWHJvVzMcckzehsT1PlQ0lp5Mdpy+doXsUP52K/82ud94vu/8bVg2+91ZaCk+7rMb3bJAJf/Y+evdK/FPfLHWkvpIe6yXDyHQf0Sx0Curxx5Nthygsr1sJGhxNFt3MzwNty2XVt/LC47E7Sdk/fSKgJDo+6zCLAUv+zPg4CptGf4+VkAz5btsHPR2b+eBfA3AXhWwA4C+Dywdv60yX8gyG3YXwWm/EH5KqA23tr49jj6ub7HkVGkF2zHLwmiLGEOqCaURJd55Bj5DmM+ArZY6itSi0xycfDAUsIfrV+YyvIcjsIUopvDgXeKzKlKfA3KPW3lNrfzehP00Fdzq1DaJ9xs5uHBx2hYEqeOovpg41/88G97G2Ccl+tijPlWrjMD9ulfv/wfq5d58tWsgwSRV0v4HkUjuQ/ibi6cVo5i1hfP6OEWvQXDwzMC0d+BR3/bLNwkb7stTmS5+5JXtK2a13eQtuhpJ+/Iw33Iytaw9yyArgB4/9m5mwc9K+CN+SnPAoj7swB2BSC/DUDd6DmA4vPJxz722L4K+AYbXMpVMawMdsQXscQy2osQCPKMGPEAi7xyyV3Aj5XSoQmqTvXi4IGFgaWAmJ1DdOR2DtGZKXKjavElXApnEqYJcrrn0i85cfhw7IGKXe3EM/p0MIUHL9//U1m+LV9PBjR/rsf6ZvXkPS8+9+LFS+/8zkjFZLUzsVZTNDQcLUbroV68g9q4qGqOy+1axF4OX5z4R+GKg7lBy2k2arjAozODvvjx0aL0qFrEU9ObPreN10jPt3ZxcKC3AbQT15WA9iAgekX67LJ9Ku1fCfQqO/XX1QDU65cBrTIfBEy+DGgHFKdf8GUffvzq4x87ezA8C4BNH7aEyCiSB9vNXa/d2ov3EAfIe4h/v6evkSkBeVBlHo0CRFbkHkjLXbj/D+4pPcSFwmuRNjkcuBWZCbaeq90SdsOxBi7voVUspH80LMSrdLeovkg+xyXP6NPCGj599Ojf2d4GyJm5nuXOlLweR3fV6ls/90//TD1U9iTk1RJB5nl1ljxnTvVZ1iy3IzrHJZebNRz3Wd/DMUGWo5Dl3oAYk7w0iDP/weBwJSAMDjz6OOWS74/ySstR+FfltvHK9up3Bui+VeQzfV0J0HMA8FyinkhT2m3HPSrlCgAfBdJtgDPu8dttgFx0BUB/IvjyrVdPLh88/9899+KDH7h4FAcavvG1Ri3KjuRruev19gIYkhwUlwPHIsdI4fVpfuUJudeVvPlyjY6GImU581S1zyLDgZkYljQwRY4tuZlDdEqRmX34nHts7ApvlO7SgLRJjmgNl14PkVFGw9HhrtT7sXguL7aPAvVSc2xZO/+Obf/O2zt7+OY3ndxnA5u3BlpNSY9WZyEy1Wt41iJtV5Y14WBKYc0hOqvCNQPeDTA3aPnU4HDmH3kYOLrF7J6o7qj9dfGRXQtfl/ErlrcBiCNfGRDXswDYoVzYswDtnwo+uY+1eBDQdfjuf3kQ0BuVn/xNgNOX333y9N47fvznPvyL/6tVv8GQ+LAYEaptyyVfRG39e4jBLBcvjiZn+u0EqwHFfBhmABG1MvHFaKeVNeGlKnNM9rhcCadWq0TNJRBfg3PusUV7ry+GSLN4RVuQnAZN+ldxfGkYhMiOUkqg222Ao2Rz0cj2FsBieq5WOTz9X9bG1ebQ97VgAVcbO57imrAUtry2XPIuLjnoNnjmwrZ74l20rW6Ws9vOZfZKgHaWSfnM/lxw/kuBXsUlACt+54ADAK4CGOYHAv1WwKNHj7n8/9qPft83oP++H/2D/8H+RPD13XP1vY31PCOOvSgj4rcY8/R8BmHKvVyLr0ZT1M5eNlou+a1Amy8f/8hHt7cBrnEwWPu2ck0ZmF7+7zli9aVk1EZxCWmj4WuROorkwbq/cqvKOY58KZy2HntZX9xPOSBWPDw5NPRTiWRoxFFXfwIHLnOqn+OSHw8VLRbxLt5F64/k+QoAbdn5628E5CsBugKAjnrnfuxjQNLjy4C8Dhh7fouB4wD7c8Da+ednAbBz+uDBc1z+Z5li9X+TVHu6QxRyOUyyySI7dcoSYpj6jNakPdOff28fBwSTA+px9PYsJfzR6oeJnhyXyBWGEH2KcTULwXqudkso99hWGJ5WuAm8fgmJj3oUrTTDMZKr3hXLj9pJ1nLJ90ICykW8BLq9DZCTc/zlMhWOb3izeH72+OU/9O/uzoOGYAlZSXK9uFaelsur6sU7KLOqmuOS91DusUG9uNyPuCm03H0Xee6ntx8Mzj8z4AbMrBzOccl3o7yiKasZ2/p9eX0WIL0NwN8IqHLLgx8klK0sDxBW/+U2gK4gcCXAHwS0PX99btBuC1D4MmC+AsCzAJd2BeCF93/lD7qC/XAbwLa39W0AybUtFu8i8ZWNtddnLgOqz9z6197Trxw911WPsczyLu4R7PejgQMpmcsdKDk6WQ5XMbnMSLSGyzxt5EbtdnJTqOktBiovca7hNPWUd5A6iuqDTbnke2GZ37XNaP6cbG8D1MRcz4Lm2fVYv8NW3/NX/r2Xn3vjk99xeAryVkabAaxpcyFEpnoN5xyiS1F9sMXfHAaKPS73qheXmzUcw1m/cuTZQMtxOmpobI6j22r3Od0cWxnztn4vbobR1xl8xXIwkA8CiJeSrwTwtwG6zwLY3t/P/gte2LMAfBmwvQJw9vlf+vc+8f0/9dmTk/Po4vk3PbHXAX/88vTyabs9Du/2q61/D7XRRpl68WLMz+y9Xbhrz/zrqedsxjHcjgayPQoJp/QQ01kunl1Snzm2UlFzicTXoNzRVm5yO68vglovbljTXQxUXuJdw2lahqsisqMVzRsZFO9hDdi+XfXG4w9sbwMoacdHTenjW77jFv3yf91iHJIMDc0arJsFc4R+5vguWwsWvbRc8g6ucU+znl4Oow2r5RjI+uIZPbyi5w5zg8HgcCUg+jnw6F9Ih6wckysKPPXspm3b6IHAiGz41UGAJP4KoW0s698IKAcBOnjgNoAX2/lrmbcB2r8NcPLozZOL51/86VA+V4h+G+De6ek9bY/lt2K7d6gdYTzMTMtpWIzVM/uSkZZLr58xRaBQhZKvRAaGkhFTGrAW0ZWrOUSnFJltueRrUOFgow3H05vlppDTToMRN92S/oOROI5WNH9ksJ0vLUevdOBf+up/7T9Rsw2PmwHNy+Na3aydnD56+Gf96f924l85N72t0WRzYV7azQmONdwtKijJxTso96qa43K/FrGXuyFOPxSWoxwizw1aTrNRw8Qj+KF+jku+Holu7HXM/TPBpoBe+12A8BK/fPJHO/eK1l99HAit/F2A+kCgXQLQMlcA/G2A8kqgXwl48OJJXP4/J4RadBtAG91asbQXaTfa4iUDi/f0feyUKbyxvMRrRMsLo16ZqngPcYe8RXnI4RSZzEhljku+D3oYpQEgPotWoZ0+/VD6PbW0p2EHQzrUr+XSW0TNFymJ9zAHrI4IaV86cHp28h/Uq1Wyu+FRMrC9BXCUNGYj52dc/n/z//6N3z69fPLKZIOaVa9tWZsPORAHVXyzInK9KPfyMseXwlsMd8mgGgoVxPVi623EbSMnbm/veyA64+c5AEp5AsAOAoZPAOedvyuVZwG4HZCL/7lguyBQnwcorwRe2t8COH35PT/y6o/95e4T/7NvA2ijDKpo4y1ee1QFt2dB06OHNxCl3MrVWo6eF1vwdLe8KpT6xKV6K1DzR8GI5/mkugnGmrK9DTBJzFEEZHcrR83A+QWX/+11qxve+WvtB7V7oWOZa7hVnzm6uzg6K8uacDC1Njzp0cbDNEENlwVxsHDlYcSrARkyrWqIysSdNrXJbVR369twR9zicW5u7e390ZWAU3sOgH8UDgIo+QqAc+8P3eSjQPYHfpqPA9UrAHYQ4H8bwB7840HA0/vPp8v/WBoX3gaozwFo45w31vLLF/kkNxOz9/TR9zbj/JowOc7LSbzvIgml9BAXGoAWadMJQWaopogfgnIvO11eDHta8WfcwwJtoctdIdUnjq8yXBWRUSQPdqRfAqT0UB1QvXgJZHSlCB0F6Bh2t9sAJOb4pUyZ4xu+yxYvHrzyPTfffw3lGmSlQm8J6UFZqSsiW1nWhIGprLcUThsuDbO+eEYPtei5o9xgMDg8IxD9HXj0NaTTbFxNbgcBHs5wWV9P9XMVgFsAug0gOdHUZwBsmeYXJ8/bz3AFQPf/dfrvfx3w6aP6NsDrX/Wv/FfY6ZWf+7Yv+J8vn56+5vfo80a62ajXe/hFXrlHZJazvi/PZYooVNeLaA/ZMJxhsuXZlVy2mNzRPBfxfRDzWV+8i6ZIqpR2n8aZm62cVmLbl9OGonbBjvSbd9q5I7VDybECKFjnTyMfAuUgmdsAWzl2BjQ/j233ztp78YM//IfPHr/5db4ma6VQNnZx6R0V2dxQMjLs8CWkjaZHi9RRJA/W/ZVbVc7xXeG09djL4YvTL4XlKIfIc4OW02zUMPEIfqif45KvQbsNUDaO2qnrTF9f+uNKgA4CsOi3CbSRNK5o1Q4dnf2zTOGtgPo2wAvv+pETe+I/avq/Tz796IfPHtiXK/FT4ou8GfVv8Vs75J5LRVBkNSJsU5fqJ1w64ELR8ElFvIe4Q95D2udwCpcZKGWOS74PehilASA+i1ahtPs0zpz2NOxgSIf6Q7naLWKaf64nnjHPm9ohiy/PH2vc8tpBDKuzvszbAE8/8FU/8DtfBt3K8TJQptTxDN51S/eevv4nag60Ukiwi0vvqKghXkJtnnCMnjhIaXlIp5tLyRPKrURzXPLsnjZLvBueNRiFmwy7fo9HgzjzHxxOrwTIYXRmWi/5bvS/EVDMMS30QCAt/fyfWwFlvsT1gPJUgG0Y9UqgN7ez/0t0097NPwpkduozABHOyeN3vPtHyuIsPHjl+b8/ugKAZoljdKbmspSPlvsgpPoJd8OzcdQKDZcEw/CEJHO5AyVHK8ujVfyavGc+q6h+CeWOdnJb9W1B9Y5w/BY5DSpHwUqPS95DZBQfglg8iKem84vauUtDXIh8pgOj+YPak9RhtQMpuTO+fHHy0h96Ydi2htb2e8UM2PTbyjEz4Jf/tTKAlLUY2jf0W1a+0eYJ18iJW4isxyXPyDJlj2mVw6Cp3Ga53Lf1cqP6JY7hXF858myg5TgdNTQWvEU0KWPtPqd7eVr4Tr20jDP9y/qngtmT6yDA7cNto+hXDsr9/3ybgL8NQPFvAhhyIMAbAG/+kS/+n3Y9Tc1tADP9aTegnuRAfXmuh7SiTvXi4J6FBFF6iPksF5fblruh8U9uTs1VuNzJjvNikH2XeEVbkNynoTgKVkix1ycu+RJSR9FwBTvwlwAoPVSAqheX4x5HN9fDvZRO1jnTculxkLy9DTBk4zhL21sAx8mjWYmn/9/6+Y++6ibzSqCV6Gi+btoQGwNWzB7edCzJXy+cXWGqPpmZX1xyMN9qdU01z+2A+NhPbutfBrSze70ZoDcCJm8D5EbpeQDEPBPAg4CnD16effo/N2f5q3/od//qgy948L11498q3DSveTLHGj/hDcaiMORSfDWaojYLtR8y9nZAHZVkvLG4bcDN78PPPv3yX/7QF3/8xtx+jjtiNdrKUTIQT//7Gp6PdLWy4CPLl7jikf4cl/yoyOaMklFb2x6iq2k0h+hQVB+s+yu3qhTvYS8c9Hpy7GW5uJ+CQax4eMmR5z8ZHHHUvYEaJu7WOjzk+g1zsfNnmrTPAvgbAVbhaK8D6jL/Wbm2L/0I2/5KoAwb6mFArgJc2lWCNZf/1fz+5z/4gbg/O7KIVamU5cypanlSn1tUulUvnhGz8B6qHWj1aibxWi69JZR7bKPn3BYkH3HJM5pC3RwgpwF2dmBoDXprufQWkYByEe8hgaoDQtqWDqy/p186nP16FkeChkQit9sATVquSHsjcUWTd7d5ffo/rzztSkN6tPL09HL6VC9ZyyU/KmpKLCEbjVwvro1JyxWg6sU7KLOqEl9CuaMNenNc7lXv3Bq03H0XeTYo/dJg/2cG3HD9CXPD2wAML68F5sv5/geC+DaA7fR5IJDitwNsXulKAHZO79tnf9PZvx4G9Mv/dgsgLv97850/H/5H//jnLh49+f8iMVLHi0dcBC1HnOuL2i7QuEovj5/MgZKjl+VqV+Q9c1llrl5yuVnDPSxTHIUHN4FWew9rBZdeDxV/u/rv4mq3iGXnXXUUuJCKXockT7jfPX0a5kIWlwojsr0NsJShQ+o0zw9pu7VJGfCn/58+/LrRyqKVKCNt1nDpLSF1N1a0goJMmx7XdFJ95gTacmQUyYN1f+VOleJL4aCb6+UGlBydHkfB9cGi0HI1VH3thysWw5jp88GcLdlG1s1YK53p61kArgBwG4BDA0rIyzMAcGt4+cT+/C/PA5RnAuoVAPtDQScnL+x8+h+7tdibAo8+/eTv1jO6Gj8a6kvVXrdAvilrEBfoyVWPYysVmZVI/BCUO2wpjGrHFrx+Bn3amIL2mdhgXHdx6WVkmaJ5EeyKvwRCWcIdAdd5ocDm0B2RLUqLIV3/G3FvbwOsz9gaTY3KGt1NZzYD52f16f+8Msyt9ZIvIb6WVtLZWK6rQlNlCVlJqV9C4isbIRa9tFzyhHIrkfg+uBRWGzb9cP2C4hk9llQ/0+/hbYHop7iz2pyPA9mhgnFdAYgz/Tjrz68E5isAvvO3ecIVgPw9AF0BuH/xeK/L/0ovtwE0/cbjFX2Q3mq0fnnJ6Pk1aQ9Rlqs5dIPxI7MSie+DvTBoP5KbwDloC4yX56nltEPxChitBzviV8Le9il3pHZoPvDZM/22wx5oScJkMA/pRdjabgMckrt+G5u2W7l6Bs4v/PI/K0BeCdqVSXwNEhR6azC0Bv05LvlRMa/gxAtfQpxr2s0hOhTVB+v+yr0q5/iusNp67OVuiNM/heUoh8hzg5bTbNQw8QjeW1szzvUpugLAcn0g0PzrCgHPAuhtAL8dwNm/3QbQdwRo9/T+y59587//0ztf/0M3F24D2Fy22wB7FqVDzcR72KTLu41eSpOateb25bKzhMr/KCxrMJJnbhXad/q0yJxu0LCDIR3q13Lp7YV5e0TDzJe2Q6Z62Jm+oiudFz0UJwN2cfLm77/1lw41t7UbZ+BIozQ2etdYvfzPCtVb6+tWwjKTVzoSlbn0MqKzi6NDQS+Xlue6oy1rCi0hceV6ccXbcgWnevEOyqyq5rjkoNzRZonLvfSdW4OWu+8izwalXxrsfmYgpgPm9CwAZ/4U4eWJ/SlgOwSg5CsBcH8o0A4C9KeCuQ1gnxL6B9TtXcptgL3bkc9ccn5z3iRH1/PUx5651vwuLrfoya3sZu56JpC+hwW3Ba2mGBhxs9nj+NLq1yJ1FMmD7ebS2wsVOEjJXAHM4GFn+uHGeqOFqyFha0Bs8ezB2cmDz7v3FdtHga6WVrUus0J0w0My4Jf/tYLJgOY/K5dWOuqWuPQy0mYNl94SUndjpSbAPGotxrnWZiEy1Ws6ziG6FNUHW/zNYaAot1ku92293Kh+iWPY68HSoOXqp+o7/dBtgPgGYDjMVwIIMT8LANfbAH4VgAcB/TmAhxaRffv/pVf+6q53/7HRK9wGiL70aoss5xFRj5d0qPsjpE10k6XZIrNSEF+Dck9b9LvcKlzeoA+rVWi1nXDs5frCDWrqfLgRlNJyya+EMzvxGniubwI+7EyfbFGEwaZc8h24NJC4KPUXj2LBbwOc/zQPuGzlChmIU4krGNianp+99Ke/4h+d8QDgVUvdyhRD4mvwqr6faXtWaq3lLT7DwJbCmgtT8lVhZwepQdlYcxDQK+13AaQzuh1gBwKnZw8+89r7vuo9uz7/q/Y9fP9P/MHvmfwLe3UTWe6O8iCcKF+/YCkchTVCa5D3jXm1U7SqF79VqIAVlHiZTxK/bTAPYAqaqwBvferxr/6TP/vFX5nE2+IBGWD+b+UKGXjxg//qlyzu/JnEubQro3i7smaurc4S4oP6NRhag/4cl/xKOElAsSZ5XstHm2PT0/TchQpQeuIdlFtVifewF85cuNjL+uJ+yliceXjJkY+XDNK+xF9Q9/pL6/pMQHsFoNZbO38boAj88v+Ob/+r7RxePD39r8/upxOtFL63yTz3X90Soly6l32puWRrufSWsBuONXB5D61ibrXz8FO9eA/VFw3nHJd8L8zbCxpmjsMeL4G0Z/otr/PPAyJLueziWXdheWnAaJbr1R25hqNinxDebgMs5HiPKqV2jyabas7A2cWb35v5ZLnN8NxWQfIeaquEcerFe4hOlvc4Mgp6ubQ81x28PElAsSR5D4kry8UVb8sVnOrFOyizqhJfQrmjDXpzXO5V79watNx9F3k1iF0ZwA+7+cRNpLcC4jFA+1RwW2/t/W0Ab/6kXP43cnA5Pzu5f/rjF0/S3w9a2398KvwWUzyYy2UNx5z0lsLBbq73diYgzb4aFYXKS5xrOE3R62FIh/o5LvlemNd/GmaeA5IcnSJv7+m3XHo0sUYB9XcXr4rLC3lA0MxcLsAiB2ooJqdbcD94ubj8c1Rv5fAMeH4Pb761vHzupW8+Shbq5C8LSyuzVu4eEkyWz3HJl5C6Gys1AeaxrOXuG7m4pmuPo5zrvfH6n+yeVpnLneRzPLtX2LSRfq73rVgx6Fs19KRgyzb+l+WLf3orAG2KXgnkgUDnpd/1lUCzc3ny0mde/9u/8X+6wsE/5xcf/sC7f8aaD28DqF+9/Ch84YJfNZeK+BrEfNbr8qLAauT1GU0guQ+DOIpWDl19ovWRfvP6j8nMFaDk4iCl4evO9Evbug6FqcielvfAPEA0yxxXPZ5C8O5mXlyH3F6ZtWcBXnjP83+miDc4MANK8YHN73Kz87P69P8x0qCRyCsxdpc4a0OuF1+D2Pa1aQHRubFSE1A89jhbDeRLSHNtXVheWXruaLqPfCmsNmwMe5gZU9xlI97u/Nve+AOCTX/v2bjG0//nyWDbcj3nNoBr5/4hkPU5XHChtEpFfB/M4dBuxE3gPKMJSlp9XPNqQhy7Vodd9erLUTCv1xhU4HOIzkyA6870yRZFGGzKJd+BvYH0ASku2gHDnFwbevOWm0qYjYrLh0/fu70NQOIOLxqmwy3c2ZbnF73L/5qzSkvLJZ/FtoFWajUQB7UxoC5zyZeQNtSvwdAa9Oe45EdFJQQk3l2Ic03rOUSHovpg3V+5V+Uc3xVWW489ua+ohXDG8OQHAfW0v0LhSoDfFiiG9MzAU2sYT/9L84potwEmacfkOFznc+lRBHP1ku+DuPdpvxatgVYT+pNXD+KbWx2oo6g+2JRLvhcSUC7iPcwBqyPSo04Btoh9yeqgdQYvx7F2uQk/78TdhOpBH7AxKnzXZXx8YfgRH6GI29tuAwzZ2n+pnQX7W7jDLXqX/9uEtnxnutoGdcUtLcUzamOACvI5LnlG2uzi6FDQy6Xlue5oy0rIEhJXrhdXvC1XcKoX76DMqmqOSw7KHW2WuNxLv8knVFcA/LsAqd53/vZ5YG4D6FmAeEbAHF6c2uX///R/x/0xCrcBLk+ffLxunXPc2YHJlQaJ13B1nzZL6erW0138gkWhchek+gVOU6W3Reookgebcsn3Qq3HapTXXzkEJUcvy9UOWSsXz20mg1gNaGE/7A0wec5ycZCSMKshH3FTFW9RE2W7DeAZPfhHeT3YwF1t6Jf/Lx9/XZrLN5uK6pi1xoZRKzs4xyXPSNRruPSWkLobKzUB5pFp3OOa3qrPnEBbjowiebDub3aHQuZyJ/kclxvVMw6UDnIloHcFAHWd+bNMuXjhpYPf/Q8L09/Li+f+1sl9xTetV/dVI74G1X3aot/lxVCtFzes07cYqFzhGmq1QKVXL3lGlo9WtH7KoHgPewGmDsze06cdRRjEf4efojMIDlsq+R/NeyzVAUpmS/7ragUv1YeiDGy3AVKeD1g80mw4wPPbvIlf/reVUgkU3li35FAr+xpMG5HRVlDyJaRj1C9h1N7Qb01A8dfjeWtEfY/TXJuhYmrCJU/Yc0f1klzupSc+QjOgPLte8PYKAFX6HgB3/PVAYHwL4NS+/nfedoomB5enn334P57Y61deOpbVbTkQ3weVBmzQTtzRBBNuAqa9p6tg5bSnwRUwWh/pV+unzCnQOURvpgOz9/RbffdVkiC/a+Z21V1YmAyQ6eYBoqlcG6I+4SZy+UqUeUzl8vy7HvxnmW/L6zOg/K9vsWl6Bvzyv/+J1nFCNOclvSqXnVmcOGgEeaOgjQ3GkIuvQdqgtwZDa9Cf45JfCZv+5q3MdDdintCnH0KcazWYQ3Qoqg9dtFgKAABAAElEQVTW/V0TDg3lfoImUJ5db+C8FaBbAlTp88AVLb7Tk3tHvfyPH8ovfteX/MLl6elH2xQQfi7ih6CPSmkIiM+iVWgak888jYlJaWxR8Uq+lktvEbW+SUm8hzlgdURo7WfP9LFdgyc7FCGLadnr9vjRwKmJeA9xgzyhd1PuDdXMzbW8NKdOeksoN1mf5dOzkz8FbmX/DGio9m95h1u89D0/+rVndvnfvkiRVzvPSJvQq/KdaZ44aATaGGRMG5nuVlP1PSSgLO9xBY1eLi3PdQcvN/2tIyJ5D4kry8UVb8sVnOrFOyizqhJfQrmjDePkeSoNxAvmhwLlQn8qmGcA4vK/ao6Llxcnf6duqYtpdUuexDOOumeKi9waqh5kmOp0a7krpPrEUdV0a5E6iuTBdnPpLaLWMynl8UOWuQKYwdkzfeyoTR2Q0vlRHWTPooFTMzimJc9cLlVv6GpJrmZuTvWyXcyqOeJsfg1H5+mbj9/7NT/821/L8lb2y8BofPZrene1T1/75HfGesefcKW0GOtMzpDWCclaLvm1oTYYoDZCOFvi0stImzVcektI3Y0VZRzUZgbnmWt1UH3m6LYc2cqS3dMkc7mTnPxWBVts8t17FoDbADwLYFcDuPyvQLF4tMJtgBw2htfw3Bv0u7wY8umIXePeCdAWutwVUn3ixOZpTIiMInmwI/0SIKWH6oDqxUsgs2f6ClToDkonIzsmEffKw39K+N0BxUWuF5drQ3VbAWR1ZEtc5qS3D6fNmeXn3svPfwfLW9kvA9vfAtgvX6bdfvs/T9e9jd3uBr7VpX+liK9BtXlbIZspjWeLN9wR32Jqs1l8W97ZF/gf/emF8+TpZ177se97V6/qWLKv+/FPfOT08vK9a+wpm9IV34lJgf4y3d5Wpbd+vK06UIJN43Ad4cu8bIvvjZbv0/tnv/EL3/6F/6JsbbguA2zltrJHBl76nq/9mrOndvnfj8o584/pyi87D2GYFA821IsPR8aSRHux/euHljNLEweNQFvbvBHDVObaKi8hbTxHKxBdivSDTbnkV8Kmv6Nzk3annzlOtbrsQgUoPfEOzoVDXDkfJf9A7wuBp1ZxnZf/FbnfBrBuKewlpPe53rkJdmJpmKcX/pWOFhWb5IdytVtEBiAX8Yw5cOQlsPZMv+XSc/O5M3k5+z5kuQl/NEDYUz1o4+DdYjwo8FiK35abVPVrELNZT3wRLaBRPdzyc3px8uXbbYA8OOuWyeVW9sgAl/99p19m7plNRzjIdI6EUpm5HKhePLQGdnWebXWX2xFvNy7iGdNGzDdSc1zyjASxiytQ9HJpea47eHmSgGJJ8h4O46lxHZDmuT4H1vQnV2lZ7lpO/nNz4344aXhqz57wMGD7PEBc/peh68GHn37014lLYYPqPR6XuOvRLdqDpUHlLkj1iaOq6dAidRTJg+3P1W4RCTwX74g6lAKWHN0SWHtPv+XSc/O5M3nZK5sYXLbyp20KJ2whZhJ39dIt5KPmLS9mMCE9mV3Dk9u5cHziZD0mktKz3QYg8/sVjct+re6y9r3nv+/09P5rmuHa+ftBgQmZnEz/KZe8h7HOUaMSdsSm9UPNkZYmDouAtavdmM1xyTMS3houvSWk7saKEgLmzVjLCSjXi/cQ2crieU+6xv3w0bB3BcAeBLyWp/9TBL74yx/667/lbwOUipwNRJWzADf07GQ0geQ0OPb0wN6VCwFS1uBVO+COFHSLXtn8lNgaaZdKdQlxSX12nXmpxv6Smbl6mVf9HJc8o88P/No4IJ9yk1sF9ZdPn25/G4Ac7VE8p3vo32lVnv4/Pb145fTy4hWtCXHmz7oT03YeSR2TWHrikdJ2IHbxaHXE34nDItDWdA2yscx64mvQ01E2L+j3eEhv6FcJWULipH4JCbf0h8W1xbdqKPfHger8caCbuPwfoZ9f+G0AI0u9VvgjtAbOS8O5YT5UHvFZXAekW20rEiglI4bVASE6cngoYqPOEQUv9MrDf0o39pqmci0079kMwfQ46lkufiU0gx6G5dvTC3eD4gXN8+WTi+02AIOzR9F47dHk7qr60/90v05KJqdPz4L5zD+m/fRKgORhKFprGGifS8uHzYS0xvr718vOLE4cNIK80Ws3iuJrkADQW4OhNejPccmvhE1/6wghJ95diPNhfGFTHtJBXrg3a/yXfMcHf2yjJ/7Ku3/kup7+V3RCbgPUXtvCKAviPTRFwvVhFprRXcMuv9Jby6W3iJq/UhLvIQGoA0LalcCudk/fB1tRrEfL46iI97CEnwfMuynX1I+MDVzyJcRMrhdfRAtgVC9uhlxeOHn3NHfQFc3z8DbAOU23siID21sAK5IklZe/64de5eyfSZ5n2G6uM/+wFBdzNe1lveWSvw3RVlJtFD36OS55RnVXG9s5LvmtxLkZgVxl5Xh7k9xO7ZmD4efy0cNrf/p/8BpLvA1waW8DqBdCr7Wwdg1fW9/af6Y8z0cFKnymga10HtMi9sYaGOFKE0tqMi+dtRw9lTacETdFT7eU5aAakGCsQJvLs5PtbQClZQWS962syIAu/7Pnr5PTln0qFsSMpma+MsBl/z7XGb7qM8day8dH2Gio1HWjCFouvWtDNpqUvPHcxbVRzUibNVx6S0jdjRVlHGS16nHkFNVnLnlGlq2Qj6ZoZuDn5i7/D0G89YmHP3j63OlTJN4b665HCdqCpoHXr+DSy8gypdP9qDjkN89T2vd47oA6IrQms2f6ClTo8XlWaOVswEIPhTy9sJE5ruA9RNfkUodSxNegzKrdWo4exfUtn87N4ZjHmf5wzz94vQJgkXKmnyMWZ4i22wCe4tU/Pgarte+s4vnZ8PEfm3p10sbkZe3RlFRCY6ePPCR9ZCWIllMk2dRnLP5MJD9evYJL79pQG719MG1UR3sNyZeQjlC/hFF7Q78akSUkXup7SJilPxWTOtWpMDPoPrcALv3yf6q8icWz0795+fDyHq58GKxbIMPvXPIrILYpshfsir95fuaAFbgwO1YABWef3m/0ItJ2TMWv2g9rj6l9ppNcG9IsF/EllDvazbldK2ei5PSLVyzzG0+RVjAiiHaDJz9Y8HG1teL+/e2jQHlgdyxrvHeo3fXq84sTe/pfaw1HnD4VLXsg8nnuGklP3NDteEurbzEMh3b485XBh0LDJrkLPZDQFy/xDTTiuAJPTfuLkwCKQPJYmy0wE7DS9rjkS4h36tdgaA36c1zyK6E6KiPiIPHOIfrDuMIqr2ItRK33/+nTn33jD3/eLxXJjcEvf+iLP3567/SjlydP3/IzMOtWHi4CuRXDk+cXQWWeA87zsQR+2Jk+TijNWIVw/988fWidOS6a6eTdk2tDqcvxHJd8CeVOYYgvogXk9WY4sJzUwE0QO2/6YfKiGOkvvPYA7grelbzTx3I9OHhir8j62wDnKG9lRwa2JO1IENX18n/RHSatJnVMZuZqmcOOwcvBAm29Xtw0W24q4ysBwTk4GOTFUHgKP4i8oDcux+Zj6x02cVgEksfaXRJm7eHa+GJuiUsvI212cXQo6OXS8lx38LI6KgPiS0hc1PewiKlv4vUWz7/0v52c/x9Nx+T7OvH87Oze2X9+eXHvBa0PCg/UMBJBlve4opTeHJd8L1QgICVzOZzBw870w02MpZavgHlaYCZzjXpC72XLk/uShSrJ5lrzu3hyU8OiDXLZJd+k19PuBhN3A/BQiGEo3CyIy2KoybL0Jh5PLh+dfPn7fvIvfT01W1nOQDsflrXvaG18/GdIlbYhzHKf7KAvJE6ucn2Pm6w0M2QJHpLM2fkPcrR6XPIehh9qVMKb2LR+qDnS0sRhEcRabQGs4Ep8RsJbw6W3hNRdW5kkoHhCztyaQ6qpnyIt4vL/eWvc1a/35/zijT9468c5K1ubfsWj7ogfBfP8wWDmClBy8RLIYWf6ZUx87HIPJM+yFcsawR5qenj89iMuV4ZqJk/ia1DmWvO7eHJv6S4nH+bQ7VXOmTvDofrE3QDcFUrohdcejbkfLPQSUNcfM2PmnvzzRx8qBjdYyMD2FsBCclTlT//b+/9sUzRXd6I1ZuVjjrcou5LPcckHVIseSksexT+HUAOgLokvoXTflpjGmcU8k+4/ODl987Wffe1Hv+8bnmXX/G2Ap+v+NsC1x6l5IEfi4NuxpOG/ifDlTr7E16DajLY+uWFXQUJtV2Nn7wcLtoGd7uyzQXkSyhbcvpFxf3sbQBlZwsjWksYdr3vHB//GHzs9PXmFNOzc6Vs26zZH+h3kqMCnckFsD5yl4KEn7hqmN4e0mr8yQG3Ux1L8oj8ux+Zj6x02cdgItPGuiS31mS8NDC6p3wdDe2g3xyW/Ejb9rSOCnLiF0MLBJ49OLvzy/0/fv5L7KzbmNoBMKM1rufT2wjwfaJg5AfR4Caw90295nSceELnOZRfPugvLGu41qO7INTybbrnVqf4QxE1uJz5Cy2+P09DlpZ5x8LQLTUE8ulB48dju9MUjopFHa97jWJWctwG4DfBJOzg+R7iVmQxsyZlJjMQPX/z8b9OyT32bxTanfTL3OJO81teVIvSHlaTh5sAHwvVjpzzlMVRxOwD9zIlk4Kw0wT1Cs26GvV581CMRx7AyiK7KB0szSxMHjcC3GtY2oxKMyZzwlksvIzq7ODoU9HJpea47eLnpbxnHGC+MlnrAw7GFEv/F2Yt/7eT8m54c7PoIDbkNIDNtenZxtdsLd403xkp+6viVQNp7+i2v+h5QM/aR/BRqW5+qlhY1jmVYy2oZwyyTYNFztSRXM3dh8hEvzaiTHJQ5ydfy5FbhmOFh++T1cFvQsODZ013kwcNjDMMQ0ZSHniKOKwBEneXrOPHEbYBzGm9lJgOaJzPVm/jBW5/9CzEBfSrbou1ELWtMXl8VGu5y1YOWQumzFs1yUp3re9xk3t6RJXjs7PMzAxFZaIYWkbac1t6DhGGfmmjHUpRdXHrXhiSWkhO8iyvxGWmzhktvCam7yWLzw0fG4j99+ObPvvkVX/S7z/oMR28DnJ49feuoqcjj7d1eMf6MK6UZ33Vn+qUtK+GotHxUOU+0wvQQk1kuLleG3v3Mi6fcDNEaLvPSX8XNsLsv6GfkbiBOIkbcFOOMPTz4MFgHYjjAscd5Lr2M2NyfE8+9l84+cHL+bK+QEf1tLmR2KzMZiMv/9t1/K0x7/vm2hQlpC5lLPkJWHlNlZd6J+KgrW5nyhbOWT1eB2HmPz/zRiyEdrgBEyylXrzKGHyRhhaUou7j0rg1JIGUfXJV4s9vTwxfyJYzaG/olTnPl/bexr0//n5cgbyiMjhu9DdCpOlzUG+feOKG3Y5zWnekrjUKF3nLJd2CZrnVFgmNqDjEnV4bevOWlOao9861c7iQXX4M4cL2CzDtP8xxagxiGjLHzj4MDIg7PPT5NDFHnSMXXYvyJ4Pd9/Ve/nxZb6WdA86hfe8elfvmfOViKT2HjNsVdAvo2aQ5ZedBfg2bR9To4XRnzyhmx+C9+SmzDGT81HmmDRkc9GXPYUB9syiMO1YIRzSBp+VATS7vqW/2pg2Ihtj4WQOKrEm/6PT0cI1+DoTXoz3HJD0VNEEaZy/8n53un71DXS+3ibYBp95fa1DqNlwTiPeyNk/SomxsvbKuOlcmLsNAqF1+J7QiI9xCXyBMqfPdmcjWTd/FDUG6w1bgduAUgPcfCURhzduYYmmLEWuS1B3AOBsLzup1+jgSrPS55QSUGir64+cX19jaAJ2b2hwxvZSYDXP6/YBLbxNIulLVg4JY+cZ97M9wmoqlFOzBxby/eIJPZ1Kv+iBOz1xNP6I05LZFH5HEFIHiJpFNPzyiyKO5Cl0e9ePE70NJ+ELT6Q00s7apv9acOigUSTOmhEq76OS55Rtrs4uhQ0Mul5bnuoGXGwzZsz73882/+7V/77YNMXEMj/kTw2YN7P3lQdzVeistXFCa2jacMgi1HX/VaFm9R9aDP7YwuTHLxldhOYLhWH5kQBykJR81NPuKmKp5R5jCFfC2XXkbf/iQ7zk3B0+0ObMZ5g4LMwBCU9A8RRNqXePYsPZxk+RyXvEHM1ELgRmTOFu+9cPndtXpbmGRglL5J7R0W6Ol/Nrgxp7QL1RxruM89Zh71cfQJspZo21XlZpCVZVIveUEcY1HtRzwcDfU9bjJvHxGhYTwkgcF1kFAiMi2PtCCtPNIOhn00sJrLLp51j7I8cVgEnmgl1DwtcSU6I8Gt4dLrIbKjFMbBLm0+fuMf3Jaz/+iW/4ngn4h7uys7yjhQergj37P39GlHEQbx3+Gn6AyCw5Y033qIC8mxrukn1/Di9RDM5mm/lkvP0fIO+vbJIXGr8DN21UeDkla2Zy6YcNTpmerFhwij3ZijleVzXPKCS4mTOVO9fHL6zu1tAHLWL6RqK5MMnJ9x+Z85xmqxNNdo6vW2UqDLL8ja4dwWe5x1KNc7N0OrEb/od9AMh9zqqKdEZIHiU/SITNxDtL0nCbN96ociv5K0XPKjYeuARFL2QU9oaie+hPigfgmj9uq/9MX+j8v/Vzd3TAvcBogzw5VWd010zMzkdfaefqvvoZSxqWG1vFbst1CmyWhFwzRyuUjo6i0v6jjO5ua4zKtefA3SJuvF9smENg6ethYtokhnxrAwyMVtu8B4Fg+6QiA+Toj0FNGBmBOWO5bNE4/Ftb0NQI77RWns195hKZf/2YVTlKQ1yMqR2435cGVA8hGaA+drkLjQ6yABZzl9GDhLwUNP3DVMbw5pNfQsWg2c2qE+2JQXv6o2DDuDYBcfNFcuTQwWgeQknJIT33JPtOn1EF3k+2BoD+3muORCizEu/3/Xb0p0W5C3Ae6/cO8nJ/Hk/FKZeS+fGgdTnT3Tx45yziT2Isx1peoqUOdJMdLjuEZu6N1TKPDsu+WlGSrSW0LM5nrxRbSAqKeh6zWcgD2VCdUgUjx4HHbyYXDgth2w9sXDDNImRyreQ2QU0x/cz/NsVmF4e/uxuPw2wPY2gDIyQlK3lVEGzs/e8cEv/7cu7eM/w/luKIzmooky1xxkbaIdv14/4qYlbotuv8etoYmH+sRdLg4SR+E47HLTQR71sdOecpeYnuozjx5hgvqITIjUHFc5XEUZFC9xDNRbJbqTZ91Vy9GNQZUEUiSvXHLDmlD0Frj0MmK7xyUHVdDLpeW5jmWL5ezRa/9NK74d/Pzs8uLkJyax7MofDdTvBmfP9HMbn3su4CeK7IhfBZkWmt7YyVzDp3pDqnNIzpFRVB/Mf7M5BPvw5La2w0aW+/YGv2YYuTgNIk22vrNgCuKxkHixGGpDhP2d/iSCNqLCpddDZBTiCnBseQTcdLjol+bA5ZN773z/+77mj7O8lXEGSO9WRhk4v+DyP4lRctYgK1fWG3aZmsOx68QVer4yxSppfLgyQEXdZlLfcG9nBipir3AMexw9XhzX+h4nLuw5sgSPnpTDGedoBAcpPS55xrCPJNqxFGUXl97RcOKwCGpiV3AlPiMB9rjkS0gdhfa9YrE9vfcO+/DO+YxCr9FNyeJvA2i++gTF9VI+Sz9nz/SVB6F3RV1v8Yr91HzoIa6yXDyFQDdzEV2DMkd79Ndy6TlaACAGxlzbE9UHr+NkDfxMnvbFwHBmHwYz7+/03WOJnDZruPQKeqKs3QitbikhHm/PnSqwTbk4efTaw2+N5e03Z2D7WwA5GyzbpaKXf+13PsUVgLbqOnjsOocJO8clHyErO+vMGrTg87qER3H1axeX3oBq0cNB63N2aVXiywApCRow8dVoh1z29P8bP/TBW/xe8/nZ1/8vf/nvP3nj8QcmE3N1P2+R4jVPa5lXj8UPQdnQeu28Z0iKIwUJhwbs9Hfv7Ad9WTgqZvPqmHBPR6f3Lz/zC7/0a+951l/O3DPsa1cnnVtJGXjHr37sGy/vncW3/5OcRSWrRam18jXc9yG+K9aRO8jMD1R9F83B6n0Q9tDvIB3L8jGPWPzX9cS9hbWbQ/Wgj0iHngbjN6wfzoeWsdTaa+t3OywWSDQlo3bma5C2WU98DaJjgxKX/89tFG5ribcBiHUyMenB/RI6eehwz4/XUJm6mZdVfyi2E0K8h6UbdKdM8/F0ob6JQ3wNyiwm0BdfRJt/o/rCMeDyypszfeQo1IjhshTygcfOP/PdEWLDHXSQOorVKzEtd3mq94QUjlnnCbGm+YStdo40nLcBttsAJGpcSO1WUgYev/D536eN/Giumo54i2reype45jQTl1WaX9cfcdMSt0X0utwaMt/dDpi464uD9KNwHM5yOuX1cTiC3pi7xNpH5LrBERg9osm43nsQhsKz/6KnElbFIr6B7eZZl+XWXls/UWgbkFjKEtaEFr05LnlGbO/i6Jj/cvnfRuX2ll//x7/yt2KiWN7oF6Vge0+/5dLLbSbLLmgHyYXrftqmcMIUYiVxV1fGDUfNW17MYEJ6MruGJ7dz4fg8yHrt+i1e0SzpTD6GYYgopl3m2bLa0Zssn+OS9xAZxewoEZlX86U+89JM6hnr/HEdGlnReqq5F1KXb7cBlIwBR8MxiO/q0vnZ/Yef/WaSkhOTl8mM+FVQc1z2hl1m2J9wXzdikvsuV9wmOnPeV2ZbwWKlHjiCWo8e8Rd9OjLLS2C1vsdNxmGLdvKojK8ItPVETvEeFBTvYcRHTbRjKcouLr2j4cRhEeSE42yJK/EZabOCX9x73j7+c/ue/if8XD7x/d/42v2XnvtJHzD6RdmFoeS/zI0owkJH0A7GqHJMpLqEuKJeLlteqjG8ZGauXuZUP8clz4hD56zHxcCYa/0O1Ppe0QwMZ/JhIHMdHAwJUCKEtBlFNMOl16AnzNo7Wl2PZ/NyK8Rb70yfNr3C+tcrJt/eBpgmZi6NU83PdYnd+/en/8vl/zyN8jJpEL9RtI0om4DYddqwidsi8pazzXX9jBawy9cg/USvgyTA5VYXZ/yBJh5xow2PHpTIrDZztL0nCWkfRVholc9xyY+GkwCKgIRS1qAnNOmLLyG2rf72Pv1PgOMSbwPYbKBflF0YSv7LHIgiLPRQ0LiBmJxD7Mtli6UZKtncLr7kbi6MidwEHo7NL08j3A2LF7TItDOPdAdnZ4982OlP+eGJaRPV4XSIHow61nJ0rHSau/iJKtApy0lU1z2UZ8vZ9jZAJzc+PB353RPZn1Xl8v/ZxfDXVdvkHIvLziHI/LdV2MeH9mNergBYveQjtAbO16DZZp+GpxZZmbOcYAYesfmv64m7BpFhsYNYGXoWrQZO7VAfbMojDtWCYWeQ7OKD5sqlicEiINGUjJ7IJBdfQmxYfVz+h9z+ErcBFKdNAgp9VMnLkjGpDimT/BcjkmdkPsJxVbBymlEPpiJ+CCY3cjdFC2CkJ24OXV44DT1t8Kio6IqmMOzk6UDw4aAg19t6ZXZGiZhGVuqxhUNKB5UY1Ys7mn7mBA7HTIuIl870u3PGnZotOSm8C+hcnDx+89GHutV3VKgRvaPdz92Oy//MTk0nobSOxWVnH9Q6w1pvq7JH6e1H3LTEbRG9LreGrE9uB5zjyK3zqicxXW46yKM+8jflLjE96qMHNOnxEpkbjFbm2D14j2hWSstLHKo2jPaDYBcfNFcuTQwWAQmm9LAmtNQvcVN5u1z+p7uUT3z/T33WbwM4Y+ys0EeVvCwZk+eQMsm/GRmmi6ZNRVeXK8MuT3HIfEaZRw35Wp7c1naxfg52nBOXGXZ9W/B0wUNgyEKRYynx4SCA+tBThMGJOsvXcuk1SAJqMbtwmWch8+hA1NMGPUrB7j39qqOFaHLQr5k4u3/x729/InjI3mj4BvHdW3rxu9/7Had69U8b7ZVpaJM4xyU/BJn+ud2wC9U6povxhTPZWbNspQNZ9yo3Q+KOcxw5fks9AcxycpXre9xk3j4iQoPIjHmElUekoclvn0ueMewjiXYsRdnFpXc0nDgsgpxwnO3ipvJ2uvwf+Tu/ePTZJ3/HJ0QI6EVZEtaKwxaU3x7iAnkP8WZyNYNSxNegzKrdWo4exfVt3J2bwzE3uQnYWUd9cOZJbJZAbxHGLPLM253+NBE1ghLJWi69gqNEETByK+A4vIF7h4wunum7lev5Mf/DR4HOSzTX4+rtYnVLQhmpiwcv/8f+l//q3m79EGruq8Ucl/xG0Pphm4bYmLBG7uDe7aSvNKxG67zvyzrIRoGJRr814WKnDw9JH70H3jLqMzex9zBjto98KPIrScslPxq2DkgkZR/0hJ6dvPD+r/zBaPz2+f2tj37k78aIK+Z21kt+IJJOTageYrZ1mfhkeEoYkvdQblDd5X5Xva+PZlDrl3hF88Dw42nAiCCmxeDBDxZ8XuWDgaG+nyhsu4PDEPMURzpiyxHeTrPLZ/puNX7adSWcJYUDFi15cRvgXJ0/wMjnThMN4+dOjw7piT0A6E//2/3/s1jbVllpk3csLjtCBSO+D/rGoqzotBvz4cqA5CO0Bs7XoNn2jVkHWW9921CQ/gw81kP/9Xpx1zC9OcQKBzl9dHGtD8Zv6B/Oh5ax1Npr63c7LBZINCWjJfT0zdd+lifro/Lt8zt6G+AqYSvBPbT5UqZHRU8fckqabyGYH/+eedpkudxJLr6IFpDXm6HA4Bj29YX6ojBCU3CeImjP9AfOQQKRDlgT4u17EdIL5JQFzAlAb4lnN1htz/Tlxl1mgqBTvE8mF1bnHd050SjeUNpuAwzJWjEKg/Ln6tKLH/mdb+fy/8XZ/b2mmOaW8nIsLjv/P3vvGmPblt13VdWpe+459962uzvdjuW3rTjxI0njtJAcyQKHhNhynHRME9OdpyPHSJYSIT4h+EKBkJAVwRcs8SEJBIvYHZBBMWAQCBGj/oCilo0doiSEuF/udj+ub9++z3POPacO4zfG/M811txzrb32rr3r1K6qqXPWf/3HGHPMMceaa8712HuXsPUv+RzqXGQWYcph6/YjblbitutTU49bRROHH3CKI7dgpafBLjcb5KEnsh53C7OLyMdPCKJHuHD/EZk7jFry6D3CrJbQVxpxDHQtT6a+2/pr9WsdklhKD0329O7z/1UYHN7WXwOsTdCaflFfhxPTzJFTEnpzLQ8r37bhZHcYbMJTM7UePpDLj59fJojzB4WNZ3F3AA8BQM1hMQ8uj2Emz7LDhoqSb8tVr0G5BWkn8wi43zzW7af3vX/4saK6wWKrcyDLLrqf48UX59Tt3waoWfXDWtkN3eHxf4ziGN9+tu4xF23Sp7jk26CmBLpB/WHJ7PHhSUDYJ24nqk9efu4XuTn0yci8OoqDtFc4DU/yaGjQ97jJrAVzY5OdWwanBwOHiYPhKPSZS54x4kMS9diLso7Lbme40qAJLLmH+PhfOfHXAPRrycSu/vfQxlE9QO6vcOSUMs6CxLbnBk1PPuVe9lP61LwdqnKxaQ24feU6f6RP3B3AbYcTyUvhKdLhTh8z7LyFglTaAR+aD3+Zyz1NzTWPnr5gr5L3JZvCmoMpgxl5jhezzC2G6tp36muATaKbafxwVTc8AWcnfCKUx//c/TNKfNzU0bKfA6uxKe9TXPL9ow0DO3GZomIpTdx2kVd94T5nYZ+5Bep8CVrnSbNVX0EOgstNR0SUiGzMJR8wehARh4eo7z0wsxajnajPdijR6jQfNDvaaxs8vXuwj/+VEb4NcHR68t8Ms680HVT/M9o4qAOBKnBKB1UtDFaPq/RzqObwgZ34Eozzw+pZRQ/PdnwaEZrHLi9yLfKgX0zgqESwuuj3IiLqLBdfiKPEmJ+h+bFbyXtuXWZ1CUMl73ufTCH0RmR4QRzFTxv2n7YLpnS6kNcA7/uZP/aikRtdlLYbmoSzcx7/+2//+2pU0qEBKlR2Wi75QmyTvS8uv9tgLMpx1lJ/zO0CyVR+kdBDq6A0rkXzTTr9HG2QkzbLSe/A2QseduJuYXZTSC0i76OLqz4Y27DfHR88TeypQfs8yuMX3/OfTFgdiPjs/PzJ018eBVv7V6RzvIwnjrOXMi4K88ld1SUT3wZpJtcTH6EN7B6nosuLnhPBpwuhGYhHrIWXFrXoa7EXLyO/RDZq2WSZ47XHJS+oDkKxF3dseHaHXtyrGoGr5Lkx70sPWi68CGvjIV60VbwyFu+5tvi8KcUtbkJeA3zbd3/PD9z0rwTmQ6iU3ij0x/+MEgatBqZGjbgy0nLJF6LGqsz3xeV3E9Q5Qh6Y4nyRJ9ARNytx0sUM0OPWsInDDzjFkVsT0jMfdDlhEIvrYxFf5S4xu4g87vypl3n0rETmDqOWOTa7kBukEvpBcFE+eJrYSw28+IFv/V8mrA5GXF8DKOJIczmgJsycw0AZDoernRd5Sk8ZD16jbqTPKHcY5ebW8U445mAYf66H246P9xDENFLktDgs6uMWYzoZIpKdEhCcOjiW3VIuuwaVGMRxQiX33oHE3Sh4MS8Sk5ltMXdZdCbUeb9W2NHOKH7zqbQUOcchp8vFitOwmHkw/m0A+wG4HUV2kG5yPg6yAxcJ+n0/8/F38fi/nr0+esyjRtGIS55QjctOfMfYHqQpLvk2yDmS62mppCvIV7ifTLaxk92X2MytAnNAlU9x5Pgvehqa5CWQqu9xjzMiLS9zzF/mHhEtujwwHA1PDsR7GPGhIY5c1vFsu2T/nXtf+4svv/3O2/b3qS0rh1v8Gwy8BuDgUvwAFmy5eso4kB02cNDKNojbXG8px46Kbu/jHM54AgKdm8B5qRDTh+kr9xp4s4J8ikuekTrbcNUrmBOAKPM17sef5qeyFepQhMH2t83x0krmFoOPF8TIxUFshejhVjhex+dPP3L7BCDycSO3b/76p384Hv9b97UKCTWKKvdRE3nSaFPWWi75jlCDVu6muOSXgpYXpkBPD7law2U3QgvU+RK0zpNma2kFOatdbrrxnf+Yk7+sZzoI3kOskWeMdpCE3JW+WccHywV71tHn3vzy/3509ivWszP7f9glXgNYN+jJcKDGnC6qp4aez5aX6pgq33Oo5mQvvgSp43bWAOjjuwj8dGe8Z24ROR+hG8R4ZaCXBMTFwpivJoZGo36JoHDJN8ShubFbyWfcjT/Nj6EVQqMIneCMIgy2k63inEBv0WKZxRSZHw4z/u5v+M6P7iS+A3Xi+TrQ2C8cNo///Xv/ZIGzN69GjOwRNxsfNR3UgJdekbVc8oXYHpxdcfkRKhzxTdDTVmYB6o253Vf7STmBVqFN+yQ33344Okj6rZmqt93E0QQPO3GvYXZTSC0ucvro4qoPxjbst+de8/S0fPr/rHU3OD6gvf/7N/7R3zk+ffrAQ450lwNkkHtYjmPumtTboI/H4qxpthx12o+LvKovHAOvX7nZhWAFo4miryMAPkSwbNGXPUjpcckLKjFQ7MUdG57doc8cOvu9ffyvK6PG1xmHXlVkLV6wjg843SmoAyju5k13V9JhLorbOu7ufu3pj6jpm4gMgZtZ7NP/zz1688P8+l8MppKKzOuosh2XI8A+c9KX5DmbdfRm4fJ9vOayKy4/QrUhvgTJlttZXphC2a5ys5KetJG7HreKnl78YDfFkdNu0dNgl5sN8tDHIr7KXUKLZhY9oMr4iUDxX/Xeg3DsLYhTM0p4FStxDNRrJbrC6dw7d9/1i4f44z+5X6N9e5Lx9PzOL1WZHTcv5fhl+VT+JAepvg1XvYwxHnWccWzjgbisAezEK1rLLObUcPBIlvKwG3rgLZivLKfRHpe8QSUCMfVGCWo4bikT7sd3+mYke9XxymxKoyTpoqV1MYrf0z+K181T/OIjVIRm17gbeFHwGoBXwRftxqHW97wdavAXiZtP/w+Lv3mKszkNtjJ6/KSyNGlWWOFW108E7Es6p1ABSy++Y2wP6hSXfBvUOUjo1B+W0B4fngCQR19yPb22gZsDT695UZq7HDvaK/Y0PMlLYFXf4x53RF4uX4iAFgoW/5UjD0eDnXgPoz6aqMdelElunfPH/zK8FngW3waw48Ux03Gja8rDJoiLbL+Uy86RcecBBOpJwDAekz4qlNPb5H7+gtEDcRiRtTw6TcTuqEHqZPkUl7xgTgCizOVOcnGQIu77RZh1bjS3KY1xkm5bVLWHOT70xr0pkPZabqKeG0xL9ZHe3auC2XzTd/7efw3bm1jIxQ0sZyfx4z/WdWUgzuYx99HDaMOuh6ZwuRuYXeZWRyeIUJluueQ7QqLJZYpLvn+03FmemFIjjeu57JTetWgdzum3FoJ3kOPpetPFHX8gecjcaMO9BybtIdbIM1I/irDQKh9z+5Wy49PXD/nHf9SfFutrAJJc8o+N8rIE4/iEZ+zFlyC1sl2MRxPawPLTsUWLLE7TjOFhkIvbcWeAlhb0hEA8cCWCYi/5hpgTljs2hDFutufeZVS2UqAiMu+T77DZbdkwfje3GLtokeVuE2jm69Lz9J3zH95t5w7Hm+fzcMLdTaT8AASP/92bBr5ci9dRYzuj0SQOmkKrDmfOiJtDnUDrUG3LTnxDbA/mvrj8boOerjLLUH/MyxMA00uu9K5F85XTb0cjeAc5nllvJomjCR524l6DyEzLxUyL1ELeRxdXfTC2YS9+fvT4+Rf/V/8BHYmuC9rXrUavAUq/1P8l6OMl1ROfRRs46Em02zWcgeanXYtWIU7HIbJhkQ+HA+ciYXwRUEZUNBwR2H6OFB8eWQfRUUw/ND/Ns1vsM8cNhc4gV4nOiY11klqfogil2ACbqq1L5yneFZ4jMDu566HcUAW9+Dq8ya8ByM0NK2cnfPrfH//T8zYD4hVtR6PJ7cWLASeS6wvikFHs8lJxxM2JRrkjTktpueQLkdZy2ReX302QbLm95YUpWUsoeRq4WYl7Oie4OfL04ge7KY6cdoueALrcbJCHnnh63C1o0fQRMVXGHDlF+oGXlovejXwT9ok/evPvXodP/g89Knv2mZuT4zt/u5XT/5pv29+Eq15G/I8448kEMV5oIHEMrUW/Yy/yyl0eenkMP0OE7Z1+cOqMIpjgsushMgqBBzi2nIAoveYkdwNszKiYu0h1nVgjWac6u0DiT4XjkON1dYq/cuqYXNUlB2WOyRyXXUbqZC7/N/U1gPpPXm5IOTuvj//neswooeTRMsvN0LMJ2k7MFuFgxE2ks8BRvIMm8iI78R1jOwimuOTboNJI6NTXEtnnwxMA8uhLrqfXNnBz4Ok1L0pzl2NHe8Wehid5CaTqVzga6kfk4ConUopHXHCKS57QAr0OP/5Dj1aKPQH4xK/++v/m8nIc2Pd8F9yUm5uhPuOiOHB55Rov0ideKvidPPaZlyNJC8OdvjEGmrc0hQThERSc4pIX9IFj9UZoutwMppl7vCZbaU6KoqPebPFGZy3WKuViCdLN0g837/HSYM+duotJcRNpa7jsMlInc/n31wB2kYr+JhVycaMKn/isj//neq7MLEYz9NE4h2YwWo0yt2D8rEio+CQX3zHqJJDbKS75/tFyaHliyvZ0ccqu4bIboQXqfAla50mztbSCHNe40w8kTz0u+YDeA6M9xAp5QWv82n363/uWNnYR8OTx049FPul95BsLz/sFMMaH+TFH+HXuDdg4ymgtxekERgSr3I4LjkqEshPvI416y9uhDwSrnzHC26I5xZFCITzvU0JkuyoetznLOBN/7iZp6/IJd4SM/Yz7tXp8KEugvwa4/9x95Dep6HDdmD7743/7QyuLi0aJKkxx5D4qbWc0OsVBUzDbaHIZceqXw9Gi2pZ8iku+EEtr1XpXXH6EakB8E/R0lVOVemM+PCmQfIRWwfkSNN9+ODrI8bSjVvW2mzia4IHiXsPsphBrLnIKWuMn/vjfBdd289z9uz9X82m9jP6XfBbux9n2u2gHdCQvHEcur5xFHIcNphaHRd7sTD7wuDjIfH2E+KBBSoshdbk6LDtxR6uXeR2QZozc+1MQaL+3b7JavPOVxY7lwouwUS+iiq8YV1et6xKv61PclVO/6S4iue+h3MhOfCO0ALCnOBbORd5NfA2gXERGrvvWHvHEb/9v8PPPbYamuOQ68TL3k6EI6klt3Ec5aDsud8OGp4OCXS4tz7oF+423evKp6rZ61RO2/iSfQ7LlessLpyzbVW5W0ns6J7hVjLSbH+ymOHLaLXoarJxOiNsu8uCxiDt3uXhIFDlICYwe4QApPTu2T/9f28f/3nM2Zyf+GuDkyetDvjyNJQ8l32YZeYmKlvaB+/FueDlefjqg9woFrabu4F1ePYU+L/KyU0TBiWEUwQSXXQ+RUQg09mJbeHXf4aWa22NHKbjyvX10DHBKdDb2d7kdxV+aq/F3uMdSAijdU/xKh6pjpeOuZuZ4SYO7k52am+Td8WPnof341smd4xv3o0DKczlC1xveZ4947jx+2z79v8Nu51Go0deij8ZiqNHOCephgLbj3A0bbs50Uq9DHT7Zie8YPezkc4pLvg0qTTRDfS2ZfT48CSCPNrVHOpka4OYg0l3kUxw57RU9DVdeGp7lHmepj70VFnddBIjTI+SBbE/Kp/9/4HVsrm85Oz/iNcCDk/9JfYwslDybsOUI7DDY8SOPYTDmOr6BOt4VzcGwyIeDzNtFvxOBVfIWC+KjxyVvkA5h72i7PZ7doc8c2rvTx6ZXGOj7KHLbQ7rXxC3u5uhLTD1UdzHJbtZxpUD1Z3kdPzGOhvEU4+P88eOj87ce/3j8KNCZXJWory/cmI5yCB984h//+TiUGoY7OLDK4FosBtXOdny0z6EZjFajzC12nexCdaflku8I2+xNccn3j5ZDyxOntqerg7N6C1BpnsSS7qoXz2j7fnjxh9y5S4hohZva5VjehMf/9JfirwEMIz9r0NKHnR+/UsGHtx2IEZLfEJTTIjiLvU/2HLjSYssl7yONewTboR9+qz80b+5aThtWJprp3unLlnreN3b2WEbxWzsNVzc9gtI9+iO5Y6mGTY/TJeTbID5zPfGKZRzEPGDSzMu4wTZeA5zh6kYUHYcb0dl3Xnz/Hx2G3p663A6dKV5Hq+2MRr04aAqfLIrBiFv8cEqLIR3kU1zyhVhaq9b74vK7Dcbcqvvukj6fGiwdhlXvaS7cGlKaJ9F6ndNv1YN3kOOZ9SRs4OwFDzv72+Q34vG/d9s3/hrgNF4D6E7M80Ne7ABw3OM4DZwE+jBHXwyEXsEM8p09Gdbi70fe63lF8z5cLGAHn0ZTRQMziA3F/MThLdhwH0BhttIs4rk7fe8sbXQKydpVkauC1TWc7hRU/JXTftNdRI27WW7V5XZjpC2vbwGBBLqCnv+hYz5e6EAMJGod3X3x9McP/S9wekcWbo4X2h242dkJP/7z1j/87GtXsiM6qRTcCi+DFLkXcRlmLpubhZo81Gtf7GMKcNFGnMnDHDKF1IsGeEqz5hK1m+aQmLyksNZ1lBTbmNun/+1P/z7823/6X5f+JuAH/u4XfuH49Pgj6mtKlycs8l+0ShjoRYJVHsdF+h6qzqhFE67jqrcA1axMxcFDKIpXsYrn+Nt0ydZQ5hIt5bLLKB9tc7NcJ6oqi+PYi+3oBJaI44+dlc9//pNfc63+Fkft4+oOebwB5ezcH/+f6Gue6naLl5gKDUaQMFZ4EbjeDHwQE58JNHjBFW4ily9AM/Eie/Edo7Ist1Nc8m3Q01QaoH4s3iEYeOS0LurkzvK6wq1CpHvBEwJrQofD55ApTij4lb5whDfp8T/dpvAagOPiwxfw4+A7JZ8cl4H7cSoVenf6kdnw44mOTOPA/lNRaLtbcdUriDuKo/nPXM1JLw5amb/TD5u9b3O8NJY53elx5NgmfTaTG7qZ5Uu57DKW5twf8srzeDHhePyYZdbrBHUHNq7EY4QFpwXk9s9fA9yQ3wS4IU8Ajo5e+HMf+8TR8dMP+hGuwzMG1MFsOasYxJNYBrGfvcWwDvaD6eWlBrr0yUC9SLC0kl6ldTF2DhvH8unTk9ff/IV/9u5r+et/a47k9/3i5189PrrztXm41vHdrauBr/yLx6Tui4AdEHDNidL1fmFhbvbCzuhCM9jmk3PxFnccf3ZXZqPag3VcnZGd+CzOnZilZb0WEmqcVH5+cnTv657/5X/wQ+/9E7NtXRMl+b32xT/ZeXxcFn+6q25PoVIivfgekLMklylezybbIawVjtwUOgl0RVu51UFPaTGkg3yKS74Q2+ztisuPUOGIb4KennJBSL0xbz4zYAZK58Zovv3wJCRufvv/Ji7+9P3Jg+OfJyk+HC2hI7Rj4rwcGwa837kVrsUeuWW2LvrLFv8NRgjuKY4MgKBd7gPI9MX9yp2+msVFdK44mwAGGUVYGw/xou0oXnyVWj3XdA+54oRn85avuhvZ40buNkWa9fqMC4gVR/GEroSTU0PPbebhyeUaH0JFWPnJ+dGDLz38kZvybQDl1nN4XTfDp//VwzwckbU822l/T9gegSkuuQ9yi2WFF0HVG6dbGKaTYpWnfmGXS8uzbsF+461ODqq6rV71hK0/yeeQbLne8sUU43f4OBpxsxL3dE5wcxRpj8Wsphu/1JMepF3nobiJj/9JM+Xuu57/H/iEu0++5NnyQoY0GYvHkQr9cBEgO+pQ0TMLsbINV70G5RbEb+YRYL85rK1vtWCbaOms+XPHYZb3a8UL7uR4cZV56U5Ol0ejOIseKnmu3rpbx+UnI3VmuY8LLEr6xB2RWkTkVnJxwxhHqhl2Gj9CtHhu+bf/we/5CzfhwtyPayTh+m7P777rJ713NkjGw03dz3Isszxz9inSB9vrNsZ+Gf3W0uTZUgyr3nY8TNB2ykniDkac7pT+rEN1VHbiO8Y2u1Nc8m1QaSJ06sdFQHRklQ9PAsijTS2RTg4G3Cp4eiWf4shpz/Xx6f+3f/7P/bfR6s3b8m2A45MnX/XJlwR6WZ2M8+Ssi4OSyVLHEhqZ3Z4PzZuPcqDw5gesYMtplqLmfd+I5NKBU6X22wzy/pT9lHwUP76KYYm/us7c4nQzUHKqSV7c0B23uyCXn4zmMtJnASCnuF4cLCeY6zMPQdX7iWWRarwEmj+fr6KDGj9CtTjiZn98cmSvAM4UUphdw+017yCf/v/4u+xn1j7og8MGTwwvjqS6DkreQ2yR59LyrNvxfg4T15O8KKredrw7c2gG5eRyx+SncmvL85WQ9imSB9v5ts3uFJd8/2g5tLwwRXl6OjirtwCVVpCCt3j8H/xGbv1HgY5/PoYdiYnJm8m4N2mXAe12ZHDMySAjQXLxhViOi1fHj9xMYc+ty6wuYajk/Xrw1ZiMdoBymZG2S/zedOY0adzNp7BUx7S4CfuGJ7cjuyzHR49LHucPrKTPAvZFeQqtpdGi7RWjhZCbnzJPCfE8jKvaklpMaL8Z84W3f+R7f+7f/CasrnPRcLmmfdSn/62b5/bzv/UsoLsMFkoelnmYS46N0jSF2FCkD7aXrcKWc/EeendM4VjC89nW9mPWHZA8kB/J8e/56iA6ivTBVrnkC7HN3q64/OwCI332BMCSij9xusiiLj5CM3Re0NNhuXvuwVd+1vdv8IbXADHshsXfM2kJGyZrz7Rn2DI5gSQx24k3qPMEMfbijg3P7nKzXtWU6FXyuZD3pQcZBBmDbbZVvKol3rqG052CSlsNgfroi58lSHeznfgSLM1ZPJw5URzFE7oWHgPD4jTLllskGh+m8iKuAxMc1dCiLgZCJzlNsC9uDu0LYy+8/96PuuNrvFGPr20X/fG/jxDrqtB7q673kBGV5eJlpOlsqqeD0ie9+B5QYcm1+CSaQuFTx0+mgpWbgeT0mzyVk87zMOJUKsXzKWLY8qRasttmb1dcfi6CpNfrW16Ywnyxp1MjblbinvYJbo749P8b3/VtH1+Sl+ts84k/9d7/+enRk68yzmJyVqbF6T2Zl3wpl12DuKnF/Mqtox/hfnPUKWqvzlhvufxe8DyQmy6O4jeLHD80c4vPzRWneKlG/Nmc9jbhuM32qZkqx2e2i/MDaUkf5wv58vPGhHRA3PNYuHnU4o2eBRseC3e0UPXlwLQ8H7DQKWKaZH/gxPf2lx78NfA6F47ftS33P/IL31wf/6/tpQ4+qGFNpcyVLukzx7blyCiSB9vLNodPA5krXMmdFwMGfj3pikHlpeKImw2csg7DarAT3zGWaKrXKS75Nki2cr24CIgmkeuiAIlNTcxRjj5Ztdwq+ON/ewQeHm72lm8DxFCKTEamVzPeHoF5HkciMmt+cUfpYW4Wm4avfJpfNhnZ32fpxU17JU2+fkEzV7eFxVzVhOruplz1MuKjyy0w5HE+NFjml6ovPOaXYZGPxd78mz4W7AFrImgjWlqAbtzZeCRHJ889+qbv/bnPf0vH4NqIoqfXpjvjjtx58saP+iDS2TFWN0ypmMNydums6yJuscul5Vm3o/25sGliRV8EMfNyVpVzaA6tHzo5cUheK7c2lGehutZyyXeEbXanuOT7w8ipT3WWF78o8HTaJnG6ffv4vxx8+8GV0/fc/bkYIhwZcpiPUMupl/ULudxM4YyblU/z92yRrZxkLtzNZiruIgdIyyyaiesLKttULW62RnzMHhUf/zRUFu0WreWVRd0HheTmv8wjQlocngCsjaATIXVWi4VmxTZPnn/pur8G0HhYzcI1kIw//c8xbbrb8m6f87Cmvk6bKcSJ2plCNSS9+B5Q4cv1FK/dsZ1RN8VBU3ASet5abg0ony2qbcmnuOQLsc3errj8CBWO+Cbo6SpTI/Xg/vj/Y5/+P+X3RqM9BfnVf/Abn6jfBqjnF1nxjBUUb9DyORSzF3dseHaHPnNo+1v86FXyvmQrOGp8RdsVqIqU4gXLmlenHecpbnE3N/moesutjayXG5pGLr4N4oN6DPAWEWe55hFfvOlAmU+0mPcRM/dszgLhuhgInfSyHbjHUOrFPttWbyILJ3wS1/m1fw3QycCQnkPe88f/d+58kIHn/+mMny2pVy1PqmFXKZpDa6MOJuzEQUrLQxpy7e8JFbbcT3HJOckULnUqLwbOzUBy+q2T2PPZcjVs2Oa75cl0ya6yK9tdcfkRtv4ln0Oy5XrLkz8JsC2ctD269+LfvAnfMVbe1mL6NkDYeqZsdy7DWJqeRNdSuKpLLw5Sehzx7Pf2vWbZlEY5mBctrQu44rNdb0Lc0M07XHK5y1zmhIp8ikuekTpLuOwI2BdQECEdKPNDLKwtpwG1QAVoj0vuFsnOd0sdbzHpBl6sAuq21ZvCExcGXFScnD79ruv8GiB1t2blWuzw+P8pg4+yFMN64VaDB6SdHld6pc+cZlqOjCJ5sL1uc9g0NNmdYlhO5jipS4V0kruDETebTfMve9zvobTZneKSb4NKI+FTPy4CAp9/+yu/dBO+Y7zJoeM1wGAfGRvOg84R6I1bHCjxWd9zJ73GWtvEEExnr1T2haqjXiJS+z1UvPhBb1xropu3vJjJvMWOO3crO+l7iE2WV24BISewFSznf5UXHvOA2Y+4+fdjEJ+bcf8Nnx0HVIgIfC823nLind1e3jFLcr8QMX6dXwMsyFQneQcg4vH/8ePy1T+dqOtwo34pdUuQUYVdD2lUo459SstDupftkvBp2E/KBr075mASTaGTnf6T/8rNV3s8aIciebCdbwk3lyku+a6QRB0/PSqf/j+T2xzKjd3/1R/5Xf8XrwEiAUrNDOZxixm8hziccuO6omxt0GnMrywwKC9YNozfzS3GLloouftEljlduyjH5yhFlhvnGcv5XZ8A+HlcnggQgXEW+3qHP9JbjARJOy73PedNy1hMyIu46sU7WNryxKBeSZAMrve3AYZednJ0qKL6+J8RxWDSyFqK6rjsp7jLNRhlJJ5xZXSZMXqlfx3Kt+zE94AKW67Fe+jdMoWjVRhx5Cao+W859lToYEgH/RSXfCGW1qr1rrj8rEMS5I//z35F2ayx3O7E3waI5MvuagAAQABJREFUu8GUSWXK0eQ9jjnyHiqxjDX0Khp7lWsn4cpClHRLdxVvsW9dOk9xr3DVA81O7nooN5hOpWNjuQWktDmKJ6Q9zvPRnb24RaI7/NHin+Q6MFallFGLLhuPC0TYyM5NOtxE1WexEe8h7pA7asfoNX4N0GawZOmQ4ezk/N1f9yHvASMqL0IaYVmOYcvVfdlPcZe3KRSfw2FwldFmnrBHTpFePKSDXnwPqLDlWnwSTaFwqeP5Lli5GUhOP9t8t5x6lEX5D9Ml23XZ3FaveuuQGMvjf5kuCfvG2MS3AUiN0mPIuIP6+Gu4xof0IKVFl5lQcnGQUsdm0J1uPe7BI03V/lg86pb6WTlVpLddyXN1TOY43c16dT/L8THLLeBcj1wNd/jUthbK+Vvv3P246E4fdbRQ9aXFzHWRgMeIKKN8KBLpMpcMTIUE5NImpOXYerjqV6l8/vQnyt61gjY916BzZ+d3Xv9yHCw/se1oZqSHS7js5hDd4qLB6qPLavW4DkcelTSQ5Zmzf0klh0uTmStcyZ0XgzI5xCRRDJ5J/ml7u6Lsq/YUl3wKn/L4/2N/+e/Lzy2OMxCvAZ5+9cj+JGsd8wwjaG+85UTLDpeML5W0K9EK+gK1It1OkOPEQ49bTGVNDHWPl9Ynqo/c0sVsJ95D3Gb5CrfAXF+QQOEjrOevKyzdZkGHSt61mAcijhbFexHoIgGPoY+92HoEWbB+PycE68wjnHEY6NWM61Uh6h4fH38UN9etqMvXpl/18T89SoPSB6f4ElT9OUS3uCjVc6hROIc0mAbn4vYvaDgXNq5X9EVQJoXIP3Ym9+710BSuL/3nOOHY0XZbNNFlFKLIZYpL3kPuo+LT/9nT7X6bgePn7v5sWXHKODELEspwykjFXqJdLkWyQZ7HInwfhTgpbbwNdzMLcxaLm9Zdy3NammYmw8CHsjRCy5FzsMyTXcSz6VnU6+Lt56f3CPdFvooTLXcicjdJLr4A1yUCF6OOd7j7sA3/rulrALp4rcrJ+ds/7Z/+L4OXQeolcyaCdZxK2C3BsBrsp7jkI8yjkPbgc0jlEtckYkORXbC9bBW+nE/x2i3bGXVPHDSFjgt58PwL6U7pT4tqW/IpLvlCbLN3Ec59VDz+X9j4TTU7Pf4ffQzYYY/xANp/5wkRt9/bN1kt7VhAkeeCarjhDnGkIpdaTEbc4nae4q8cH+iLryUoN1Rp07Epxwf+CHASySEBF/Q7eHGLYLT4F05k3kf812PgLajFDprIo5AdnNLykI62c4mj+lRicJLda1+I3n0XB8A1fA2Qu0uXD748fe6FP35cB6l1Jw9iejfHVS8jddZxbCjY5dLyrKv7OgRzWAah18FOXO21XM6lF98DKmy5nuKSe/7NeIWbwLsB2o7sMKy89HPE1bBhm++WJ9Mlu232tuF0k//+6f/bx/9r0+6vAe6efNqTpuOnxDe48r19vDNuKKobbHfb4l4OvTniQm64wjFMcXv1hqs6psWN4zqe3NR61JG/RXoLeLjDJ4CG49lzqTt9GogW4s5/aHGey66HkiliOKXlIR1t5xKm6uswNyXb3Aj9tXau42sA0ndtCo//nz733Ae9Q5oA/OBpEJtmjnP2Zr2fzVYny3He45LPIbrFRSMR5DD1uA6f9JnTUMuRUSQPtpdtDpcGMle4kjs3g4q248ehGIzyjZ30VLACX4JhNdiL7xhLNO5V3b59/L88ycd37vzX/jkAHdbenX5OcnbNuNlHkdseWizeLDGhT9zN4SWmHqoaJqX6yH5Kj5wi/Sy3AF1fkMW68no+mTPkmVskcScv5PSJFnWHLx6RTEWEnEJdb9nZ4k0vcVSeS5iaEWKf93scWVs8H1b1Gr4GaNPRdv2gOI///e6fqH2Qbog2+Ef1xJcgbWI3h6FduNWhmcM8+rHrcQ+oabPE2Uh3SufCpqEVvQk8/KIoJ50fD8nrcaA+9qYQ4nDEzaY9HrRLkTzYzrc5u6U3t4//F2f57OTJmw9/0Q6S/6Na905/lGRleXEjmxvSBG1OoEegmAzFR1iq07jLG5xxP9VsleMz1xevaOdJvdNHmLmfDxZRwbiTbznqaCFQfEDbw7OVKZROejdetiFh0XzYZy5365Casgkvq1zyjJovqHvNXgOQxmtTePxff/2v9Oppc8BbXhcDDnJdTKxy5pLPIe2hX4JhNdhPcZc3HagjGHl7FvQ4TnSYp9AbSnbiO8Cp8OVa+twddJXbTu2W7fhxQY9cvBiMuNlMHQ/8U6QPtsolX4hEkUuJyn77//bT/zkv8/tn57/+0W/8tWNeA9RxazXaY5WdMBZ2VeSqYHUNL8NtGI8xDGuY6Esc26DGyzZIs17PAgY5P1ZQ54f04p5b3eFPIYcgR4YTb6GDspUeW0rLQzraziVOzVOhHI+KyLJ79luOzQXLdXsNkFN0wdQ8y+pnJ3r8X58AlHCOmx62vE4sPrit0uikWMOZHbK9ZossJ46WI6PIPtgqd3nTgTqqJe+hzg4coBcHKS0Paci1vyNUeHI3xSVfQRMoXHx4vgtWbgaS09823y2nHmVR/sN0yVbZla1z4nry8Gclu8UlGTg78dcAfuCLfXuslrjZxobxl8Ybh69yhhk+pc+8yLM5ok14clvrFbfLuQU8fadfIirng+7k4zzwnmEQ9a1F6QMHHglwS7df5fJBj3JpedaV/bmEqXpOFNWyXC6RSZ5tpN8ST06u198GON0yD1es2tn5yfl/8dPnR3drXBojVbBuJy8SvpiYh2eN62Ie6dXjXeKogcXk/PTe0fmpHQv7f+4z6OKq19Lwzr0Xv+bk3/2N/+Badm6iU3e+8JvvevL13/F6DyeqjMT/6L/7+Ld875/8w+PH/yOLC5I1p4mmAy324iO0ENa42Z/eAuGOnMV5KWo+k70uT8TP/fcXmPa02OfVeElP8zFR3SxL+0vcycVSxL1sU1M73/XXAGf/0XX4g17HO0/OM3F4dnL3p77/H54+fP17LrV5zQZqVHwJqs6l4txZd8FAbNF/66X32l/OeHdcOF3Q3W31S8wA4zWXylv507B6+mSwzu/UvF5bBx6yU9OfH8f+0yfnR88Zf4Tu3P5mB3Xxxf933rb/D49+/5/4V45O770wtLXv2d2a3mUTcqcOiC9B1dloPSOHUzctpWNa3IW5w4NMrV8yziXmkkOZbI6Lo8dP/8n/85e+4bsnbQ5Iwfg6+PLCT37fB07f/qov/oyhXDbleT7DT+WcXJSMOtkkF1+C1MFuCYbVYD/FXT7VY+SaTnpIZQ2HdegNVfu33v0NR299/e85OuICQH2SyS0eQAZ0vEuo9Ri28s79wso7tba7w3i0ZX5UHnXcyeCOxfDFf/b5YUi6YvAlu7WoKhOo01m36s7VbcNRtZZb4yN9w3GT9eJLkH65nQUEUhzFE7oSznEz1EVA5eHJ9ePH+d6CPNepbUi6WsYl+9PcY+htlADpxHuYw0EvTt1x8zmU8DyEFnxHW9KZCx9I5dsAH/iFz31flh/q/p7SdrnpOH79d/6MD3prtu3QprydzyrXpNhDnXR0O5+ELZddRmzWcWwo2OXSctdN9VjyHuazDX3mOG25N+Tyt977LbHwS3SL1yMDGue5N+flCUCWrd3XeAvDk6djvjKmMbsTr/Le/OJvxdBb28aMQR7OmGVuw9qjScO7cmyLXuoV3rijSnbfcvnJiM0st+NQ38W7w8JdXloo84cW98jpUE8tyA88FnRapqxyyQPNwuca2a9y2a2gJzRJ2wSh6iVAclXFZmh+vN/aqs4OsD0NnNuV7OOHR39yB+6fuYv28DzzgLYJ4J2v/YYPaSLRGJlC+V+nl13FdrEVLyef2ndklPT0kmekgSVcdnOIbnHJGchnJfLMcdjjR0dvvfvr7ZH/1yxu8dbwimaAw9sWjd8sPym37Md3stR+IaU4YBzHkjrWi5lerwAk0oW7Y/Vz5+jJneeO3vrqG0eP3ng1zo9aYWInD2dMMrewanfK8HaOHFvpM0dupZi37rbi5n7kD05xuQXU5cjL/OD6zENQ9ZHLYTGPRZ70eQulpeD1YqFE0HIX14hgii40a7c5/xhnrnDkRFxNCNHn/R6Xj11jidfHifkeocUU3wY4a6PbdRR79zfzEG7vbe+kgRd+8u9939HDB78ag38nLvfnhFHkJ2NpQnwJ7i+qGc+cBYzxVeSDfg++zh77H/wpMNP9m6TyCc83Q6991mtlnc8BUEPvyto6HX5SPgdw/thupajHZwAo2ML5b58DuPPknaP3/p7fe/SNf8DG2TbF3EwM32281bNAlefct2eN6kguPovkoyz+K5g6FiZEQ9mohaiyr+1cgvbV5j78tv2gDZMd3z36Q3xldR9NXpbPg5++/fE/nzYvGVuKSrDst+Wa91S/5aNLR53MGM+d3LLLSB34EgyrwX6Ku3wqA8g1mazig/d+c6jl+xavQQaa6cDHWyNb0suT08Gq4+PcXgPwIcDjesef7FUzvwaQDJwbrqilL8PXeRq+4m5m8mye3ffkciM78SVIHbezAECKo3hCV8Lz+d9yi1x39qbyIq4TMziqUYvJVnKz6BynoZ5XiY0SI5F4D3GPvIfUH5of77c6+I6KwpQ75U4DocstTpcLrTJ+4jXAWe6F3B4MHnTw9jWMEx7/n9sdhDoCasxxFLI8c/Yp0gfbnGsOU/2WdxdtRpOfcARgEUxxyTPS0DquYLDLpeWum8qA5Kv4mMf+d5/Pnm/3Dz0DfpiXjJfS0fY1gPqv8Szeoul5AnB8p4yrfMJQV/ykeQ0gPxqOmacTHhd1AuA0w07dSlzybI7pJlzNZlRz8rPCLcAUjp///vhdcjpQzu/6WN7P2/RO3zgLNvq86Ie9WsTNqCVTiEs3zfGS7YPblo7loo5Knrncg5JTN8vlS7IpLvkFUWHKDen2eIpixC0mF4PFzsH5ydHdFx7/lUP/KmDpttJxWOif/rev/pVj48EzjlqOAjnlohheBj/ia1EnI8hoWsJll5GGlnDZzSG6xWXI3KO7+atZix3cGl71DDCucqk8yfkcgD4LkG21cGeZ9qufEPAEYLUUGY/Q5MueAvBtgC9/8uXBfBiGxZmBVdXppMncOXKshLY7UX0kJ5JsN8Ulz1ia8/rIK7eAnPeQ/GR54Vp1tMgHcvrrYmDAiDi3qJbn0MNbtskJoUbmNNvjORzpJVOrLZd816j2C/r4IGy4xdDlyIkj64Oa/fnRk7dPv/nQvw1wWeknjTsv75w//Qtyqo7sG9v2xNciJzVlE2RUZnvxJUhb2M1haBduU2bvvbSwzq3ZQWWgDJe1MfNtgN5FwGxFjZ8w0kXA8Bqg6O+MXwecPndy9Nqn/79SyQAz4mzQayt+Q/ERlmoGo+ot77gf2ff0+EjNQ8ecRRshWM7fEVoLccc+YJy/4pzO0XJgtKCLA1jT4gLulZZtPJFmCm6VgNKMkqRWWy75rjHHb759WrW2V5B2kXeQUHP3qXzo3wZQWujuwZXj03s/FCfJ5kNf424KlYyl+tZ+irefEai8t1gzOrNcfAkSAHZLMKwG+ylucv9lP37l77ZcvwwsnQ1Y/LkIaF8D6M7dx13P2TAeJ18DKKv4stcAD8/t/8PH9dsAZQ2ME95MxP08hZf6XW66rCeaHpd8E6RZ7AmoRcRZ7ucldvk8tki0mPeR0zNHFFwXA6Hzlr25lrswIovdsEr7ZVcJkUY8Yw4DuZoVUpf9liNXyTrJtkCFpao+HkQMKy+GI24xOM9Y6ro58sQJGS6EldcAiA6yHOi3AM5OePx/9M6jXyXr/AGg/DcAWq6DpiO0jsvuyiCj1E/+EtEUlzyjOqHJZopLvgbP7/Lp/+9YY3WrPtgMcHLUaa/0gvHkRWhEvwmQfxUQG13Rep1kj06f9vd9W/DsswB8GPApdfgvPXUlK98GeP93fOPR1/+BD1AzyjALSzKJRJFn6CkueUY5bZtruewcdf5JKO45KTXb89EiDBGtU1oe0meyXZKQZxLYwkbXxC+1vE1xyYXYs29vqg722wD5vFD/DwDPzuPxv32a2M4aFn8OBKXlOljSL+H4yfabcGwpU/VD29n65JDk4mCeLOa47DLicgmXXQ+RlXKsSVqCW7yGGWimBcbPXGmfBMg2fxvAZX0/w2uA8vg/t2ezK78J8JXP/rb9bQl7HI4fc+OnB1jamkNazfopLnnG0pzXR165BeC8h+V8q/rR+dfe+XN6RoveJ2ug5d7h2rIi6KEb2UaRis9gTgxmPR7hDW5bnt1v0HSutvV+iVe5U/zijhZTRRpquB+eEgDu1D1EmUsuLFWO7rz4/If5QLr4IeFBBk2yefzPZ4lY/Fn06YgWfw6AeA+l3wfik0K7lBZD2tn6JJDk4psgozzbi88hTaKfw9D69pjvbhfzJL7dvS4Z8AHbHGCNj9xHfQaAxb99CoAd47BXTz7KOO1+G0A25TUA1F8DvPZKnE8Mc4RC24UTtcsbLvlF0FzWYY8f+reC5Tzzx/Lovf8Dkg8Wd8kjP+LuEs9F73vOm5axmJAXcdWLz+C6hFF1qjnJs/ueLOt3vV/i9+FE22UgiFekXdO7eYN+2EKt6osRn08fvPkXD/XbADr8pOdgyksf+dZ/SX/4JxZ9Lf6BdERyOz71IiE/KUBO2ReG98H/tlxPVFW/5TGJ0BHrCaPdJ52GS95DHPtZsgE+eoNat+W6ZkDjQf2rvJkudBEgO1CfA8gy7Vc/IdAHAaUOLG1kP+XbAK/880/Pnq/UzOez+IWQRbsE6Cie0NVw+meo81B38hnr4m+RSl6WpXrqig+IS1pXJLTYcsnAVJQQicR7iEvkGVWvbQ6eS8uz7gL7pDOXyot8xC0G5z3ECfLiLCOhw7dBKr3z5uk3/6Ff/p3vL64PCujzwZWH99/zp+JwaXEH6YZ9v9hGwPAkIE7egUctuDoOtlyDAY/o13HZZWSfonaCbc7zPIiPlvtkg0KTa56EJOes6Oklz0idNfzuG69gdVuuawb8XGo6p/GTxfv4NkD2n/b1GmDJ+ajztYe4zPK13PqtdDjCy/kB+BldebF0xXBnr0U/cGgx8+FiQPqMnJL4Lv5R+X7mkrly2PQmIKrlRGae3WT37Ld8aGWsy/IL7rfDznmKd4UTpum92wVXuNkoLVNpkJzwU3PQEQ8/50ePv/LoL7rywDbKw0GFfffBm39FCxqLNyW+WqzPBOhJQMv1ZODqfGaAwUURBlvlklf0CaEyq1A8+Gi3nCzh5C7bl1x6biWniWxn9PTRW/YzWI9S47e71yoDvVlB4yl3dB/fBshjkKtd/tu3ASj+GuAt+9sAVnS+gITb45JnpO4st366viDnB3yE9XxwhZ0eZkF+SuxazAMRR4vivQh0kYDH0Mde7HsEEizDnBBqZB7hjMNAr2aE1Mv7PY5sD4V0eiko7mgxTaJV8sORqtOF7G6KS54RN3Pc02YN3nnu0Y+WJg8K6NsBFT79//e+7+nzL7zraTmk5WfF/QlAfCYgLgbiSUB+QjA8GdAdP6gnBiRCchLS45LvE/FNWXtgfFIJ26hQaki+BDmLsNsC775if6pVZ1UK43b3umSgGYEaT+tH5nwC3M8wcGZfA8jT+RP/qDU/CsRrACLjv0++WyKuFcUIrQ3nYDkvukgEpmdRr4s39ik/IccsWhBOtNyJSFEqQvjCsi5BuJHbKcw2ala24ntCS2vEV1C8Iu1aLKinkFAbN4t5cVvtxbtoDfEa4Lv+s0/+IPpDKp6/wwk4Pv3P4s/CTdGPiq1idC0W+Vjcw55FPziIF10EiA92w5OCaC3s0V+U44My5Se0g34pbz8jUHnJF5OWF5CzaUvkKcDdV+0i4LZc4ww004PPvjPdbX7Ep1qu+TYAFwFPbaodvg1Q2lV75QmAXgOcM2zNOVbbIrF5Kzb+J7E5P/wOXueLtTxa/AsnIkzcv+KPFtRiB906yeEUjyx2p7alLU8ENpnPJQjb7F77LWK3x6JcKe4Rt1ic95CYkJfYekhXkG+DuM31xFeQADG0lu6+996Ps3dIxUM/pID98b8FzMLeK/mJgPR6MgAfngzA4uTXk4BVHsd23ZMBDTI89gZNq8dORb1osdUv5e1nBCpXvnrog7hEgH6KS17w1B7Hnr72JYV2i9cpAz4cGLmpcNynCt8GeFL+qh82GngaT1P1TM/vAZQ1fqgn++onXgM8fuf86M3ffv0x4SkanV9bcWvf78wdzWnLOaO937rTp+FocXxHn/Rl2Rnr6VCOMHPtSw+ntDyko60S4cfLNJmr+jrE4ZTNqLHdE0t3tF3iH3GLydUFibHLzUWpPuo+0br9DGJD12U3xSVfQQs42j7M1wDKG/268uWlj/yXP8jj/+OS8l7A7ZMA2Qzy6HLw9jMCLdeTguFJgC4WGDSUJYOnHVyqtw1Sh5Lbz9yVvU07eYuDnHVLuOwS3n3t5duLgF6+r4OM45xL5UnO5wB63wbI9dr96icUa18D6CLAvg1AefNLv3nKUwBFAeo8RN/lNr7dviCLc+V1POPI5JmbZ+cVOV2ihcCBz0dEZBTqesvOFm+mTnh1POsjvKGZ3Fzep/GWLw5oM0NLa5SC4o4WQ5cjt1p+OFJ1Qs7ulnLZZcTtEu7jAmMLFPuMiuUQXwN4X+jP1S9nJ3z6n8f/ev8/F3P7JKDH9WQgkM8I5CcE058ZoF0SpycDLUq/D8QnRQeuxdB2tj5pJbn4JshZmu0L5yLg7qtfGM7K1Mzt7gFnQDNb7oKOf5bt6NsA3dcAuR3b12sAVgDCY/wrzB6nuust7nqnjzBzX33MU8G4c2856mghUHxA28OzlSmUTno3XrZRR0FK5nK3DqknG/YpLQ/pzrd12JT4nVvbFUssK1xyQ0Kd6n6bjpYXNzVt4ovRAvNUZSzzX4wbtIf3GkD5JA9XvJzZz9Cf/pTe/RPsJk8C4o6fRTu6mZGLAxZxStzh9zl2PgiSHXz4DMHwpEB2u0Jio8hfsIvz+hmB4rByn+xosLQ4GuxFTs6K/NS+Gnj31d9aDUiB3uLhZaA3O2g85N7s6NsA3dcAjDE9AUjfBnjzi/YawH44kNGpMEEWZ+c91HgldvTioHka39m3nMUq7MYt4sxbTChbybGhtDyko61O8B6qeSqo40Jk2T37Lcdmz6UdHpWX/og7WnwViUvcdt0cXuJVN3ucbmZ9j+Mmy8VXUAEW+wjQiMmpP+Kj8UMFszh+WP9AHeZXvXifrnqQxMfj/zvvvP2SFmpkS54EYLeuxJ1/WMXFAIu6uJ4MwGMQxEUCBi2PQYZeiQVbrsGKR/TrOHYq8rsrrrlV/ir3yc6kPeQkyfLCTx+8cXT3lc8MJ4mc3uIBZ6AZcTrudYRv2TX3w8iP0n8NIK0hAzN9G8BfA5SPHOj8cW/m1+/QQapnHoIYn5Jj45P+0M/+nX7xi314nkFc0pg3SIVSWi55QsLATOFkrurSZ44Lce23HPmei6V1FEflRe7dsrgkdzGcuAoSdpcXufQ9LG68PvopLvkKemBeLdIJL/NbHFPT9XhxdP7wuZcO6dsAnufo7tXe+o//lE8T685/CrfpSX4iQP2BR4qCt58RaHks9jwR0ODTxYJ4HrS0s4TLbheID4riCdbZ+gSW5OJl8MekiSPzpJPEqF8EvPyZkKfqt7uHnIFmmkiTZLdXW34bAF/j1wDN3wZovg3gbdv4IzomZ48SLOOx5VpVpI9ViOHrHuqQFi/LkHkP/ZjTureQEJmKdOIN6gTsoZqjCnpxuexxuZeN+L6wiZtpgOJoMXQ5coykL9wPF3IrubvruFUf2cMpWT7FJa/IuIEkhHpHyngajRc66OMGUMte4aC+DZAj9/5ezc2Z5fj0p3THvw636cNwxx+1e1xPCgL1ZCDj6u8K6JUFiW6fBLSclnVA9oXRu6Ed8RUcDWoCKxEtwNPHD47uvfwp+7Gg9KnwlQZuBQeRAT/sZXafC1gfBLzAtwFw330NgEKPpprXAIzLWFTSnX+ZnP2ODT08rzr4oxS57uw0tMVjeXFDN1/Pi5nDmpz1TvAS5sqqJlfrMIeaQ9nHfhO/587im8QSm4YT6Icpyee67/ZmO4XFDRDjYVPUOEk4WvzdsQ4AxIp1gMWf8TK6aOQ1wNn/Ua5ew/Sqbv14XNXgFBe//X/y5OFL4lN3/lPytp54xuGOP6TreaQu7vBjcadm5lxEaMiEfP7JAPVlf1HEF0V+gm3O62cCioNJ7pMpDUaLJ49uLwKU84NHn9V7vWimD10E9Ex7ssZv/zVAakMXAeVvA/AaQONNk7Fz/GpS9vGIj2GS1lAdTdpY1JNFbQpZ2Nif5r3uuaz6LBbiPcQ98hapOm4+h4J2lYf0wtshJ+Gq8hK/uKPF2EWr6uboS0S5m4gyb7u/hOMDO8oIFaDk4oZul3kZN34Vgz5z6vsYoI/RC7j2AyNSfw3wu77tB4jlqhfl6urGaVdS8dv/Q4jrngCg52JAdqrZcsk3wfbJAHX1ZID9+ECgPkMQg0yLP3oS3uM6ENJnrpND9ddx7FTkZ1uuOVf1J3k5Ofzkwdj4if3p4Hsv/+btzwYreYeKMd+No9fxztJ9fhugaY9vA3z5Nz8XrTMhm75Owj5Bi2MSkzn6mMTjDNLkLX0sQ2FfHAfgwX0OiWh5NWx3eidgND9Yist9i1gik1wcVMk6yXaATdrj9Kat0i8H424H0maD1bzIKy9uxHtY3Llf9FNc8hVMHfD6cI0XjDP3Y2wy6TPHtpT2QgDxMK7C6FB+FKgcxtKzKwr69P/UHX5ProsAutTTZ/km3W6fDKjuII+UBm8/I9Dy4WJAg1sXB+IgHjfhxJTtN+HYUqbqh7az1ckiVeEn9hrgPq8DHj2U5hYPLQNLZ4l9fhtAOeMKVJ8FsDH25pfftG8DmIzxVlYhTcaaqMFYsAeMEa6OZTkNDXI1O8gGyeze1AmEHPfS40R8SbOyod4+S4lPp/UILYbKiUEcFC+xtd2d43Qt6+GULJ/ikle0AL1+QnQE7uOidsBaTBcBXl88PJTFnapE5y4cYxNRSlejPZDXAMpx6tAV2rW7/5f+yad+gMf/LIy6g981btPj9klAj+vJQGD+rICeFFy9zwwoFxoYLUq/gpw0uYgb8lTk/iufvr0IyPk5uP3m+Nb4p+TVYH5H46RY9V8DFKU+XLjybYCYmGNV0mKeJ+yit+VFFwfhcZDPc7SyDcu1W9JClSnEgVxOYbZhnyLbYPvblsPqh8faXMESi5uhJ7SCxDjV7U3lpRnvp7ldjhaw24MemLVcsC7WcEqD6PM4GTh5UA+i6uoBwae1ad8G+I73ffsfl9VVRXpzdcvZH3n8zr33/FUC5C5ed/IKeCmX3VKc8i85ONzxh3SOc3HABUzUY0Hsc+QMn2w35sNnCCTfFZZma/u74vrMABcB917+pP1JN/tLgrflQDPQTBdlTE92Rgt2a7DytwFaAzs/ON/1vqm11xOA/BrAXAyTc8QZHN+Ke7g4CJ3kqjvwiKjlJtUJFwYDlzwj1eE9pH52n/dbHXxHReHJndY+9avLLTaXZ8QBvDjybrbcdFPdXyovzXgr5n4VFbCh63uccYq+oO2EnwlEGRcJanHg9eKhHjzZCL02Ho5ees/z9hcCz7IC5ZUqVzo4z9Sd0x9i4eauX3f+yuBSLrs5VBvyDco+y7bZ15MA6sbiHxhcTwZgMYj1GmCVx5yBXgcObLlOLjyiX8exU5HfXXHN4fjD973f+czRkf1ewG05sAz4wGAkrSn6IOAlfRvgiU3svAZgdA2Tc8TZ8jgTIv7QDf1pebFa7WzvBJk6weRe+szxLN7u9ziyHZSV8BEoPtv1NVHcUIddcjfP8ly9yFP10fyDnJL1S7nsVpDAWPQN3X/m6WLA9ZnjqBSNE1AXjYERsWT9AxY2Yx1ZOjl68s6bP3F09i97CtXWVcMrHdz9P/t3/ow//rdDGwt0hKs7eSVT/CLIYr+uvtrbBqefEESfQt9+RqDlsdhzN61hp4sFcRCPm3D6k+034dhSVD/YKpec2O69Yr8YWP6uu+S3eAAZ8FWgF2eM4arRRUAVrNlxv4OP/muAQV+/Epi/DeAjUDZLcU1cWa0B3kOay3LxHIb0ksl3yyXfNar9gqO10GLocuTEkfVBu93FFHu6NIXYZP1SToDUywh1rkW/cL+KoUNlvE7d+WvhHxZ43HmPKxKtZN5eRGG7Hk2IVrbh4/jp/ftX/TXAXC9WunWpAnv///j5F/8wizL/Y4GOxLZ35uL7xov0nzt/yhzqSUGgngxk5PUBPJ4AaPHHLwdS8iku+S4RX5R2ILU8rGKL7gX+doD9fPBtOaAMlDE8irhMsiPZVt8GGHk44iJg/BqgjKimvdG3AUbLEv4U8BSO25xlGtAg7lqk8lQzkmcb9ilZF5L9bHP81oKn0dpeQVpH3kFCbbu9LS/ugZoCpaKLFqjLE7L40wFfoOlIWbxX0FuhofCsBV0Lv7jMxqhoJBUXSt6i6a29d73/3pX+aWA/zm3oV4Xrx3+Uat2hMzFQxBXvrrj8LMWp9iUH4w5/GcZrguhjLPKxuIef4TME2Ck3uhiY4pLvCtU3+duGv2B/Svj2zwkrcweAS2eLZ/BtgFc/+9mjk9Pht1dicm8DXsftGEwNaMlB3LTI4cvu2W85NipZJ9kWqLBUVWvgCi+GVV/id26xVCwV3Rx54oRcql0YcasUjNACabmHILkHSiDlcT1ciz9oRQu7UAu8uGzkyiuNW8VLiOu25VUx3lHCkFqVx2+/8aGr/KNAC3s17uNlsPv/7+d/LB7/8wTA7notm7rDb7nikf6iXH7mkIsD6afak3wTjMV/eFJAXT0ZYD+eAEgfJ4sWf/Qc0B7XgZY+c53Uqr+OY6ciP9vyu/5HhG7/kqDyd/WxPeKKeEou/Rosk7es+q8BilYfLkzfBnjrldePzh8Ps29M+gOPmuu4WbXdgOuEUPUepwHptd9y5CpZJ9kWuBJuI/C0pnhd3XBfQ2nb5Lm7LU/Vql2pdmEuP35HD7FCe3lx92OaFnst7LqzFyJnsZdeC7+4+/bV31uAWtF+i6Ed9OITOMq/rV1X/DXAKNyJLj0T8fndF/8NFlkC9EeBdoB059/jBCm97txbro5IfxFk8V9aX+0uwfZJgeoM8jhkwe0ixAb68MSg5cPFgIa1Lg7EQTxuwokp22/CsaWoPvun9nmA278kSCYOpTTThq8yM7FrwW5N2k/3t3rjfq7zSVL//v9wh++m9i0Aiv+J4M98xvY0qpr43GpioypziDv0ctvy7Fo2WbbP/RJ3vZttuMstporE0nBfU0uM6mZxU7ud5W33L8QtMOpr8QZbni8C3M4DtojKuNMCn3FY7IcLgeiie7fdpRi1Jrc5URiNuBHrz1V+DaAsTPbv2SjOTo7s0/85n71FX08CWtSdOXKKuJPEJd83qt1NkEWdMod6MhCYPyugJwVcHBzGZwZu/5JgHO8rv43ZeX2Y+iDgrr4N0LbIBQHfMa1/PODoiNcAUcrJ09bpcc2AINVapI7cTSE2KrIR3zeW+H0tTPGLVyQO07v5BKbqK2lo09Ly4r7WE1+LFiDt5kXeF28Ct7mryt2RW4Y8c/ataNEXxgVBqRMmWJW9pVgr9nc8oaZqE1L5yZV+DaDw+517RtL7f/Y7P3znyTsvaWFWGLoIgLeLPpw7csnDJrq37kmA/OuOflOuektxyr/k4HDHH9I5PjwBoF5+IjDm2GnYt08CWi67XaH6Jn89fvroraO7t39JUKm5uuirSi+8ZjrRRUDPtCdzv4OP8+Pmjt/rDPr8bQBUvAZYKVMDTvKMuIZnxKGaFGYZ+5SsC8lOtqyBuVRe5CNuMTjvIU6QF2c9pAvIt0Hc5nriBIQ8cyeSqwPwdtHP3CrlO3z3V8bheMF3724reZEE1K2iqoJlO73EUXMycbYu6TXAFfwDQVtmYVmutrXi8T/51MKd/UiWUYu+6ojrAqLl8if9Rbn8zCEXB9JPtSf5pqgnAdSLi4H85EBPBtDGyajFHgkDoMc1MKTPXGNd9ddx7FTkZ4rXvySoiUGGt3h1MsABb0uZjEfii34bwMbA6NsA/hqgjKCmvfoaoI2tN+A0YHtIB+RjCrONOixb8R1h002/Ic6LjetTP+gup453u+AKNxulxe0LT25cD6dk+VIuOwLOfrwDHtDEnb9XLDWwK5zFXwt6i7owkDyqqNVwMRzUKS75GswJwzRzNZmRA2T98NcA9sN2a7xfuprwr1R53898/F08/mfRnivSa3Hv8d5FAj6zHK47d8nF0VHEL4Is/uvqR2vbbaefEMQhDn37GYGWDxcDyj6Yf3cArjFPpEu47JbiyeNHR/e+9Ju3f06YhF3F4kNqwdSxg28D0P30lL9ko7TNBQElGbz6Ofs2gE+6oarTCAOVkgcs1VuOTe5a3m918D0VrX2KX9zRYppEi6ftvrpJqLm7LZddRmy24QRIvYxQD7wsiiscuRUt6Bm1uIcs7NzYWpFOfB5Du3abxwvGmSshkosrLKHro+KT1975yFX8NkAOlXCfeXnz1z/9w/r0/1wwWqznUBcH+MFOvEXdmesiQlzti+8b1d42OPdZAfzlJwPxxEBPBjKufmZAAwTkScEcp52svxD3vyT4qdu/JEgSD6poBGwZdFkEFtfWRYD9KBBPAb76+S/FgkAYebVrOQ3kSb3Hs4x9iuoE29vW05DiF69YYvFsm10PU3XXb8KL+1pPfDFaoL4wJ+wu/u6QyKzoKidY1HdxeT1Q9scHodQtdQad5C1Ww/kdT6iZZMQVvHU5xWkBe/7b26zv/obv/Ciiq1TUvSsTE4//tagvC0rZD2st4rDwE/p20YdzRy459rpDV/vi6Ci74vKzFKP11fYlB6efAIRV1sfFQBz6ePwfi3v4GT5DgJ2yq9cEU1zyXSGxxJ8T/tTtRQDJuIrFV6MUWMuTynd39m2AMm017T1/8uTojS992ZoyPQMRsykkoOKG3bovmdCV+9vUNa+cOCNuMTjvYYl57nyjC1PdXycv7mt98RVUwIaessw5PvAemqN8h+9+y/HUHb306ELmLUBr3XbflZts5hKIn6zPCUU3hANb5cioX/7f/drTH0F0lUrbhWcamx7/bxbEuAtavAcfoZcc1KLPcclcd/jSi8vXrrj8zCEXB9JPtS/5EsxPCOIJwFAr88v4nQFa1lEDOQ6Zo1c5sQnk9s8JKxtXCHXg1oWkDwJu/G2AMiJsUeBzAOkp/7hFPQEwg4fnd1z36mftL0/m+BhglClcp/PK+9n4mpdOgBE3uXejIPF3uYVWslW73eNqJqO67n5LF3t62a0gAZdFnnp5sddCLr2jO4g7eulb1MIvufhwAGnSW8PbaN8Fm2zU8amEeQO2kZ14RvYpQ0jB89Z0/CiQr3FZ/oz31e1nHEY0z+P/Y/v0vw+iHUfEok7R4t7jvYsE6mR5+Ii0Sa47eXQU8Ysgi/+6+tHasm1+AkANcdXWRQB3+oO+/YxAy+PJQf6MQPukgKzPnTtL9Pi//UuCOlJXCCdnj0ahi4CloZcxWM1b7orUhi4C7DUAhdcAPofIRIgy7/c4sj2Uul7FNJTXQo9JekeLsaLF4mtsial3vtCl4tZxikueEbdLOAFh18O66Bd95eW4+QKuDtGeyWMBd4/OqUoZdMGJLi/2Ea1bymAZ5gRRI3MlQHLxCC+aVOKxkZz9peXUbjzt2wDvf8+3/emlVS7Dbpuu7C0uHv+7cx8su21Gi/Uc6uKAlrETby8WdGcuubgiFt83qr1tMD8RoH68FghseVwc5M8KYAfndUEgA0mc+uIaYD0uu6V4+5cEydQVKppEc0hl0s8iu4W3AXE8Eq0SjZRVDZJNvg3Aa4DzRxac4hO6o8Z/1jWqXdKaltJN59Z2xRLbCpfckFCVJVB8CRY3Xh978cVogXm9jMzTBKz5usetARbwuIsf7vzFvX3VL7bIhqJoJREXSr4Gc+IwXZdAbNTEFGKztNBH+6XKq/YaQGlZ2o292fFo5M7R0w/7gPKzwJoSqtWWS74R6miq0sC16KPJi78uGrgjlzxsIn1ZL69ZL5nu6DflqrcUp/xLDuoJwBKMi4PSVzsGUxy5sqmLgSku+SZIBPGXBF/LXbndf1YZ8CER42I2hEXfBuh5GPtefQ1Q9DwB4H8yeO23+dsAqX7a7bW0K1lay9xl5WWgiztaTBWxFrddN4e7l0C60OOSzyFusl58BRVgsc+LO/VHnPkY+zIv+6KuDlE/zde649fdvDguKYOtt4LE5cOm5YNmtKcESSjeQ1wib1F1FzYp87Vo/oZvA5zt2vva5nsGVyIIAuPx/7kGlAahUJG3XPKNsO3ymGsxz6hFn7GCXFx3+C1XONJflMvPHHJxIP1Ue5Jvino9QL244wfDy5jHY0It/liQ3R5X1qXPXOek6rf83qufv/1zwiTnShcd0S2DTIvHRh7Sa4D8twHqyrmRs82N27CdawAbelZAdgpnWqvyEPe56Uq1SSRic1f1U1zyFUwdwI8H6gGmR/E9bqbTd/q4UeQ4XeW6MIjosfDW2Sml5ZI36IlMMjUrRNVLkOSp6koIWbftvsUR3wY4W9ihbRtaVq9N17Jae7Cqj//xrUG4DhWH7MR3gCzqFC3uPd67SKBOloePSLPkupNHRxG/CLL4r6sfrW23HZ4UlL6UkcPiTgl9+xmBlg8XAxr9IBcRmeNxHb/nf074ZZq+Lc88A2UwKI515+M23wbQOLOl7bje8Zd2m/b4OqC/BlA8+8A8QM0/ayKlixamy0GMGk742Z3RRVx2GYt7r498ikte0QJ0+4RemcA9wIImrHf6Je+6ewd1Z68FveXeefMhvfiA3urmm5xAame+JEGbt7h1jUcPH//Y1pV3XFFjZMduN3PH4//jk+MP+1miwYaLPPjEM7JPwW7HRYv1HOaLA+ymuO7MdREhrpDF941qbxsc7vijdo/rSUHgss8MaACCXEzMcVrO+hdee9n+iNDtXxKMI/KMtjog65rXZwA2/jbA4HjttwHa1wCf098GGHzsbE/9LuhrodbIHtIw8oQ+vWVu++iZzTbF4gYYrX2LuRbvhJPzr7dCQ0Q6lGFR1zt/64cSU83GdVajrYab7axLGN7U9BRu1uJ21hbn/Zfu/NhV+TYAaXvmhcf/HgSDRYs+gh6XPCP7FB9ssdvlSbV8V6MlamgRh8XFgS10drr2Fn/uyCXHXnfouqgQR0dZymUnjNpDfcmXourP4fAEIKzmOBcHw5MBy0HhPVR29Zpgikve4on/JUF7JSDFXCdudfvJwOQs0ih0ETAVRff8TT5avftJevlNrwEk2habNW5Y88p4k97RQumiNe7m6EsgIJH3uOSbIG6xp4xQAUoubuh2mef5Fn3m1C/510I/xYlh6s6/iQ7T+aIEyUq8h3MJo74SI18tl3wDVBiqssIbgf2+mR/0q/JtgB2kQF3fEu0PJKw8/mdQavDhdh1X0xrMU1zyjXCcIi3eg4vQS54vBjj2mesOXxcF4vK1lMtO2NaXfA65OJBe9S+C+YmAngTIn3igngygjUlIiz8SstnjOgrSZ37y4LWju698JsYJTm7L5WbAJzkdkdJ0WSxGgaz7NoCfv42fkQM7xDaI/Jxa8Brgq1/44tHocwCNryW07YZz+lvCFK+IU6avhNW8yCsvbsR7WNy4P/RTXPIVTB3w+vAyn65wzZ/SZ+4tx2Zq4W8vDDwRtV6OPkdZDfo77XCA40ryzHMTkuM1y+EqkotvgQpDVVd4IyD9fDj1qrwGaMJTNy4P33f/ufv+6X81WQafBqmL06Cd5Cg02KfQKyc78R2gngxoce/x3kUCTWc5XHfukoujo4hfBFn819WP1pZtWdwpLYY05HoCMNi1nxFo+XAxoHNVFwfiIE2f8JcEX/mtmNzU6C1eTgaWziKX/G2AOzYPvPbFz22XgzLA2jXQufV3JBcHaU1ouxqfxd0st2ojPZyS5VNc8ooWoNdPiI7A65194fVmq8ybgz4iaBd89d39WSta+Kd4yDfc5oRRNXMlRHLxCHdI2IZNXsRc4cmHctRDLkrvv3A1XgMoZYr70vHBJ/7xn/dP/6vlvHiTPfgSpH62E8/IPkVHJdhOtlqs51AXBzSInXh7saA7c8nFFaj4vlHtbYP5iQD1Y/EPbPn4yYCeEIC8PghkoIpTX1wDGLzz+IH9YNBn9nJ8afO2bJMBHaFt6lodzQebVr/oa4AStjdfpiEWocqJB57Qp5/MbR+9mW2NxR0wWgPXcguUdgnYF2gCL/NjXbA1DzaIPhZ99+D1dRGQ5bgfogq2nstuDZb8r00cbiLMVVzTxC7VClc+fZwYcbT4WsTuKrwGaONW/JeG77z4/j8a2SlN5sGYBq0G7yRSPduL9xAZxY9K7HZ5Ui3f1WhUjeBTi73kWHNH3nLkuqjQHTsyyq64/CzFaH21fcnB9knAHB8/GRg+MxB+hosA7JRdXQy0/MgvAj5lP7px5f7yJt253mXT82lf3wbg9YAV/+NAzWsAjRcdCE03Glhdbu5cnhEH8OII9Oknc9t3+QUQd9GbCVTAhm7X42Ve9MUbfTlO40UdsVqiv4qcCAZeLx4mowr7IVrxCaSZXMQzEpbCaTHXHcLP0gvtKww5WeGNIKXfqyiNPfTXAPYKXL6fBe4hZUu7cXYy+vS/qmkQZiR7S3jOPvZTXG1JP8Ul3wjblAbXIt5DLfqMpfxkQHf40osrnF1x+ZlDLg6kn2pf8k0xngBErfHvCvDEYHgSwCxANrX4U6PHj+tfEry9CIisXsKWA9FMht1W9UHAjb8NEOcRPtd+GwCj8qNA7WuAwQtGZVoh7qLwaUbc0MUgO4UzbVR5iLvczFye0USjtWwpl90Kap4zpB0P1ANMj+Z7HNtStKgPd/64KR02m+HCwFtQrQks4kWDAef2P7sVF+Kul0DJQZXsR7ILImHkssIbQToc4/FS+uNgcWL34tc892O8As/+L3u/Cf8ymz87f/2TD/8Sf+zFi1AhiJfBO7mYZ70PWnMwOgoTnHayfY8jo8gu2E62LOoULe49ni8WZEedLA8f48OoO3l0FPGLIIv/uvrR2nbb4QlB9GWVI28/I9DydHFQLwIebRfQba3NMzAehql+o8gXAclqcrc9/wrXeRD1mjYQ5tcAWhya6canGauapxsWpSrHT8NpKbub4pJnLO7qmraUExB+MkKdk4/cAfGSJ1/A0WfuVaMXwwKPm5AJ6fywT4MeRUJkC0pOGOaZK0GSi+emsM8c2z0WhacmxHOa0fW40k+8HjZY4s+cn6v21wDP8CmAUqp+XiKenRw9eP0H6/v/MjhrAOKbIFlW9tchDWV78YzsU3SUg+1kq8lrDrXo95AgJF93Zy79vvEiiel9ZsD7yBljJX+GIJ4Y5M8KoB+eFPCEgIFNfm7/kqCn73I25ViNGtP5m4V8G4Dy9Elgdzs/NfEUgLLkR4H82wA6h4tbD6tMF8zSleMU3kGfLkLterqL3TZY3ANefy1agLRDoELNX75A0wH1sUXqUYpcC7oWfvEwarfeWhKKC5NqbrfkPRJrhusShy81MYVz7V1Qp3DlRtzHiQkdLa5JNJs6XrDr8JN7p/FtgLM/8sweVapf6uel4ft+5o+96D/+U0fERNMazFJPcc+2dWcp4k8nzeioFrn0oIrsprjkG6FGd1Ri0VKJiwNb2CxHWuyF2HBH3nLkuqjQHTsyylIuO2HUHupLvhRVfw6HO/6wmuNTnxmQfIQ2Hu6/Yn8e9uFbc83f6naRAZ9NFkwpU08Ayrv7mFV7AY19p5/+L8ZFX78iGH8eOL8GqNMHp5mZO89YPPlZiDxxvJdqF0bc4o8yQguo5W4kuToAz/MX8jI/aWEXaoEX9zbNVq7c/7jVFFVohyjFJ1AJk1q8h3MJpb4SIV97QIUl1+OclPFhSslHaPE576HV8cMDUr+D548ep28DnF1Cby2IpjyTRomBx/8RS3sI2gibEMsgr1biGTkqS3g+mthPcTUm/RSXfCMc90+L9+Ai9JLniwEyl7nu8HVRIC5fS7nshG19yeeQiwPpVf8iyKJOicU9MCQ89s9yPRlAO0ym979iXxF88Iaq3OKlZ2A8ztf/dcAmQJ3PjXgtLa8BXvmM/Sog0wIVGEvsFO7TRZEXcbXLPFVTdWpld1tz+WHeop3MfV5C7oFaRAW1sOd5i0UeuRA/WvirvcliXy3V1tBArAiDrXLJGyRhuSxNIHXUZIvZ3473V8JtBAw7pZ34VjhhIyeugivcVOjp1ghdcFK+DXAGu/TicV96qzRoj/89mxdtnGxTMuooST7FkVOkn+Oym0N0FPkJtpMtizpFi3uP9y4SqJPl4SP6Lbnu5NFRxC+CLP7r6kdry7ZTTwRUe7gIKH1zGD4jgN19/yNCt39JUDnbH5bzSg30zge9BsDmEr4N8MbLr/qid05o9t+nCxBakFCcF2w5VbMeTsnyjbkF4n7S/NXy0fyEnQdckPZLfodFv1wsEIx5zwt/RBtyV0frbtfnIZ3ckhDKHOYEYZc5db3D7OyvKDy1IF6x7KTD4KY53cS5ws3qQuPHfhPgWX4b4BJSr5QLy6f/T+/Eb/9LvC2Wwe9HAR+b8Hw0/SjaKJhCfGd78YzsU7DbcdFiPYf54gC7zAlHXHfmuogQV8ji+0a1tw3mJwLUb58MZB4XB3FMXrj9S4LbpHt5naUzSn4N8CS9As2vAbrn0dBA/9sARV/9jF8DnDAMOM3pUYOokG+DxV2tL74Wbb6hvTzv+ILdzkPuyC2H+aXJz7DQh11cGJQ61PcivhRVbwJ1ONYljurrmpxoYhdihSlf4hVL/KTdx0WLiC1+ty8oXtFsSrUVpF26L734kf0q4Ivvfv6ZfRvA+0Mwl1fi0/97+552c1LUxVjyjO1JNsdJUNaL9xAZxUdT7HZ5Ui3f1VmkGsG1uE8h1tyRSy8O6qJCd+zIKNty1dsWo/X57dQTgZ48LgZiqPMBwRde/dLR0Ru3f0lwPsMX0E7OKo0iXwT0mlt3/hS9xu+RFv3WV3oNoLOnh0SHfBukyVxPnPlHvXZM888Kpz/oe4j/0t8WtfBL7m2breTwiC72YquosmzBfi9xVFuXOGy2bJKqS4vCk/0KL4J0GNzUeUk/ca5ws/LDUhx7d7FDbv/XIdWyXeX2BOD8weNn9m0AYrr0cuf1L//EyuK4qyjKSVLdic+hTjoq+VG2w5ntpfdRYTbruBqX/RSXfCNsD1lwTYI91KLPIEUvrjv8lisc6TflqrcJcrEge7V3EcxPCPR6AH/6nYEXXnvl9i8JXiTBc3UZaD7dJSOdT0lkX+gPNvVtAD9/2vGeHdipWK74/NsAqNQOmC4I/E8E8xqACRez4gYU7yFmWb6Uy454qJ+55g+XE2eZT+qCrXkjIYu79C1q4Zfc21LdaNq2ikKClku+BnPCMM1cLtfhmiYuoiacXFZ4iZe0U1L6PUWutvhdD5qNHx6MxamX5HTXuSFlEaeClfBzfnTn+ZN/7+jsV6h6qaWEcXlt3v/IL3zzk3sv/b56ol5W0zoheqhRQCx+tC0t2U56HxVms4TjK9v3ODKK7ILtZMuiTtHi3uP5YkF21Mny8DEeJrqzR0cRvwiy+K+rH60t2/aeBFCTJwCBR0enb9kfEeKVwKWfdh7C9d2Mh8t0P6eeAGjhnjwvxg1MfhuAlvGVfhToy5/8lP0xluGQ58kary3HRZYv5cwfHmVC6i6ZX7SgZ9TiHjL37O6ITroQSDeFpdo60DnRQ1xnuXjb5Lo2dqjP4eA2T98r3OLMeoaZc9CMK8cPvKDBiEueEZtFvATMseOYPn361sA10wQAAEAASURBVLfyzbijS/5NAGK91HL+7q/70PHx05fqEbis1jWZXAQZJRod65B+5VHW4+q77MR3gO0i3uNa9HtICLpoaO/Mp7jk+8KLpCU/EfC+2aHkIuHUvhlw+5cEL5LZTetecMrR+btps/Ya4PS5k6O3X/mCPQUYT9J5ktfkjfssF1+MFif1mS98gW7nC3fkFqvzBDorWti1SAyyUi+sfDtspJvCwXJ2T4cpIy7bBOHkgk3NxrFQmcOkiobJCC1O56DZ+HSOccMlp1vq7josboDJdOCP4ljmfF3kPX34/P3f/bu//d8+uuTfBFDeIrJL2Prjf0/rJTS2pIl28Z3iPiosXUuRtkejb4YrTtlPcck3Qg27qKRFXYs+w5GLA3Eh1roj18XDFFc40q/jshO29pIvRdWfw+knAnYR8OjB0fO/89k3jp4e21cELv2UmAv7sHWbjud9fBuAJwDlKcDD8zv20Y94DUBiOdJTk3yrF19BzReGPnJ6nDy084Y50uTfohZ+yWkzZN4CtNZt9125yUbTwxLMCfOGm4aG8BrF9lRhycMKL4KUdjft8nIYOFBU88NSHGeeu+lys1mHuFH3WyxNVL3zcm4Mx5ovxr3zL1zjJwDx6f/z+y9+0C/BlZVnjesmKekz6mQmduRTPI9C2VFH9tIjo6zjYbXhVsMxqmkxF2rYioO6CGDQZ647e+nFFdBSLjthW1/yOeTiQHrV3xrt2JyfP/4bL7z8z3/QnsXdfk9w60Smigw7BtC6kl8D7OPbAE37/CgQrwEoCi9P7pLn8LOd9BV1XjOGEGau87k9342zuGvyb1ELv+TiQ8RMFYpqvE8IGxV1VNNE5moClBznWZ4bkzzLLrivsORmhZe4SDvF0eKoaDKln7jdvGDl1JMdKG5IWcJl10NkFPyolHBLoCY1AX8i+Hu/4/d9g2wuA2sc+2+sfPrfB+4lNnvRjulEy8joWsLzqMR+jhNn1ve4+iI78R0gizpFi3uP9y4SqJPl4WN8fHUnj44ifhFk8V9XP1pbv8XX829/5Zfe+lu/9ut+EXB08k/9jPRpYX39W4uJDIyHQTJqFPkiIFnV3Xa8T3CNw/zhv+qDnfQagEOrKEBN8pj1OOe723fQz9vefFDi9AXc9dHisPgPnHYpgy440eTFfhy1bBagVp8eqsO4USKEyKSPcIcQ0O251HDLzgovceb0E6/S7eoeL3GX6ivdlhyzXvdbvewmUQHKn3F8ECjoH061nRfef+9HEV9W0SG9lPbi8T9Nedcvpc0LN6LJZglykLOd+BL0tJT62ItnDGkZ3SK7QU2ec5gvDrDLnCjE2zvzKS75vnBJZvhWwPmd599447u+7eNHR2fnb/2tD/3a/U/9xr9qde0i4IDG6ZLOXrZNL306P3IsO/g2gNxNfhugeQ3w+K3H9egqzFm0uF2fce68JqByHrOAx138cOcvHmZqmSrDfvRpirfysJ7caqbPiIu8umWOIzUxhZON7U5Rwy07I25x+XAqqMNB3N6tdWhhut0M0hNz4+VCmMa9+4ErYI0P+4bK21968NdKc5cCyufeG+PT/+f33/XBOGJqVqjmWy75FcL2BBVPB9Ojzbw52J6DVk+lbCfeQ2SUNKi63IWbbjTMo97UkwAt9kKsuSNvOXJdVOiOHRllW65622K0ri13WI//Rv4Kztsf+6efi4sAngTclq0z4KfzgnN66gkAizalHechRVH3Zn8UqFrFjr8G+Oxn3C0e5MVR57Pk4oYjPTyfr9iJF4+xyEebsbAPd/PioaXqKAq1LnWHJ1XeHZ++86sXTWLfovwpJPEd4FR4cq10t1zyEVp8zgvm9Hu3kJsjurEtEgf1KVMY2qJXgLIXN/T6idfxYoH7RaL9KND5W+981/f+3Oe/RT73jerTnts5O+HT//7u3xOQD0duGvkVL/VELXGKzyF9zvop3hscNCN76ZWidVx2G+F4SGjxnkMt+hy9/GRAd/bSiyucbbnqbYJcLMhe7YN8OJDH/9z9D/Kz87c/9tHPvu89X/kX7cDdXgQMidnh3nicXfbfBnj0Snz9k4OuA++o81RyeDn/6t15j5OZej62d/qc/vRXLa3y6rvaDLa4znWDT2ybtPqqgys13yJu1JRQrlsu+QWwF152l9LvYqVNcrCk3+P27lic7reg6612Rdt3u9IQ3dqUU1XpaLG4Db0ClX0K2OslXseLBcr48DHggT39CfncN3re9t0Ik6s//j+9W5pS+tX8FO4/sp21wGij9FAHXfopjpwi/RyX3Ryi21NhUadoce/xfNEgO+pkefjQ8YdNPxnY9o5fi3+v/snDB6+/8bG//Pe94Wbz8r/zA68f3fvS7z9+cm4XCLdl+wyMj2+9GM4O9RoA2Z6/DcCPAn315deOHtsvsHG++mkG0nZCqJ/PzfnoiznneTk/dfeeUQt64HDnH0sPbst8Ea1aQ02OvPENNnLXQ1wj7yFNXLBpXGxaVsIsAqVlhBZf5jocxO3dKkgMU92UHBu6uylXvYzsU/A3CrDlNeBiJ17GD+OI8aDxc3x8/FFcXEbx2PfdUH38//iRNZXTr8OQkWjgB1bSwfTIt+GMcuotQRrJZ0WPeyD72bSLeI9r0e8hUemiob0zn+KS7wqJ4dG9F/8mOFns17mevvjKh28vAiYzNK9YOsPk1wCX9W0Afw3A5GtdKJNwxtF5SC91vqnHDdeinifzmNTzfJb33Wnx1srVyELcZFpVUy0ubGoXZhoWFUv8Pm1aXCtojZJuN5tCsylu1iJ9aLu/KccHxet5wEZAD7RBNywtaNwUJOZczh9c3muAtu0cx872/fE/adJR1eFpuctpVmFNoUKTXvwKog62QhPv4dTg6cnx5/lbgGpb9lNc8o1Qp01U0qLeW/S5SJAca92R6+Jhiisc6ddx2Qlb+yyPx/+y6OHZOT/O8fSv//c/FhcB/KTQAYy7XleelWwyXY0iXwT0Yl03fote42ndtwHe/KL9iWiFYOejL9acl/hpucWjOzQt9FOc0MNm9c5/aFAN9zqaZOPTq6w2NFBsMuIS3kPM2yZbjs2GRc2r2gpvBJr2FL+4o8UzidaAHxbQ/ns3sc9c8gVoJjUdSsMUYktxvQJuueRgGT8jxL6MzxY1nmijlvPLeQ2gPtd297Hz9Mk7P+1HygeDmjSsXIeR1tGLu0GHY0eRPtiV3JaDXmMTn0MNIiphJ95DbLK8x5FRsMul5Vm3eF/HMypo8s2YF33k4kSTue7spRdXKEu57IRtfeR8+t8eBb8x9fhfdQY8O3/61z/woecfvfGfH8S4GwJ/9ns+7MbjxMd1G1l+DdDq4D5eGz89O5Mt+TbAW1994+jRG/EagHjqREw7LU/taAKX/RQfjxOdey0mx73dtrtwXEieeXYtOT6zHK4iufgWqDBUdYU3Ap/2Uvx5eiNODxv0ncStAT8soP2XHe1WDrGyDVe9HiKj4NcD83HYcHXEDc2y5dRXvQbDbXoNYNUv6zVAc3gIZbeFx/8nT9/5Hk+XWnMkSbRVkhXpDR6H1/ZzBbMbcaMrHBlF9YJdyW0ZBDGpWYSZt4NHvId0LsunuORziI6Cvx0VLeYgZY7PXTRQV/p8Bx8+x/FKP4f8TQD/9D8ONigP/9Pv/6snx0//Q+tJdGiDujfWdHx4ptOgJwCtxR6/DfA7n7NvA9inr/38K+PeF3Q/HyPwdoHXqRphpgsHF6zytjuLuEZXDwkry8Uj3Jj+0IsvavBiRgpHXpSjLlpcWU7anYOE3XKTqTst0p6ZV/22nHoq+BsF2PIaYLETB63U8ZO55Amx1UEaXRzQ/0v6NkBEHJHsfmt/2CA+/V86qlHiSC+zXKFkbA93j+PDHbFTSsslv0JYBkddbJdwzpJsJ74E6Xq2E8/IPgW7HRUt2kswXxxgnznh6CJi6s5eIUs/h1wcrH/8L49jPP+P/+C///yrX/y3bi8CxnnZjul83652PR+a6hpvjXig5UeBeA3Aj7B4KeOeyTgW/ZAPvEzuo/mmPVfW8SGE2T2lBcTlFOJETU4hNnsuClfN5GkKmXOLbwVN59PSHFIf/QyaaqQX3wSxpfz/7b1rjGXXdR5461Z1N5vsJkWKkmmJkvWKTJG2FQMTIJ5MLCmOEyOwYyvJzNh5yYBiI4jjGSU/ZjB/BoUZzA8hwIwHdsYB5kdkG4kzEwiOEieQ8wIzsDEZGHnYsWjJjmxZlCmFokU2u5vNYtdj1rfW+vZZe5+9zzm37q3qquLZ6L7f+dZae+2119mPe865t66msdYBDVQiiagVPPGQo74j11HyEtU4nTzkxrKoqB0++ccA1qJFsvlXPDvF7X92kq1lKEkruUYCORRIqmPJ84puh8qZQwi8UE5+BpCDhaG0OOToP/WRUz6E8B/15DWEDAX2sZQ86iYf43x2hZt63OzLzZ+LOa/oxzi9077GV7v9Tw8d7v2t7/iJ973rDT9obwLmuwFdZgaOyvFT8lh1azuy/Bg/59cqwac+BtA/AOTjGDpwlW0v8NsAeAyw/6qNSb0T4H5tse7GPzkX8f4a09mai5I3As6nQ1oquWTG5Y/LYIbR7cQmY5Wx41Z4rMflqOSUZyjxKY8oFRE22sHpUSRfAcW08wMiBX5RSjSpyxkg7chrqAFKhBFRDzxg65h2apyi6up3Y8ssTuMxAHNjLW70dXfZ3f6XZtASR1M8y1CUXONweUpU5KwAQzomQkY9MJaSR909OvbBk1pvccpriMEa5S0eBzXsW5zBUN/ilK+EOE9d4WY+hHxzgLMHO3Je4Zec3qmv8ePc/qcf4q//8OM/c+3VG/irgXMZy0CcnkO2Ux4DlONS/XXjatU/CoTHACjpToAc22Jt60W3cMf1g8clqit448EwdmGbHfNEhBSuSk45kGVikzSfgrXwYj0uO5RxWVG5xKNhAz3+xFGBejmMcnTDzWFV7f6YnvVqCBkK2knrZuQYX+wIbGqcclWrJzEzNBXvIqF6X4/WOa6oRz0U5VLlNB4DII8nVHYP969e/WvqnGeLrU3hqBjtOVoU6QBGSC55rEA5bKI8chyfk8LBVcOxwUq9zkLp7xSOtET7GofshAo2dRRu7jUe3zTQDnWi3Hzw/IPB53Jxabn1M8bWe731Y3/oX+qbgPmXBMcTmZ+GYF8o+CagdReA45IeKhxvAjgOhr4NABf6bQBBLsiQdYty65l+ETMqDRUbzrZcwW6Iw3W5fJV8qK0N6BgeXZHXlh/YRDmXFyy7GjbQ40/cHbs4dbfkMJuSDtajfQ0hywJtcXbAx5WOC3QgcqnL8dLCbgyhoc7eGEJB1P2i/tBp7TgeA+zi6ETKiTlGtFs79/1x64UQ7cwKCAfMj6I4KBE26pgIg1ZDsMkcQnB+ig8+DsJjIQfxFERmOEBbeILZ4+I9hNz0a4jQ+KahvBOwf+nqM/ib/5sKH28C5l8SnJrNYsnhuI7VN/BtgKU/lRn7NgD+KBAfA9QXZK4ZDJCcSPkIstsR4WKV5YpNEkeaXEfNMOmDnKdLUeJoolTUZWYIRTfWfeoRB7t9XISPbN0cWgdh6+teGhcFp7yFcIHCNwi0M2n7lXa4I2WPAXbZ5XalY2p4Xo9ZvV2tu/3vsQOkNc0hz2qF61lmVFUUR5mcuYEcCm8ImHHEmlUc4LBFob2xM/nqgzLFRl5D5APyKQiHmr8JyMZp3+KUr4Q4n13hpl7b9PFmgXLU4GcA+CYi8f1Xf2HT76rxhmL+JcHuPK11xDsApZPetwHK+dnxVR8DvPTsr3fjXdvtfFkYJS+Dc54PV1uOoKI8IlyC1xB1JjYJ0+MWhsP6XDZKTnmGEp/yGooDXWaA8r/VzZYc7cd65DWEDAX2sSjPAhZt5EProJhy4y4RbVBWHtc4N3ToVin4TEr3GGC37N4qrpq2J+IUraXb/yA8y3Koe0SLUx4x1occpznTswsuT8Mg8lgB9pH3GoDAizZIcjaxtelSXkNMgignryF6HeU1zszALpaSR93kY55fq8DNPGLc9OObAEQTOe8E2O3/3SLYyQE1DedfEmymZoIiP8/TfhsgnEKOZ7YkHG8CUuGbhyTwA/k2AMrLX33RxrmLbY1IRA5CW1FcHocmVQWOqi2EEV23EDYnVHrhFgKkldMfcfa4xKV6xAd9jYtM5RUUUZaeFqe8hpChMH3GnGcBiyZyrk8N5MZdorYldfgmgPqSM461Uf8o0G7ZvbXdwkFxujfiU53Y7X85CQjbB5EqnKezFfW1UYJKUd7ilCcUx9o7YHQQA1CDRgPJkevBz1FpDOo0m6O+nBSRo8tTOO2GEDoUPR92uO4rN38gyhDHm4GDSw/I7f9/9yubvgPAfsy/JMhMNBBTrjz/JUdVPgYY/BwA52+jLRHrG0Bu/mwHCBn+L7fxB6H0McCdG3f2uYiLou00amzYdbtPjcNVueyQw9fEpmKzqx4zLNYjT+gHcVmALTjSpXLHjIuNcncMN+wuRJFTHhE2UzjtagiZBdjAFLDryYFSeM7HUI3DyeLGb3KE4EmkYBVk1RLFhz8GsGBX8TnB9kSc3v/RT32r/fEfGxyIw3NtZ1sFHp1HoHqOFurJpyDqZMkTx8oDapPsMnBVx+rgfLww4asgZzt6iHrkUxB1OAFaCBsU6o2t9YoFHmUK6psDvf2PGrscLSAbLPMvCY4mc0rmxx4DNBvh/DYD2d+LEvRHXSD4ieCXX/hPO90i3ukKBzmlOyCqtBC16LKFsDmhwjDpnjyhx63LhcTXQ6moywAcQB845eiWu+mhV0ty8k0gfGTrVcm53jSQ53wMtR3pPN8oGN/QazoR7i8kcv/W3hPv/9kfev+GWsrcsNlMuC65e3j0F2wo4BO0ubcm99GT9JGHZKg+8DTp0Ax7k6E4KrmGBHnhqOR5xVYD6s1e2FAQ3evDlFAPpMUhR/+pj5zyIYR7zd8E9FCSfYtTvhJi4HSlvDNwUrf/uxbtaP4lwTIjgTenSaHgm4DBuwDRb1nfHgPwzWHv2wD8ewLhjwIFb/VDDq8aonnIawhvRXgQbbowLPrtcRfEaQ5b5RJfE8VGp7871m7CHnLUH0FUi3bkNYQMBfaxKA+Bl3xw/RJH3LhLRBuUlcc1zjcK0K1cPP+aMFQe4p4wfBZgf2/xPSu3NaFCmeMJVcZNePsfveOewFpN7pGonqNJKg1y2kVEQxkXxyXXYFyehlnkrABDBEYORCm5SU3O4zOCzYR7fNQPISZd1Ld4mJxq3+JMDfUtTvlKiPPVlbT4i+hww5/+71ppHM2/JNhIDMT5eUrjK9bgY4Ao6x0Xfgr94LcBaCu3CfhHgfAYgOIqxuUABpHH5QG6FofuhEqZjR73eKvTGdNc4krTO3LESy6Hyc7EKQ1uNsppV0PIUJg+Y84RuAeo+sDt3QsqIlC3U0fmiRt3iWbSXdlTzzcF5IxjLdTEiQcgSuTsMJBy2Ag/qT8KxDDQzEaK3f4/eNL6Iu/AtSdE9MWa7KF3XvcEMVFERJ6MklPeQ9Rh8ti7GqddQmlI7YGsAKUHkJAVKCevIWTnpDDBNSwnU4tr3qS/1A9xpCXqaxyyDRW8Ebh047lPbcjdRDe78y8JTsxU1Yx3AEoln+mX8sQ58WX2ygcBBx8D0JfcBcBjgNvP/9aOLvyY3ig1nLI8WO1Te+2F6YLadMY6F+WcriqXiBP37g91F81QD0SZwmnXxBggjCLPApQIyIFS7Py5nLyCsLVo7ajc6EtuVhNfPf/HHj9MLJqTbuHbAO//2d/91omtTzbjOZtcYczQbv9je0cPSkRfLDM99Ej8HKa9QUeTeKKcXLFIkrqGH8qHEB2xUByRZQgDglYbrDmGbeYQgvNTmOBVEJMy2pNPQWQmTuoa32T2JM6j62/8+5t0Od3X/EuC03PlC8H0CrklxyOlwif9USCx37m0XHzlSy/JsMS4dgcR47SHupzuJXcXpwExTLTHNGSIbsHQMXUTHOIS4cfMR1HMRtMh7rVMwixwqQauATYQnqFX8BYKzg2dqMYSNa/0jW/oFYlDiYiwwGsIWw+7hSfxGIDhofmNFL39L8/W7Aof2zyaKJFNUY6+Wyh+zmjAc5qSk/SexCoPSVZ94Jpcayo/OWhR5eI404ezwtmjBrCLjpMDOhpA2KKwIWNn8jUl2KMjB3JSQhU55UOIOpq/CQhbFNob63PKK3i4fWWjf/yn0sSoaP4lwZAiDP1Vzufg5wCmzaPqHwVCSP5tADwGWLx6c5E9BgjTn9M+Tduy2ZKH7h73kM2zfo+7IE5L2Fa5xKdyR52e7hhuyNEN5Ssg3LD7JUKHQrkx5wyUenJBtQ/cApTINNCAqAsZ/vM4oAsV8FJu+PkbgmQ27QCJioW8hggP8hJZ38In66E+BpAf2Osp1hCMNLmK591luv3Pk6fb+mHqM3qPLb8rHafcz2EySdwjrXImVWqpvsUpj4iWMi4NlVyjcXkaxpHHCgg08l4D6s1eYHfGS0q4x0keEZN0CqddRLgd40wR7GIpedTFY4nt9G//xwC64/mXBLtcZEtBEGeHG3gMAH/NxwDY/PltgPAYQGPgcANyWkMR5WroL5RH2ZrHaDaWHve44vRDfMqBUpnTS+XkcEq9HCY7E/e6682glna/5JTXEDKUMj3KGTj14B5w2pjZAc73gNzM1dblrEe0xmWv8bYyuSrXeEEiYmFiohwdpRy2TASR9UtOOVBi18cA3/jeb47idY9jmGv62j202/+xr3aF3/XdOCzs/d0YIlcWYjrnJffkUq/J7Rq0ZAtXPeUR0espHI5hh6JI7gFkDU9ySEcB4fycFCYcyEmL0Ic47SKizhROuyGErlYkpsPl1Z88qe/+15ocks2/JOjZ4XzqJatQ8E3A4F2A4ATjKRbhzccAsOXnAKQO/ibAi89+WY5ETjdATnP4pRzHJ1zQLEqabkY77nElfeQSp1Ig5VJfpxv9gMt/V/cQZlHf4pQ3kQG6v7wDIqQeqAE6wr7G0ZCUtJnDBoWohy5TRbB1vhYgYSg1ZMLMop5A6qai50cfA2zwLkCeoanB1OwkqO7T/9ZnmFkDto0jV5Ejex2HFjwi7C3DPK897j2g3h2yoYSq7wIwOfkQohMagjSkWHIPoNrwJMd0iJbOT2HCV0FObvQS9cinIOr4JGgibIqCrwHi0//4Az0n993/otEJdP4lQSaJ88c5xxPVwJP8NgDb8ccAoPt3D+UxwO39fL4jDjcmOj1JYHaYloxLHCp35DRCnLBTPoSiU7sBFFWv2+z+SsgO0B84A66hNmwtpE0edqgvyKt5YlwTKGM9cq28qZdNJG7VWCRn9hjgQ8PfVFnBL7qxkXL/sy9/83Lr6Ek6yweHbdvMGYad6SNCC15DDMIoZys2hjo2wNGguPAxBIcdh+sGV9/Qo1RRKmZyOEKBPDjucdhkFQc4bFFob+xMvKaEejQtDjknPUwjp3wIUUfzOQFhiyL23af/d3liTHcGXudfEpx4EngHoDQPV+6mKudHxwe/DRD9+J8GvvHc7+zg+9ebLuUg7PFCwOlURQlP5Y6cPlgm4EY5UP4rPwZKlbTqwA9KiSZ1OQOlHbmg1gs8rQcMPCLqg1cQMm7uxC6qTgc7lM7G+OBrkX9NnDrxWtSPJRTmTJRX7XHKB5DNqYnkbl++DfDEj//2BweqrKQqQ1ypcjTW2/9+cpkb6NHAdI5BUv/MgL1VMH1s18dIEjW591T1IaBBTruIaCnj4rjkGo3L01mPPFZAYJH3GlBv9gK7M1aaCfc4qR9CjJuoJ68h3EZ5jXvTarcjH0jV2/8Uni2cf0mwdT4wL0JpvQkIJjaPXMDxRL1wPgbofRiQNo54DHDzy19a4NfYNl2KXqXVge1UwtZuUQ7k8MeyoauHY8nVThyjF2rnjRyHoyrqoZRoUpczUNqFgLVe4NoRdegeEXDg3LhLhAnfHKi9vsjeENru5Cse1U4QwqKciSTCPfUe/nCCVouHzbIW+Pb1y99Ovi6W/o/tzz79b9v0WG7aetSX7+1KFJZL48g+5OOIerAT9JPR45CLCfXaUIVT3kM4RxPuB7TKKU8oFTQ0YHRAR0RWKDnlEXF8TgoTXkMuCugK9OQ1hE2Ut7jLl3du/xu7/Q/B2Syv618SxFTA+Yyl5NDxMcDg5wAKP9FneRyv+tEeuX9acG9vf3HnpvxRoBVclk0MccxulIR+UJseiCHKOfxVLj6Uqzfzh5DhroYwi/KpnHYRcYwCf1mAJU8Bux05UAo37jFUY2tNmmPmTIrXmqzTjhzRXQ2ZMG1EXsgt/I6PNLGKmmGwDjmw+zbALiOg2cq4tgO0eO37//YHcfsfJyDmBsHWOOpEeYtjGFuANYR3yCPCL7igVexzyh29gWRPrtjqQE2ORqOcPKE0qKEFhG5yg8mRHKgjCM5PSSekOAFDckzyqCefgpoZ+fGf62/6xFl69t86Ya/rXxKcMpxbdwC4cbcSm+aXGTS/DQA1ffm3AfAY4KSmWrH8ZMMcbeqwjyjh6bAfQtHBL9I5hmKSusb0r4rwgaL1xuapGnoL6Ejg3LjH0CsZ6CuzGETHPaSriAiTiYRfD7uJx227Uo9hUEUO3L8ljwHe+I7/YhPrGv2ynWPh3tWH/yQqwlnMWYvDNtq1ODxazmsI75DXEB5RRO8nLb2FcG56iYOcdpGLa9WHjjS5Ndd1jLyH0gD8JXlokLNeDWAXGu4qyFHmQDX2QjlFJaf8HmJKuMfQ4pCj/9RHTvkQqns56y89/6nFBj81e5KZe93+kmBzmBYKvgkYvAsQzpDOn5xnjwG44cOksOVjgDTVgpt4yNlL2SingWMc3vChnMM+ouh0uANhV+OUT0AxSV1jllsIWxTVM+CSUw6szUvYe45LhO+Y/6o+1Fd7fWEyO8noUVmFvIYp0e6VCWIjJad8ANkMTaZy2ulFtrR7+ZH7/iv6WAe31qnMulc++vM35bbENQRZ5gw2pZyc9Y/PURP+7bGBtUSvG8SpAdIuIsNgYlqc8ipGh3RErFa4WEIuKuxVi1MOlGf/uP3/yt/5/v+M1c4LPvrxX7z+wosP/7KM5288LzGvHSeGuK4UwRPOY5TxMQBMjg46Q36PH5JendzH8kg+3C9V9ZchUQ//D/1D1ajL47t3Fou7e4t3/+cf2L96/epG//hKWhC9B2hW90ZBFECPU16gUC3larAqp59jITuguXcPfBOwgkNs/LwLkFcb601uvTLThEstz7/WL5tc2enmKjA8esQQ3Xnw0md/7SNveR9lx0V0c61y7WO/9Eew+cOJnkCg/GcuGXwNUSfKV+d2B6Brr3VHgHK0B+uSi5wBIwgp5IpShbwVMO0yPZpCYYBDHBWjPvGYoeiIcjYwBWFzTgoTDoyLyRCnHXB/327/n5Or/3hW5l8SjNkIx7wDEER6GK/kVcCJRMOOV78NwF8FhDl9xccAXXU67CFmYyxx+EKecfEXOYct5r/OaurJUV/+C+2hiDL5cTnqsaCdLMAxzg4ApegVPOcp+QCiDkq5+fNOgPXabOy1zHbUFcc0HcKYWFQveeHyOJTNsy75KEoeNRwfMHoHQN6O6mOADXwbwM4YozoG7t346nfrAi0nX4MTH+hUzOGqHGEM1ae+Q0+S10ME1rGIlmps/aaPHIMW3rpCXqI7tgBh7vXUjh2lnHwIYauhiCPFkjOwGk5yTIdo6fyUMvFTeFh0cELt9v/mvjN7qsmTXxJ846M3//zWweE/PNV2z1xjHPceWOtNQBY3J5IIOW6oF957DMCrfto4pscAwV1hkmgRZWqWzSuKnx6KBx22Qyg6+J8y22kn5vlyMoGjDop2NwtchOCcXxG1gicIcilpIy845SV2G71Wl6Ysm7Qz6TFfzdX0BKIZ707CYzYdqzEMyshH0XOBnFjaWeNwI48B6I1xrYzL5c4PaSWZRBqkEDhFDo+L8DdUn/oObVtne2jZzmFEaMFriPaiHJ6t+Bgm1ZOgxAdJ0nvAVc7ABFUfuPoCR6miOM7k3jB6qIPDG9Yer+Q4NKitVzjl9xBTQj2GFocc+XD9cu+OfPr/B569h5Gv2fTuIe4EHP2N93+vvQnY4olf0+8ZrY6h64tdirDkUPAxwODnADhhkqfhA94BQHu4A4D/5bcB3EN5EoaGI6pQryhueyg2IrbZC33klE9AMen8gEiBX5QSTepyBkg78hpyfkVEPT9PRPivHUdZFxVykme15PDXLHlVSyCMKY+YEu36yFGHicLxMQubY/UWp5x97XHPSdILt7TTUv5q5d3bP8h2jotrdTne/kf2UrASDXOLwBByi1NeQ9SN8vU5tvkN/Z0BBCbFx74FSs4Oj3HaRYTTjEtD4CiK3jAyU3I1gj46KDkdUa6V/IUNRdk9Pk4J9jhanHJH+/T/PY59Q83jTcCV127JnzK+4GXK8GvdAeCt+2aKMN670vs2AN8EdCbyhWv7iWD9NoDLcy9h/lMvBli7dRgCRV7lsKdeDpOdiY3DRgrSonpl0zjr1dDd+PIBz1bQju8ybYSNb07EtO5TribYsMx3TY9eUA+Xxy5d+OaCiWohrLSjA2iejvVaCyc6oj6h5IjnF3bICfLF3NS52R3cvHR13T8KxDhijJOPcfs/5pLOgFmnBjjtaohAonx9jmSf7N8ZYMBpLngHSk67HqKTtQRSnlAcx4SrIyghjw5iBmMFypNDOYh6yM9RYYId9fb/YpcdOkcdqYfa/ZJgXX8hpM2zVSj4JmDwLkDIiG9ESYJF9sj+SqT+USC8eeBjgMKWjwGK4cW9r4pwofZAabTKPRjOwhbCDL2nfiqnXUQcVwMu5Qy4hmIbNydUbXFu/LBBoZ0xhIJeHbOwag1jwpg4IpqDfsOlFgaaaMq977rZwy5yyfswt+DxnnXdbwOslQre/k/BSlzMPUJkzk8b0TbjYAdzxNsAlCFE1NBHhF9wQXdYcnec9C2u8lUSg0ataUcJoOSwgWOVe4AMYLRB1M0cQnB+Ck8IPv2fbv/vskPnpx8DkdovCT7/o3KP+kL1K+8yx61LeV6jER8DRFnvuPDT0xeCeAeAdxP8NgF+G+DW78lPSUhhOIpyFpootljTEUUT4Q/6Coook5Ovg6ibdUADkwhqqA35MIM+8LTeu7zFrRKatHNBO8rXwlbiKNd4vQUP/ySXN+uhnU+0OsolJ5Z2s0SOyDuU/UflOWrX5JsA+EuV6z4GYJyeqemgt/+3t9On/1FTgwW6m8h1kKMzrj9JRPPRP3mHadv2MVHj6AXkNYQnFNGjISlmZ3PJJPZKvTeU7JWLa9WjCQ+4yeEOdiiDKI4yvQeIBiT/qaEeH3IMHQodG+tzyu8h8tP/9zCEk2w6/yXBk2zpDPvmHYAyRG7cST4yXnU+JGMZzuHbfvTlvw3wytduqiHnM+dpE8Ua7n1ar4xoLM5W8hpChlLtbRawGEWuAfq6AHnk8Of5KVHbcl15XONrbfxIIEoNY4Kgjxx1yoRAtmJhs6zW4pT30PPNHES0dFsNyMk7xP6Sb/6sv1iKXH6rYt3HAMdLkXy1Sm//h87pZk8u2dJzMcY9q0gBzx1EQ5x2DDzyWK+mh+9oP86xrdc/M4C6iJTzAHYo5Eoi94CSPnIGTvsWpzwiGsq4OC45bNBzyDUDJY8VEFjksGVRBySCJQ+qe3UoCbbb//cqgJNvF78k+K7Hr33Pxb4TUObRJwzFrTcBSc9x7II08XKOH4ta5TEA3GBZU3dAcaccbltcVIymRK+W9C1OeQ0hQylno/IsYDGK3Nfn7E2BOjJP3GxKNBPbmHgM5BsF2kO2dokJg7PI2eExXCMINBdLi1PeQ8k38sHccJ+scRtXnb2dnsh5XizXpl/v2wCMN/Zx/Fi+oqS3/3cuq221U6LJOlnj3hKCQNcYzBCnXTzn0X5Ij+ZW02NbX+UzA/CPaKyetWe9spMFiRVyRTEhbwVIu0xvri1x7BjcQ15yCKJ94jRsIR1OQdjc29Ld/r+3cZx067/1V9/xT669euM7F0dbL3cn9qRbPQX/GKO6u4a2EucADrrW5wDUpGIfquIw+zBgvAMAJe4ChG8D6GMAiQXhcD7qrAGHvZQ4i0qOaKIeHCXKW5zyGkKWFhAuJBFTwG5HDpQS1+khrsZpEUGT7LVpSm7Sia90VUMmCK5aCZzYzFSzWhhsvoqeC+YgIvdHrSd2LW6npdPb6Ymc58ty76dvrccA5nFqVtRud3ntY9/5wSPc/t9/DaPHBkKJYhuTkDof5erPzqnq5YXn+iQRbQ35p75D29Y59hCxJQ4IKRF+a1zTBHep8OSV6I4tQFhbQ7roqGvnKmdAQwgf0KOCYsmjQ7cDjDYAm8whBPe8XKRP/48l88L+kiCHVS8BTUVnyVv3naQ44ngvxIm6fjs8DvBvA+hjAPxCoPyDFdb8DEWmvIJwj+ipJ98EwocuEBoQWii4b04aMHQFr63TZoaIYW6oRHrBNwzGN/TqYWuC4JKJIkLGMFoImw2VWjhw3ZRj/4PeF3Tb5I3babF9MpdbLpFfk3eIlizvRJ4HcPrVFtd6DMD+rJC23cO7y+0/tfTv/SMa7XSJRTLQgHayIc/0QphM66JzytdEtDXkl/oOJelCurFoXE+SSsGhbSHai3p4toKTGUviLs+4uKhyBkZ94OobHKWK0lAmZ0CQR0eQR950CIUXOiY/ebzot//LDF7IXxJsDptCwccArbsAfHfNpFV479sAtMFEC28m8G2AF7/4RflpaXOms0GOy1nR4qiFqtST1xAylKK3xrkACKo+cJ2vNe590nUafguubbHfQQ85Cu2NYQ1CL45ZWHUKthLGpssEUT6AbJYmUznt2Pce9/OR9OASH3iHsj9UOeUdYqRY3ok8D7k/fBYAA8G+DbC7ckZW/y0Aef5/5dnbL+odgJRFBBHalk56r2mhnWFyIETnMi4yJlX1G+KICn5riHZQqDe2DrceyCnS9vIe0fsGcGrAtIvI5pkQ8kGkAxqR15A2p4zyOGp5+8a5/Nv/m8jU1e//2bfdece3/DMZcxfj9wMwtLIVARRCVUBphd8IOOZvA8DnUr5UcXQg/0d+G2D74O7irb//qcW1N761up7EyMrpVXKGfyzk+srK5JofF9quQ4tJ2FuTizV6kpMpRkgUEsJCPpRA2p4BZLgMxTb1rkPk3WmxTbw7PeRdh8dz3x5BqLsnv1/9+Zd+9+pid7W/fNpFzd6M4LWXLn/7Fm7/S2+0MtAHW49DLoWdU7sWd3myr3EopcBrPAlDnHY1hK8oX5/LmxqJjvEgUstSC9E+rKknF0RgUkzfcRFoAqgnV7QKeYJiB9EUCgOMnPKEUlH1QFaAsnRY8uRADgYbgOHmijyOej3d/i8T97r4JUFfT8q+93i4cjcdxyEtc467AFmJnwWgr/BtAFiXo54cfqK+xSlvIid4DX29RV1dKMg9P1yPbd5i+lr/StT6aY7CFXrRlZJ3mglHdFVDJghumDgiZNRb2N0yAt0xC8NgdfImei6Yg4gaXtAjr5neOdIOOfV2GiK3Dnb6Nkei+ufP7NGnK1eu7PhPBHdCdnYAVzKGn7svffWvaNLQSQiGEEmCfgqKq5hEuNbkRbkcI+B40shPEyWEFAcTaJi2a59WQ9x6YVmEXeSaNjTTyfOGkFYrQwiX0E9BeLMQHKWi8oCw8Z7Vcagh1M0agGCj5fo7r/zURh2eK2e7h/jTx48+/OIfkHPzuXMVei1Yjuuo00W3UEx6DMBxJ87SxHHHztO3AWJ7hW16DAA38j+OdlRjKxtBth3R11FZGK0fETUAa5nrqNohLs1bH1EFUXNjMb6hV56miAivTBw5mh1L3BqhMQy6IG+i5525sU0aacd+RrTc9TnlHaLjup9p/XieTK7db5yn9vlzP/o3AdJjAGaRXR1E9n/QKCnxy2rbO3+clRQ9aJy8nPvAsuxg9NlAa6E0EpONNjXZhRy9S+0jmc4VSy66TL8hLm4yv+SIDO1NQ/QC9jVUJ6Y3h26naaRSken3hnVwmkKrG0cTngi1r3FUghxlEMVRpvcA0YDkPzXU40OOoUOhY2N9Tnkfjw6PPvnCHfyG6+u7XKhfEtTxFM5n4uU4CTbVw3H79G0AXvFHP5C5wYFMoPRHgcTGp5Vas5US6YryjKcJ7KOdXFDtA9f5BY48RBSHunZ6fsp11ILrWqeecXCDIV8JOf1ZibyGCAHyElm3C5GSUWQzNFyZe35Zj7mooaUd+xjSb/uZYcltU9f9y+3Q8Zz7OXM54ud5KZF9o5xcE6n5lBf5LMDtr978ocWKv366Qsrl0/9++z8ly6K2eJCUjPtmGAYr9Zpckfc4T0ZILlzGZCuXFwSufoAtLnKUpDc6yNWv2DExkUc/NT3cR/txjkl+Tv/OADpnJxBHUqTnTV5mLnKrba/qIAhKHlTZobR93/WnF/L11Ez8eiUX5ZcEm2ezqejOeG0j77RyxBmcCQNxffFtgMWlK4sbzz2vdoxiDOmUdhnH+uhF9XG99PWw3OyVo07aXHAotd0+rYusX7P1NteGLnxzBY6ORDm5dtD1sCbHMUrJTTr4GpuB4crc9yHWs01a/Ph5Mc7N2+TdfmQtdtw6mnOcFta3DtY4PEFeQxUGPbkmzANHnHgM8K5H3/nHOv34Efs9brmQT//L7X8YViuFk6d64YbWeQ5OoCYXCGeRV5Ku7eEk0Q7tgzsmfY1DKQXtqL2yYU47IErk0U9NX9qPc/Rjs58ZQJsokq4OJXDyrENqKC/Ulx0ER4ly8h5Kg9EeDSlHINFByXuO3L4mh6xSxL3d/t+F87nIXL0QvyTI8dQ7o4Wi9RiAbwJ8XUluKnzw2wCpojxrXR4sXn3x92w9cjmjGUO6UTtOyBoiPsg9Tq6XGXdn3DSoSyh6rcdGBZNtkB37kDOthugg5WiAXDvuHPINltgc3JI30fOu+wrsI9f0W03Vy3kwNDvdf8TeTo/tZ7RDy53eOjyFWyo6+8jtuHgtOoY/C4wYto4Wf6mwHKQ8JYNGqvTb/2iXbWeVgifVCze0zToNTCQTFSNC4EmejFIFHUaJiDASl2PlMJKizZwCoi22W0PqO8TbAJQaImrIra+GJdf0qQe+2ODs5OTekAUIY2vYTs8qCUJdC8lRHFW5N8CGMhxqsNcABP0iH9g62j/4pN767mtf95Lz/0uCHD9+KtNAnnBq8an+VAo/Sd4dpMcAncgmEN5I+GOAvcNt+cT1/uLWi1/Oh7vUYWstpFvVox9Yv1oI42J9i5ybO5E6IGVcB8nZ/kaQ6QSiQyWikVYiKIfNhgrDoTvyJkreNWygHCBHyJdhySlvI9rt6lsHmf+pyITRnpx9ytA7hj8HbHmGYCk3Qve/a5XHAMxP5rtGrv7Gcx8+unTlWqwQj1FHeTi5de4GSDoqafYNdaDa2VA5eRXRHiZPgfAe5crVyuTktMu42G2Co7khP9R3aIMRGUG9HNFHyIcQ7bneHKgXvCCdsSTu8oyLC+VwBf0Qh1PYoQyiOMr0DAhyKLyhHg45hg7F6+P2/1yaGXhd/JJgrfe8A5B0HIgU5Hzw2wCs4n8UCI8BfPmhxoZ5mlA+7MkFtbXA1QE4HJUoXuM6hkbIccxNguitQZV0Siqc8kkYpqva1zg6Vk5jGOfp7XN1OPzC5mg1ldOO+amhho3zoukH8k2A5bDjlLcR8UV78hpChhLPZ41rwlJHtIrlGYcux5W/DyyVHdzcvmqPAXbL7LuDHCYZaXuXH/ivMUgZj8pyX6YLHtW2x10gYHpybHJSwmQg15OHk+P6xDFppIAz+VUuQrSSBkGLo7IUeFV7ZcOcdjVE9Shfn2MRqX9mwLJjg9nDVkA6Y0nc5VXOBEhF1be4pX84QchAtNOMICLKEUhoQPXkNURdFtHLuX99f/qfuRjGi/dLgj6A2W0+BiAvMQ1kV6SBn/PqtwFgEt5M4NsAt57/qv4am9dWwGi1CWPSxLFOSXslx9jV0sC0XrmeHHXKzQNzqC8z92u9jk1POEc3aEceEcco3l0j016Ls5xWD9au6RkObGxf6PLFfYK5itxOk5wnOaAcHcs5lpyor3O0zfNVInQolBvrc5F0eWVHPc/dlT8ciRnuBHixxwC7k7Ld1WLtGvrtf8lKTbuyTL0wPO8j+ypZsYEMhOch7vHwZNVOKlyo3nGQQykF7SI89naI066G8BXl63MsIsf5zADisN4kRGBSSs6AJe1WhjowJUHwEu0SF8cqB+Kg1iDlEZMDdTx/+h/5mFbO5S8J4tSX607iUBal9VcB1aywT346H+kxQNjwU/v+GIDWeAyAol45YWqIdqKc3NuP65b6a8i1Mc5j+jOhvpYbSlCNH8bpB+vI0cEaZzqjfrylSRZsjsbkTfR8IAcaTuQiYG5UL/mtcTstUt/1dl5KjuHYvSlAfDVOeUQfKagBcV6aHRPrdJtfqsAO/UlX/pGLUnT6GGCxW2kkbxJskpHe/t++JH/8R75wuIGifWXLguSG2OSkIMljiJPsJ2MUxVc86XCtgyHK5RhhabuO5KeJ0nSKA+2iGKbteoAjethZL5rojpM+bwjptDKEaAL6KQhvFpKjVFQeEDbeszpWGtJP/6/216+0mdfpy7n8JUGOm945ayo6y7iRd1I70k2CA7xUOo9/FIgm/keBsm8DcMIAfV3KEHV9Uyqxti6ZufWPems+9nkkdqsw7ZWuIqIp8IjwxhBKhG5DhWHQHXkTPf+2aUvYwu00RMw3c13/1a4vR8ejHnHYeTB5xykfx37i2DvBomNp0xd52uwl30muAXj9dH5gbD8R/K6f+MHvCt6bh2y2aQDFIW7/e4IHDQvlmHPVcxBJ3Tp3A3Qe/sMk0pMdJht5FeG/NkgKOXOJpmBPrlhyscn0G+JoO/olRwYgH0ZkCXZDqE7Mzhy6fZdeWjDd3nBKv3JpQvVoygNucjiEHcogiqNM7wGiAT1/3pDzvceWf8uczq9TM3DufkmQ46HXwULBxwCtuwA+/5ObCsfnALa2w08E0zjaym0CPgZIE4ITBQjbEsVPbf2hexvbxko72lBObpOuY5OOOJ1oTF5DpBfyiKwHLNIfVVOP2SztW5xyvhnqcc9/0gu30xDRNm9d11Xf5uh4tEN8ln+Td9wih870xku9WxWnDOPE7QuMm37Mf5JLtXjb370ImKOp3wYY/S2ARz/+i9dv/sZLz2V/+79r7WwccbIxmhaH3AtPbuJy0Gm7Mb9pfW0uod0oJ2fbx+fWIxmyPleN0+/GcGqAtIvIIJgA8kEUB/rp/7uf3PvE9/2ZQdNZ2czA/R/91Le+8ui7n5bvDj3YNDorCoyZbIaCQqgKKK3ci98GePjrZTxiMQ+xlJzxDWC5JnWm5eQoeWd5rCOEXbos+bEcb6YSw6O3Hpe8x82XV+7J3vW8gseYKXM9xunrRFA6hM08be6Rs8Gh8aTnSl7ww0BeF78NcGPv+UfGvh2FqoPl9q/8znfh0/82QgZNN6asBiUd04IO4iChn3ycZJUPcCRRCk82B41ylyd9jUMpJdkbTXOHcQMRbo1TDkSJPNar6Uv7cW53AugXEVmWWoh4YE09uSADQqNSyBWlCnnWITWUFwZQQ9hEOXkPJQDYoQGdDPuL5Wu3/69VvvKC2nPpMpB+SfBo62X5lFtxhju7M3vk83k0vt5jAB1IVk19BC7SwW8D0Fd8DKDj0cel1Nd1BRPC44vrDBotOWQovHo11tnpmKdQcYVTRdMhrM0/2OdpySJYlbB51iMfRcmjhucLjG7u4oS5Ui55nsIt77Y/sB7igXyM0y5il6AyUYGPdhABSH/4TB/2kWuD8sIFlq6J0GsbXhFUntTjjwI9+MDjf3gx8lmA6AauekVv/2vj7EnPZOOCakuMVFD1CbFZScFJbCEUHCQtFBMdRNSTR4SbGhcZijZzCoi2NI4GUo+IYDeMiBp2mj3Hkmv61BNfJE1aSvQGLUBYuJ3iKglCXQvJURwpd5SGH3j/N3x61V+/gtu5dBnAm4Cnnnrkm+UNwG920jN4xHEUQ9N1qVBMegzAgRWd+bEP6Oq3AaDjGwAxbz0G4GbERZu8hXxDwGjIaU/5sZDpAQ7NPzhnWko8VsN5JYZBKfko+vmwTRrrkNWIHHky3kYsRNGOvEPpvm+yU7GfMPaOCRTuHeSz+xZqTT0/UoHVS4RRlHkusLfpf48fRnhDMeXbAB6eNt97we1//O3/w50d15XmJe+5WEtQelfOBIjnOncDAdP7gQ8SnZRIWOBxUCU5/IfBho7oICvkaE3biXo5VrnUp36TKO4H/VKPyNDuMCJ62A0h2nO9OVSveEljziWJu13GxYVyuPKENDn8wQ6lgvbHf/75bTOYX9fJwGf+4lu+ePULv/qdkuiz/SNCPh9TXxPnAEmakYPCPvnpqlW/DUA13gQkg4X+USAdpMEP1w5U4THR3HQxcMOh+5JTXsViPvqEt/mFCtT7fOO86yFsu5DAjlXYHCu3OOXsa4/7wpH0wpHeGtd1WfX5Jh/lSESNU454u/Njiei49abkmjAGriYI0GxL5BV+C1HL3hy4A56LEtXQhZ4jXVR5TD+CV3a2Pjx2h5Tu4bZXePt/KT+1aqODvaNpySnfDJbelYeI69wNBExP7puhjSKc7aTXQQWOJJYoXYGcgwc963GRoRWtD2xxkaMkvdFBrn7Fznth7ZwYxzZ/Dv7OgDz/19v/8idvPYUzrJmBc/FLguuc7XDlXk8VZ5hpBx8D0EF8DIBZHBZhrhEwTetC0GMV6G8odLwC5mH7QiT148JRW3DQBPNZ4grNl6a1cKIN9Ql9Hc64r7eox3WXuYoc6cy5dYS5j3mnHXya3Nf7xClXC7yk86akwjWBDFyNEBAM5T/lznnlTzMJ3OwgsLDtMYAadDLqzKc7zcaRV4A/LdIvPE6QAnzfW37fDyhpvLBWVY3b/4fqGGZlr1CF1Uusujs1oUbjSUXYxrG5SeHgApZcT4pPTNqJDQcPEKXKXZ70NQ6lFHgps9nilANRTpZj+z8Hf2dAHnLp7X9Lyfy6oQyc+V8StOk33tvWYwC+CUhrWsOVz/PmtwGSn+7bAFhs4/oAz9yA2Ar15KWe8kkYFwRUiDwuMHHBYP6IkxqaZhSbL8Opct/EkAMNN3LJP3Oj+gbHaYp65re6PhfrORIW7RFjySGzUknYQIf7m720hk2ZbqzDueuoS81S6ALPEdUZJh0DM+1re/sfzuwK0vwWAG7/v/zbd17GhmmjS6OW4xYWns8jRVdjztF3G2Xj2Ogvs0V1i1N+GshYyu4On2fWOkVkgBku5W//z5/+P5mzsIvhJ58b+sBy6/YjnzzaXv7Jk2lnDa8YC2m3cz9pjQp+79W3AUIIPOSGRL4xzOaFeI18Y42cnCMur2yBvEPbpMtNvsb7+xK9ng7qOeYmr2PU2+X+sUoYx6mT/HMHSYLFC6/87oOtbwPYhO9s0xFu/xuJo4rOawhruiuRbiknXw/HvKk+nIw6dwMB5N3e8BjqO8JuNNo7ROGUZyhVlBeo2VPHplcuNiiwJz9NRNuxPXKJyJfWGiI5kE9BeEQRezQkxep16TVp4LRzZIBaX8+L1BDUyY9P/8/lBDKwK9mX//Jzwkd/4+c+vHVw+A/t2wE4AWe9TIiRV+6pK6GOztHAk004iH8UiL6yxwBmy3WANTFmj11YtYYIF/IaosGR7sBkrLBZ2rU45T30vjMHEZHyGqdc10epPwWRCMs7Ubqv5xSRWyLa3HrX6dlbBOjHI5iu8GHnee8903e5esyOIxHtOuMlBexxC7zp4Xd8X8fyo6JlKneX3af/aRIx9LI3+uCDemaNfktO+fFwzJvqGbZHxZODFk3vBgI5903QRiNGU9LroK3xMNgxmLJZPVTAAAAlcElEQVTBjfaol2O02uMiQ0EcqleWc8qJpT3lQJTNctvGGR8iQ1ZKbi3jFZPRmGcvcdpQr4GKsMq7BhZbW1u35tv/zN5J4a5kfFfeBLz/e6+8dusnbQSeVFsr+uXAHqvGxwAtuzTQGgaix+cAVvk2gG4C4o7zuuF5NfHQBMa8QBlDszrWa5nuFqe8h8ijb+IIgOsiN9vIsTyWHCsY6zOvNU47tGF2Vg+cCWL9PncrX5+NWb10Oz92DHEWf5635FobdwRYcBioHnMMsl1y1lkLGfBiMfQYoLMKjT368T/6wNF9D/zpbjWGktEDUa3G6Y76yOGjxaE7vcIoshZDd1Qv3NDfUWIQowIQJ6rG/QTGQYwqyh0HOZRSkr3RlG20H7Ov8cC+Ig/dSXq4i/VX5zKppBLbwxGyUnLK+4j2LeoeMmAEJYVzQlGqkC8O9n+hdTvLas6vm8zA3v/66f9muXX0P23S59q+yoUycRtbyT/eBJR/FZBX7skoHCQ/nSx92L+sh58ahiwZLBav3PxPNsG66tOPOP5riG5FOTm7S5ze2qhlbA7Go9wnKDfZiFwP1Y/YtTjSj3rU2+mI3Dra6TuOCCFHMSy5qoK+43rU6GB2ZQ9D2CFO3u6HjNyPfYkDU50d4NjiSzwtai4peTI8zgE7tFhcWhx9WL/RV3FTRASL3aXe/kcwWUA0HULPjjYEO3IGU+NqfKovjCZrNHRL9cINbdPDyWtyKKBHvlooJpmePCLc1LjIULSZU0C0VZ69yKlHRJAPI6KGHRB+G2iO1EbtnHPOKKZP/yez+eDEM7B7eOZ+SdCG0HjP+TmAcctgUQzEoNFDPgbY5lejReqPAb72xWdt4pR1pnA2GxH9BGd/x3BKOxNtYhioMsqx7sHOJ6xt0sZtWbT1MZfbJp1v+maHFnW9TChp0P2IcvLpyK6bHzLHooO8oifyPCSOauX5oIxyci5i2X4K5emV1mMAdjtEIhNePv3/2uXLOHtBzsPYO8jIgbCvcfqhPnL4KDlkKJQbW/e19FblDJ+t97gLBLS+jm4xFtTBr1w0gcdJkeTwHyYL+qaTo5CjNcaZ9CJTudSnfpMo7gf9Uo/I0O4wInrYDaE6MTtzSAHSlcrRwcF8+z9l43QPztQvCXJCjKWAjwHKuwCsp/NvwBnmV+u3AegDKHcB9I8CvfBS+gpWVGfHHM9TEKHBjiES6bDklA8gm6XJVE47bp49jvVOnCa9rn/GkWbIdf3K5JLfTN5xdNzWR6KkQc9XydETS4Tp2TPad1ztGDjF5AXyCp/I86AcdRGLNWuesuNIRC19vNfFHgPsFoHJTawysPTpfyg2FjgSENsmj4mBPnIEcE4L8qaD1eMnr6GbcHKwxz0uipidMltTOe1qyLbRDvQsm+PWA5nC7j/2iK21cP70fyszpyl/10984U/81pdu/aPFQnbGe1l06BTjR9erUnZkUR4d5NHiFj5KWafCl/JXko8O5D/q4D9/FRW2lN29s9g+uLt45D3vXbzpbW83361XqVadYJCzcIKSnyHshS95iJtvt6nbMhi5dcPsIWfprXeyfka9JayzZ711UduV2/m4sk+buzgtua7nId5qu1jzo03Jq5VOT1j7NkBvEt/87b2PIKQlBjk3sRYOxs6TxeFS42yeoz1yjcJboHywwVNTajShO8axrUnhZACW3AeEThbaiQ0Hv8pb3OVwqfY1DqUUtMusl5zyGsI2yjfPZZJJdIwPkVqWWoh4NIsW1/zpf5ySe1rO9C8J6jpl42W1JIU6FR/8o0Bb/BwAHwPERvwxwJ2vfUXnpw5Y6DGhUCJ2EyCfcAyD+sjNy7Ff2TwdkI+ib2jcjHUzR3eCnOsXfKtecmjY5+gw7QfXu2J9ZD20wXq20kUObaM0OsorfKLWlryXHOs6dVWEkDZqUOGU3yOsPQbgEPOQdpeL+x94Ah3RhRcd8k1LDdhB4mBH6HoIkVToawjnUQ5+Ngqi8n1J0Tg2McgHULuDyeF2nl+dTD5ptL7nN5NLFeUFavZoD7fQy38UbeYUEG2xXSBKjSMi09cQ0UIeEX6sN1tHR7fuvPctP6fO55d7moFbP/aH/uX9L3z+g3JJLD8idI8KB1ps3udBFC0mPQbIauQE658UfBtAC98EGLMPAuLYHwPcvXmrv3moXl6GJiRsbKi3ETbHLGW6yEfR+2+btnRT1ymizNcqp7xDnclyfszeOmrrGdbDyKX7EzkTRfuh1PDZPVFPpzSbOCpPyX/LZqjxM6KrfRuA599DlK/+3HzpQ9iEtABxMiKHouRm3cnJFZkxCiNHO+A1hH2Uk9cQMhTYb66U3qo8dEf1Pe4CAU2b5lNiFMRkSPkNXOViQn3GKXeE96hXLjIUyMlPEtFW9N/iEpHPsRoie5DXEZ/+n3/4B5k9G+VM/JIg1yGmJHGdiZTWsdzIo1Xy0wnDh/2D0NsJvvbvHi5u3fiy2LgOEwMlThCoIlcDeZkQNk2JdH9sjvVICv1wM60h0gJ5hzJfq5zyDtGCrkdc56RNW7d8HUyc8g4RHwrXOWMq6QKnMHXEBc55RU9k/hMXc30zQD84F/F8ZMeRsMLZx6sPXn4fPuQfIw1kd2k//rP9ZNyU1BiDxM661S05PULeK6EJ1bU45UD4qXH6p56cjZac8uNh6a3KGaY0ofoed4GA6cmx2UlhXgXJdfKRw6/nW9E5JxNc6CSkHVD+o5VkTy6IkvRGM671RE4s7SkHomyW2/bP+BApsgJ+6Q1v+j+0wfnlzGTgnv+SIAbGiRWOcGuAjwG65nK9yuUxAD4MeOfWXaEhOA5oikqkU8rJJ2AZxcrc1xnWs3UFy5JJuM5Eua43qKfxArvNHStCzm0doh90qaanvIaQoaBeXoQzcFekK3rKgTA7ie/t58Gcebb/8t0nnvrpH348Bso0iWz3MP31P5x833TUeAqHoQ+aHqqTsReeXKCfNa0SOcOlPnIYt7g6OrUXRpE1GLqnekwaGPjkUaxxkelkpJ1zTiJU0clFuyEOYynJ3mjKNuIZy3bUo/pmObZ7O4tAHCFLuP1/6w2v/T/lu1c1mV/uaQbu6S8J6gSa0P3WYwBeueu6NeDM17XstwG41qH55Gdbg8HnAHQgM7Q4sSAbaIpVVkWbL10t8iZifZei64hj4hIfN1uuM4ZuL30nR0e5ues61eO+3oysX2ibiTE/HVdV+dLoWLqij3r0Z+h7+7GpeG7iOYaN56wM5fxwuZh69fAD8RcCY3cX+1ce+LbUGXQeHZ6KqBjtyZPDsQOGMoQ4q9DXEP6jnBx4ugVR9EroluoxiWA0BT2vOilhX+PiKpOTR0RzNS4ylJi9VpY3IUdbQ36oR0S6GKTb/7vV1MJ+LvcuA/f2lwQxkkLBenWahe3xTYC0feuWf+OAo7WFG4yz7DV5Ez1u27yxDHFTB5Y83+Rt84/21sEoR9d0PVoBbQXq6pFX0+Qd45V9iWmB0UDcQ3keWjqeUyTiwpTl4u7B3f1LD2x/G/7UN7vF8aF8+fBjl/Xsg/kmMxlRB4ljPfIaQobCRBvz1xRbwSFHuC2EedST1xAylKz7JlrjtfRW5aF7qu9xFwiYHgdyJHnVzZD5DVzl6E20Iy8Q3qO9cpGhQE5+koi2hvxTLxGJ4f58+x8JOePlTP2SoK4rOntWzFqoM+Bj7NsAV47u6NDtLS/B/dTAME9imcppN2UTtmUjbvJYbiLPN3tdJwo9Yoxy8hpChsJ1yFifaxJTR9yq4LyyLxELjL4p6JyrO9Ls3Oi5ThpdawO7IIeHi0vbV3Zuf23vMdztZ6fyIfm1rzwmZ8V0EbnpQGOjxbDksEOhfYubVSPReUjdWaO8hmg3ysnZz5KnAHiwEWRrdFblDFOMVN/jLhAwPbltzjH/1Oskl/NSRbQj54GTE7Epd1QuL2hF6wPJBVFW4epH6tQQvqJ8Cj862rp168f+2dOwnctZzsDuUn9E6IGv/Wn7EaFTihUDqixcd6K89RiANlzvyEvE/PLfBlBVuOJPHDL5tODeoTwKwKTRCRoclTyoWodl96Zwzlf4tHlv2HG/mEh6rg+0JzdP1fWD6434qOnRVlpP/HyQQ4cyxjWB6HDWIeO84ocf6Euu4uxv8YsR/LCoT88mx8vYGGDdc4F2xa/7hcYLviff7c9LPp4eeewrclbMIiISM4UzgbQf4mgl6mvcImm88mzqmRSbGmf3gLSDuyiPHMenXxgNW1YeumNcJiUM5DzoO2dgyT3vSe/55eavcqmj3BEumhxKKUlvVNsts0k+hKge9ZP44f7/iZ+n9aZnOLMZ2JVTK//vxS8Jch1hbhIvhg3fBNAOWG7kUZf8dMLBbwN0ZmsfYZ7EQt5EX591M5aK3FyVSxpy7hcLbqfzW9cVs+s48te9GYAcJdfXOe0iiiWoFKIxfW12TKyLD/ChOq/4tW7JIWQTRJVFIgLPGVRaSk75uUS74kfouPWPfFy6dCX8/WrrVJ6R1h0A2HIyDCESCP0UhE8mvIWwaRaGPoQYVdDXEI7LUQfZ6RdGwZaVh24Z7+4ANDkUkn9Np6IIWiimuihQTx4R7mpcZCja3EmixHbloTf9fHxmpQ3PL2c4A7syLOTrxKf5S4IYiFPKBn4bYOq3AaaEM2TD6U8b8ibKXEHJN2njthzbph83b3tzUJdj5kc9fNubCJN3nPJxtBVDa+IlL0XH0qYv8rTZYzkr3wzAC88/sZR5bmxhzJu9OKy74rcNv7vix8Z/927/6h99Z9otD7gDUBZuzpS3uI0yjAKMunGEP56YMWTbtCNXjGcdAnIgutdCqPmGiGloodhqoZ58PSy9VTm7I02pvsddIHnX9Gj+xVi51AjnQxcHyuEPFUpOuSOzJ1TtW5zyTeKW/O3/+fY/Mn8+y6n9kmA5cVrp4h2A8rcBeBdAJ9CAM9HjzwIPfhsAvnau+GRtBdLJMV9iaXHKbRO2VQ31Esc8L7hNb1sX4mY+5U0AWoh28K3rhcs7jiPTmd44ZR1TSRe4KrD+uEWBcdOPy3iSSzV9M+DVs51MzyMVgp6bILmAh3LF71f4RHYSmz9lDzxyJdvj89GOOwBlKZPZ4pQDkfApnCeG9i3OmKgnV8y7IA27dggx2jzOOLqy0Yj6HJXusscpPx6OeVc9u8FoetwFkm+zr3DPL/W6aMDe81njnPzoGerBa7JvcZGjJHujGVc/IieW9pRb+3L7Xz+wsquhu7sZzk0Gdk/xlwQxckLh+hNEmzjs3wFwr6G9h675ZwAmNFhErfMiVkvzITVj85z1OE+5+Q5xm78272kHt5CPcdrVkDKuD+AoJdeVgYGbRVoI0pW9dzhxdSQvyC9XAUd9M6B+5EUXHXfOfSKcE5pdHKxc8ftVPjZ8/L/60AN65c87AJAd3D0ceANw3/WnD1dNGpMdUU8Wz5Jgi7Mt6oc4zlzURz7prHo82XaEijpyAkLmozBNRx9YPQ7b0y+MJms5dE/1mNQwAHp+e9zzmfSBc1GAC10cHAc5lFKSvdEsm2PZph5V9fZ/8Zer3OUM5ygD9+yXBHU8V2fLSPZCnQEfrW8DXH7wYUy7rBS03Mva3OcxN1Odl+I54xLjFK7zXFrS+cl1QXxN4eiM1e9QjiCWQjSWcXZ8CKV6urKHXeR0z4SyKSKbBNKGspJTfiEwv+LnVT43fmz+d27cTm8CwNHtg5v4eypdCWncXW7fvfVLy1WT5puGjA7zOoTwHfXkUxDeox25tTrhlV0dQh99vTcFcfSiPvmEZk/ApNp66JbqJc+jCAPYeV4HEb2OduQR4a7GRYaizU1A2OKnf+32/652A7K5nN8M/PoPP/4z73r82vfIp+5O5nxy/McUYbyWpfUYgHZcn8hLdP3QbwNcvXYpLXOsXoZHPorenm3SmK5WI3LMS+NtxMyMduQd+vyWgHWeT0Cb0ehhmefAvYO8om8hvNgCIRVYvUTaEMfOFewuTKlf8WPD37nfHmUT0WVu/hEh/+zvfeEXgSwcf8J3D/GnPbfu7t1a+S4AvQHLSUcOxAmrccqHEL6jnryGkKHAvlc4qqggB8K+hbCPevIaQoZSa980x3ktvVU5u8PWe9wFApqecF50canwuOjg/GUc7XiegfDe497ZpBeudg2E+eH86X+k4UKVE/8lwXK+J17OFE9r/CwAPwdQy3jyY0o8Buh/G0DacLv7r3998uKzrccpT5utWyTu62TkcF/jOq98XkJf45hxUU7eYTdv5UijgX0sJaddZ4MAnRXIK/wWopa9OfCKbLpENXSh58hbvFCgH+Qr9g98jx+d5C19XtXXOv75L7/2CuRm4zndvvyPyt9TYXo7Hw89+lMr3wXoamMURdZxymuIExnlLc4TTn2LMwLqyRWL+FKSKa8hEhjl5J7YbDuLjVEfZcc/Lr1VOcOUZlTf4y4QML0fSP47LkeB66ID7nnPEO2InIsLeqfcUbm8oFWtByQXRKlx+/T/h3rfW7Ua8+t5zcCJ/pKgDuAVMnPkf7GvWsXnSdLlvPdZAF+/llevpaUMVfNaHadc502w4zziZjvEbTrWr+xZDzHU5iciSfPR10lym5FWD/VZOn2S8MAR64YcckJD6pxX/mqoelHwfDn2nunDONp4jiVwdXPxXrqrfP3QHnInfebX+PA9/njFH/uPjf7XPvviy1cfuqpvEr7lyYcfBEcC79y4o48CLl/Z6f2aKprIyvIrn/9XmWBThCethjixUd7iHADUD3HEHfWRT+oTBxkQaapxpo/6yLVBb4lyp6cMZevKQ3c0TZJ/k9tmjvPR4553XZyg9/xyscm49HGUMzvih1lW0db2M/a3/085UXNzp5IB3Gm0nxPekgVqg48EyoHe6k3rMQDvAvi4blXHutL7NoAbP/6263oUpled+3qnm7NYcHNVjvkQ9Q2OMKO9zTebl5Sj8dr8xHoW5yftIuLYSiWxAx3sb/bSWvG3+LG+aKHrEqFEB2NhnSg758f5lX747r7c2kfX+Gwfx/wkP45ZsOHbRr9YfNMTDz+IvQocqSLn3YDf+f/+za+xHrHI8GLxwPu/4dOLg4NnaLAx5MlcB9ErG/XjiMA5YEqc1CmmZggxiKGvIRqBHIVo7LRfy9aVh24Zt00Y+W1yKKD38zCI6HW0I48IdyUX/1vbl35y/u6/JOYCF7wJeOqpR75Z3gD85ma7yYHtXrFenEDp3QFAG/K14vsf+Dptja02UecRppNZ2CZt3KaNzbO4eXNTryFmks63hD7/JBqTr47aEX3RFaGjOCo6ljZ9kacreV8v0vJHN0T44XFEnjOu27C7UIVX9Uu7nY+/0Ic+y39e5eOKnh/oA5ZX/rzix4mwjX6hGz8SahwJtaSCyy9U/hzmXJlGnsYkx9/03r79e7uv7VxOshM9KE8yeQ2RJMinIIKG3RQ0q86eXJEjk0JyIPy3EGr7cIbZoT7TXSJ0my9shZ6rnN0RI9X3uAsk75rOkH9dvCo8Lmo4XxlHO35egMweYgTHh/+uv/PKT4HP5WJn4NR+SVDHWzn6Q27jZwGCuJu/IhzwwW8DvOnNcgGGP1QjhdNoaPOFy6gn73D6mwC0aPOK2M0zOdKYOO/6XNVpXhrDKwJ0NoLpCj9M6N4zfQvDHGbHkYgaa8oFK/mVvlzN+/P8eIXPY2zu8cN74FGWX/Ef+sbPK36+EcCdgBtyhw3lcPHlf/8r/7P9CuBuluwtM4ivMNg9vPxDn/7MYnv7yag5M8fcdBgQeQ1pY7OKDLNjgwMtjHptocXjwMZ5iLwL7dwdMe8MnBzIUuRbN/+g5+J0cHfvf7v7t7/vr7PajBc/A49+/Bevv/Diw78s8+EbN9LbMK7UX+JhPELBvwwYPwtwFGy0Xpsvj/YXh/Ixgi2Zx/jjQO998j2VTRTLTLcpa7MNjubyzV+jR6Dql28WIC3nj27W2XqymfVF24m379E44pQ3OulKH/EUHGajpVgTvPOj1c6PgV3Rl7fuudED48Zebvrk6C82/W964iG9xc/+l7KSww4+FvLhv8//6Cf+jNXbDQPaRg39OZrBzuHen1/r2wCF15WpTj6pVcM4cLpZI73xTT0iGp7CaVdDyJoF+YyTbYjDDoX2kVMeEcenXxiVtozJjgMOm8RlUVK5L25yHnoceZeimzv0gcdFkYvZ4dHWM3e/4aH/TivNL6+bDGz8lwR9nKUEJm7jsZNXrn/4OYBkFA6SH5PFbwO88eH7ZBPcya7oYcVxzs17iMN91FtzNm8oh0/OlzifMEGHOWpaoR25YpjfkWdX9lDADnHGNwXk0CPF+M+SHUciBlzbaVtyys8R5lf67Wf6Y5s/NnO8OUDCcYwP9SGxOLZ08FY/r/jLOwCwOpRvAVzd0av/xh9Ukz9ZVS93/90Tz1966pFvWuxcvjd3AbZ8cq6CGECcpKhHPgWRhqMjq8+BCD5auIhMQZ89nEUZoiG2Rxxt/EQMstalW8pD94xvuXwAtbui9/wP485CHj39yP6P/1v5/MnTWQgn0snZ6dnKwNPvXDz6vY///J3bl5+ST9itdycA4y7NJe9mmsthaOEOAD4QGK/61dxttE6wT247/ZFc/y+2dxZvf+c7pEX56wC+Xm0J2rCPyM0cywzk5H0UC1mObL0wlDA1HsrJp6Nnwv2QOYb5DclS7mgcHUh/5MoeqJu6hJM4jJgaImUlx5qM2NM5gOFFKrjSf21/e+fScnt7Z3l3f0+PFzIG9Fhkh4cHcroPDrGp771in8rnFT4RGfncF27fevOjV668+dH75e9J60Be4NjGwJEem9zeDLz50fvc1t4IdNw+/b+/v/zU8//LH/zfW9ku3pJFs93D5at3/trafxcgujzOMTdj1m1xm2226cM2cntrLaNXutuSo07Uk9cQMhTY94qdtE5MDoR9C1GD/sYQtii0M7bua+mtytkdtt7jLpA8a3pCvvXKo8Ih33rtzifv/N3f/KT96d91ezLXP38Z2D3EnQD8iJD9nPAa3w4oB24rGdj88Sag/AwA7wLoAB5wJnp8G+Dd73mrfGJbxru0g00dxTb3EvlMn3LyPoqFzB/16IjlpsbRmsVoenArJVe7MF/VirxAXuETuWwpR0XEYs16Ywb6qnEG7jkJkotzKH3FB/d4m5+399HBeGxX83m3+Qn+9pV+9xzfnufzDoCNg/zDf+UdADs5N1750kfyVnPG9325NLHd5VM//cOP/8d/9W8/c3TpyrUkPm8H3HQYd4vHgYpBPMTpayOI2RdnEzlnJRqxk76R5k7bCbvDdrP8S7+Ojp7Zvvnid935e5/73fkNAJP0+sYrf/1f/8Te5Qd+5NhZ0KkT54940vlcyvxyNX4OAI3yrkBZp+Bvf/zq4v7rX5c2aVTtruxtn4wcem7ufLMACTbrIX5S81/bldv55TP8kuuGr31HtI1yqmtmI4YTF3cbftzgcYymsZnrc/fGMd8I2PP6hx9Eyn71mfh8n+Mz7gfsFHTcB+zNQPxcgPm0zwkcbd25s1je/wQ+aMvaNWw+AjDjp4+++nPXb179wFP/+mD/7kfwmYCts3obB4MTt99qyIFJfYtDjv5RP8RpF7GW4aYMJxPvv+JJLTlONhao7qR3nPKIYnoPCqNk08pD9zSNcl5wexSPAbDoKOJ8HOzf2r5149vu/L0feHa+9c8Mznjw/z7+6eUfft+W3GL/wLGygWmh80sPzAXGm9IgS4dyoHcCKHDU+S3LJN8QBB+2+eOv/sm4RnVx3232GOflbX7Y2finHW7rc/PXedHgrEd7Pg5Ah1jPOtl4DfMxLTtIh9/eJ3K5KXn6wCQne4loFkmIpeRRd26Pjxbby0uyEcqTH9zul40feOX6fcv9vbuHl+67rMg3AkDIeJsfm/SbH70qt+2vyi1+pOzQb+tv6fN93O7/tc++pDaHhy8vPvO5V8LxHT2m3nwcyZi7KWPviviBzyP54N8r+8/+8jPf9tz/+I/lK7YflEifLk5Ml3xRTitX/+zf+S8PHnzz/z3N+pxa4c1D3PyH+Kl0Mb45wIyL/FQCOMFGpD/pyh+b/1zmDPQzcOUv/4u/uveGN/94XzNBgvkbS+KlnJt9+MuA3PBRX+uFOodysXftTYdPvPX6cnlZrtxxBS3DmZt6Dfkmnpt9FxbndSc5iSNtN1zp8wqfuFabXDPXcnLWK3dX/oi0fsVvf4Wv3xNereODfCi2jvMuQLxyhxbptLsCuT10LHhzsFzipnznm372b+1/6LM/+s6naTuEGH2Typ2/++f+/tZi+aOTjM+SUZr0HhR5DTmQpyDcwW4KmlVnT64YFpaM2yDhYOmjGJ/nvzMgm/+D77n2B+22f5aQmcwZSBnALwlee/Xl71gcHeOvBnJ+0lvijWUvfhaAnwNg3YC48n/ynQ8tMf0O9+1vuNQ2fW72QMzfnGM56ORwb7yPbJp6crG0ZaETdJzLiiOf5bcQLvBmIBUcBpofR4XYcS1Nlc//Qf5pfvTHfn2PGz8k8Sofx91zenz/HhuzIeryj/Ngk7bEUlY+u7d00h53Dvh9fqtrsezd3N7fv4WTG/w8+chzX/iVL36Hbf67xUlCvX6ZfAfAqu4ur33sOz949+aLnzrXnwno5yGXYECnxUJU5DVkTdjHiVBy2h0LcaLj+WxxyFlgHznl9w7Zg6PX9j6594nv8++l3rt45pbPTwae+unn3v6ZZ178pzKmv3Fy1Dr8izmQ5miQ1/4eABqJdwHA5U3BE+96s64N+fTuNncu7tzsUQ1ljJvV+q/aTvyKHlxKV8sr/ZJPajnv9KQq58sov8pH7Njw8QE/YNzweUsfNrzytnMPSSwYZ7xK777HjzpPvndbPgPwoNfvfx7A/PIuQOfT2sbdBvp9+MHf/A/P/s3rX7f/P+hXajvT0SOuyaOGZrB7iJ9ovf7eN7xl6/7rf3NipbNpxoWghnGgQ09eQ/Quyluc8hpC1iw2gLrNfIjzdHLzjxwNlLzZ6Iko8Ff+du5/8Dvmzf9E0nuhneqHme57/puuvHZ7+rrD4R4zg7laFnwbACXeAVDutrIGvP2xrcUT73nM/tKfiO2KH0bd5m9X6CXH8tB9yh81ahxyzk/z03FVlS9YBlAK5BV+Jke88U0BOep7F3uoOipBpHCtNHYhXvMr/f739oc3fyS/uwLnFXqOyGHfBlf42Pw73aGOqfjJfvvuf/c9f/q1v+1vft/99Zfv37/12of2HrzzsRf++39+Wz5EXZy04dO04h0AOrNGcDfgtds3f/zM/sVAhrsp5JsB+iOfgqxzohjfHNgAsRnOVeJEG687l/uk+lVS+Xlf/SM/u/Mv/NUTNUunZuDax37pj9y+dO2/Pdre/m65TB9e8HToF+M/bWRBXrsLgDsA910/fPdjlw/5NS97r59v8ngzwMLNnfykUdurPNvXDb0La7UweEGzWq1zZN2+0kcn4lU/eLzyt6tyu5K3Y/vVve7T+Eh6PiRhh43afqmvW5fz+uanb4cIcn+QoHRX/dj4UXZXPuPHfANgzem7jd0PLK+9dPnb7y63/9TixgsfObhy9dpaPydM16eF3LzZXotTfhrIWKoTsRxg5JtEBnB8xJDFrX5ZQJ/G3/Zf9dbU8Vuea75eMnD/Rz/1rQcPfd1H93au/ojehat1PC2J6cCsMI/TZTIOwwcB5Q/7vPvx6/uXti/tYO21TR0oZlKPm/xxkWGyfovrwq/rjYeKSbXCNM9u8yN4VGYa6AuNV9cZKC5gkb5yg0fvho6x8cMm3u4HRxLxXB5X6DqMggxX8PiA3jO/cSB/uhe373nC+KiAbxj6t/bVjbyUbwzg7/CV+xef/dLNl9/9+LV/gZ/1/eqLX/gHtqbuypnc5Vmli8m45hsAtIMAWHYP8e5878ZXv3v58GOXF1/7ymNHl+57H7Rbh/tvv7CfG9BJGtJAXkOmqpx0JafdsbAbdFadvIZsIK4IlE1DrelX+vK1vl/Apr986flP3XnisS8v5iv+aUmcrY6Zgd3lox//ow+8+uWtP/DK1esfONo/+v1H2zv2OYGjI3xHT96JHvinr4smdPWWObFzBRNjgSt94KVLsvHrVVc3X8Y261IPPxsrDIMOhWebu8hLTtNBLNeckg9WPi/K7mq/3OzRg3h1z40+x/xZu23O3bN8+OCGjfTVPr1fq8M3BtDlnwXofOO7/K/e3Pn0l377K8+951ve9rx8j/oTn/mtzz1nv5R6/E0fMbNs4A0AXY3heu9UxrzP+jkDcwZerxngRcj0RRE/QPTWt7/zPXsvvPbQ6zVrc7/HM/Clzz+3fPzdb9E3htG6JacN9DiOdVmHSNsSv/jvf/XGK2978D/oRi932B+9eumqPd+PltPHeqxVHp/iG4Cy6ZnPGZgzMGfgrGVgvlA5a2dkc/GU55a8RLRIGVsHjyVuwKUOdjV9lNFXWTfaUBdlrDfjnIE5A3MG5gzMGZgzMGdgzsCcgTkDcwbmDMwZmDMwZ2DOwJyBOQNzBuYMzBmYMzBnYM7AnIE5A3MG5gzMGZgzMGdgzsCcgTkDcwbmDMwZmDMwZ2DOwJyBOQNzBuYMzBmYMzBnYM7AnIE5A3MG5gzMGZgzMGdgzsCcgTkDcwbmDMwZmDMwZ2DOwJyBOQNzBuYMzBmYMzBnYM7AnIE5A3MG5gzMGZgzMGdgzsCcgTkDcwbmDMwZmDMwZ2DOwJyBOQNzBuYMzBmYMzBnYM7AnIE5A3MG5gzMGZgzMGdgzsCcgTkDcwbmDMwZmDMwZ2DOwJyBOQNzBuYMzBmYMzBnYM7AnIE5A3MG5gzMGZgzcFIZ+P8BQSmBpYSA6lQAAAAASUVORK5CYII=;" vertex="1" parent="1">
          <mxGeometry x="910" y="210" width="61" height="61" as="geometry" />
        </mxCell>
      </root>
    </mxGraphModel>
  </diagram>
</mxfile>
